# Tiled2Unity generated file. Do not modify by hand.
# Wavefront file for 'SnowyOne_mesh_0004.obj'

# Vertices (Count = 60)
v -27 -8 0
v -29 -8 0
v -29 -6 0
v -27 -6 0
v -22 -9 0
v -24 -9 0
v -24 -7 0
v -22 -7 0
v -32 -9 0
v -34 -9 0
v -34 -7 0
v -32 -7 0
v -25 -13 0
v -27 -13 0
v -27 -11 0
v -25 -11 0
v -28 -18 0
v -30 -18 0
v -30 -16 0
v -28 -16 0
v -17 -19 0
v -19 -19 0
v -19 -17 0
v -17 -17 0
v -28 -19 0
v -30 -19 0
v -30 -17 0
v -28 -17 0
v -17 -20 0
v -19 -20 0
v -19 -18 0
v -17 -18 0
v -67 -51 0
v -69 -51 0
v -69 -49 0
v -67 -49 0
v -69 -51 0
v -71 -51 0
v -71 -49 0
v -69 -49 0
v -65 -52 0
v -67 -52 0
v -67 -50 0
v -65 -50 0
v -58 -53 0
v -60 -53 0
v -60 -51 0
v -58 -51 0
v -64 -53 0
v -66 -53 0
v -66 -51 0
v -64 -51 0
v -62 -54 0
v -64 -54 0
v -64 -52 0
v -62 -52 0
v -11 -61 0
v -13 -61 0
v -13 -59 0
v -11 -59 0

# Texture cooridinates (Count = 19)
vt 0.09375 0.06349206
vt 0.125 0.06349206
vt 0.125 0.07936507
vt 0.09375 0.07936507
vt 0.09375 0.04761904
vt 0.125 0.04761904
vt 0.09375 0.03174603
vt 0.125 0.03174603
vt 0.25 0.07936507
vt 0.28125 0.07936507
vt 0.28125 0.09523809
vt 0.25 0.09523809
vt 0.3125 0.09523809
vt 0.3125 0.1111111
vt 0.28125 0.1111111
vt 0.375 0.4603174
vt 0.40625 0.4603174
vt 0.40625 0.4761904
vt 0.375 0.4761904

# Normal
vn 0 0 -1

# Mesh description
g SnowyOne_mesh_0004

# Faces
f 1/1/1 2/2/1 3/3/1 4/4/1
f 5/1/1 6/2/1 7/3/1 8/4/1
f 9/5/1 10/6/1 11/2/1 12/1/1
f 13/1/1 14/2/1 15/3/1 16/4/1
f 17/5/1 18/6/1 19/2/1 20/1/1
f 21/5/1 22/6/1 23/2/1 24/1/1
f 25/7/1 26/8/1 27/6/1 28/5/1
f 29/7/1 30/8/1 31/6/1 32/5/1
f 33/9/1 34/10/1 35/11/1 36/12/1
f 37/9/1 38/10/1 39/11/1 40/12/1
f 41/9/1 42/10/1 43/11/1 44/12/1
f 45/9/1 46/10/1 47/11/1 48/12/1
f 49/9/1 50/10/1 51/11/1 52/12/1
f 53/11/1 54/13/1 55/14/1 56/15/1
f 57/16/1 58/17/1 59/18/1 60/19/1

