# Tiled2Unity generated file. Do not modify by hand.
# Wavefront file for 'SnowyOne_mesh_0012.obj'

# Vertices (Count = 40)
v -79 -54 0
v -81 -54 0
v -81 -52 0
v -79 -52 0
v -84 -54 0
v -86 -54 0
v -86 -52 0
v -84 -52 0
v -88 -54 0
v -90 -54 0
v -90 -52 0
v -88 -52 0
v -64 -55 0
v -66 -55 0
v -66 -53 0
v -64 -53 0
v -69 -55 0
v -71 -55 0
v -71 -53 0
v -69 -53 0
v -64 -61 0
v -66 -61 0
v -66 -59 0
v -64 -59 0
v -70 -61 0
v -72 -61 0
v -72 -59 0
v -70 -59 0
v -79 -61 0
v -81 -61 0
v -81 -59 0
v -79 -59 0
v -84 -61 0
v -86 -61 0
v -86 -59 0
v -84 -59 0
v -88 -61 0
v -90 -61 0
v -90 -59 0
v -88 -59 0

# Texture cooridinates (Count = 4)
vt 0.8461539 0.09090906
vt 0.9230769 0.09090906
vt 0.9230769 0.1363636
vt 0.8461539 0.1363636

# Normal
vn 0 0 -1

# Mesh description
g SnowyOne_mesh_0012

# Faces
f 1/1/1 2/2/1 3/3/1 4/4/1
f 5/1/1 6/2/1 7/3/1 8/4/1
f 9/1/1 10/2/1 11/3/1 12/4/1
f 13/1/1 14/2/1 15/3/1 16/4/1
f 17/1/1 18/2/1 19/3/1 20/4/1
f 21/1/1 22/2/1 23/3/1 24/4/1
f 25/1/1 26/2/1 27/3/1 28/4/1
f 29/1/1 30/2/1 31/3/1 32/4/1
f 33/1/1 34/2/1 35/3/1 36/4/1
f 37/1/1 38/2/1 39/3/1 40/4/1

