# Tiled2Unity generated file. Do not modify by hand.
# Wavefront file for 'Dungeon-Room-2_mesh_0006.obj'

# Vertices (Count = 124)
v -352 -192 0
v -384 -192 0
v -384 -160 0
v -352 -160 0
v -336 -192 0
v -368 -192 0
v -368 -160 0
v -336 -160 0
v -320 -192 0
v -352 -192 0
v -352 -160 0
v -320 -160 0
v -304 -192 0
v -336 -192 0
v -336 -160 0
v -304 -160 0
v -272 -192 0
v -304 -192 0
v -304 -160 0
v -272 -160 0
v -240 -192 0
v -272 -192 0
v -272 -160 0
v -240 -160 0
v -224 -192 0
v -256 -192 0
v -256 -160 0
v -224 -160 0
v -208 -192 0
v -240 -192 0
v -240 -160 0
v -208 -160 0
v -176 -192 0
v -208 -192 0
v -208 -160 0
v -176 -160 0
v -144 -192 0
v -176 -192 0
v -176 -160 0
v -144 -160 0
v -112 -192 0
v -144 -192 0
v -144 -160 0
v -112 -160 0
v -112 -256 0
v -144 -256 0
v -144 -224 0
v -112 -224 0
v -112 -288 0
v -144 -288 0
v -144 -256 0
v -112 -256 0
v -112 -352 0
v -144 -352 0
v -144 -320 0
v -112 -320 0
v -1216 -976 0
v -1248 -976 0
v -1248 -944 0
v -1216 -944 0
v -1216 -1008 0
v -1248 -1008 0
v -1248 -976 0
v -1216 -976 0
v -1200 -1008 0
v -1232 -1008 0
v -1232 -976 0
v -1200 -976 0
v -1184 -1008 0
v -1216 -1008 0
v -1216 -976 0
v -1184 -976 0
v -1168 -1008 0
v -1200 -1008 0
v -1200 -976 0
v -1168 -976 0
v -1136 -1008 0
v -1168 -1008 0
v -1168 -976 0
v -1136 -976 0
v -1120 -1008 0
v -1152 -1008 0
v -1152 -976 0
v -1120 -976 0
v -1104 -1040 0
v -1136 -1040 0
v -1136 -1008 0
v -1104 -1008 0
v -1088 -1056 0
v -1120 -1056 0
v -1120 -1024 0
v -1088 -1024 0
v -1104 -1072 0
v -1136 -1072 0
v -1136 -1040 0
v -1104 -1040 0
v -1088 -1072 0
v -1120 -1072 0
v -1120 -1040 0
v -1088 -1040 0
v -1104 -1088 0
v -1136 -1088 0
v -1136 -1056 0
v -1104 -1056 0
v -1104 -1104 0
v -1136 -1104 0
v -1136 -1072 0
v -1104 -1072 0
v -1088 -1104 0
v -1120 -1104 0
v -1120 -1072 0
v -1088 -1072 0
v -1104 -1120 0
v -1136 -1120 0
v -1136 -1088 0
v -1104 -1088 0
v -1088 -1120 0
v -1120 -1120 0
v -1120 -1088 0
v -1088 -1088 0
v -1040 -1456 0
v -1072 -1456 0
v -1072 -1424 0
v -1040 -1424 0

# Texture cooridinates (Count = 12)
vt 0.6923077 0.3636364
vt 0.6153846 0.3636364
vt 0.6153846 0.3181818
vt 0.6923077 0.3181818
vt 0.5384616 0.3636364
vt 0.5384616 0.3181818
vt 0.5384616 0.2727273
vt 0.6153846 0.2727273
vt 0.5384616 0.1818182
vt 0.6153846 0.1818182
vt 0.6153846 0.2272727
vt 0.5384616 0.2272727

# Normal
vn 0 0 -1

# Mesh description
g Dungeon-Room-2_mesh_0006

# Faces
f 1/1/1 2/2/1 3/3/1 4/4/1
f 5/2/1 6/5/1 7/6/1 8/3/1
f 9/2/1 10/5/1 11/6/1 12/3/1
f 13/1/1 14/2/1 15/3/1 16/4/1
f 17/7/1 18/8/1 19/3/1 20/6/1
f 21/7/1 22/8/1 23/3/1 24/6/1
f 25/7/1 26/8/1 27/3/1 28/6/1
f 29/7/1 30/8/1 31/3/1 32/6/1
f 33/7/1 34/8/1 35/3/1 36/6/1
f 37/7/1 38/8/1 39/3/1 40/6/1
f 41/7/1 42/8/1 43/3/1 44/6/1
f 45/9/1 46/10/1 47/11/1 48/12/1
f 49/9/1 50/10/1 51/11/1 52/12/1
f 53/9/1 54/10/1 55/11/1 56/12/1
f 57/5/1 58/6/1 59/3/1 60/2/1
f 61/2/1 62/5/1 63/6/1 64/3/1
f 65/1/1 66/2/1 67/3/1 68/4/1
f 69/2/1 70/5/1 71/6/1 72/3/1
f 73/1/1 74/2/1 75/3/1 76/4/1
f 77/2/1 78/5/1 79/6/1 80/3/1
f 81/1/1 82/2/1 83/3/1 84/4/1
f 85/4/1 86/1/1 87/2/1 88/3/1
f 89/3/1 90/2/1 91/5/1 92/6/1
f 93/3/1 94/2/1 95/5/1 96/6/1
f 97/4/1 98/1/1 99/2/1 100/3/1
f 101/4/1 102/1/1 103/2/1 104/3/1
f 105/3/1 106/2/1 107/5/1 108/6/1
f 109/3/1 110/2/1 111/5/1 112/6/1
f 113/4/1 114/1/1 115/2/1 116/3/1
f 117/4/1 118/1/1 119/2/1 120/3/1
f 121/8/1 122/3/1 123/6/1 124/7/1

