# Tiled2Unity generated file. Do not modify by hand.
# Wavefront file for 'Dungeon-Room-2_mesh_0027.obj'

# Vertices (Count = 80)
v -1104 -1296 0
v -1136 -1296 0
v -1136 -1264 0
v -1104 -1264 0
v -1056 -1296 0
v -1088 -1296 0
v -1088 -1264 0
v -1056 -1264 0
v -1216 -1344 0
v -1248 -1344 0
v -1248 -1312 0
v -1216 -1312 0
v -1008 -1360 0
v -1040 -1360 0
v -1040 -1328 0
v -1008 -1328 0
v -1168 -1376 0
v -1200 -1376 0
v -1200 -1344 0
v -1168 -1344 0
v -1120 -1376 0
v -1152 -1376 0
v -1152 -1344 0
v -1120 -1344 0
v -1008 -1424 0
v -1040 -1424 0
v -1040 -1392 0
v -1008 -1392 0
v -1328 -1488 0
v -1360 -1488 0
v -1360 -1456 0
v -1328 -1456 0
v -1088 -1488 0
v -1120 -1488 0
v -1120 -1456 0
v -1088 -1456 0
v -1008 -1488 0
v -1040 -1488 0
v -1040 -1456 0
v -1008 -1456 0
v -1328 -1504 0
v -1360 -1504 0
v -1360 -1472 0
v -1328 -1472 0
v -1264 -1504 0
v -1296 -1504 0
v -1296 -1472 0
v -1264 -1472 0
v -1136 -1504 0
v -1168 -1504 0
v -1168 -1472 0
v -1136 -1472 0
v -1328 -1520 0
v -1360 -1520 0
v -1360 -1488 0
v -1328 -1488 0
v -1376 -1536 0
v -1408 -1536 0
v -1408 -1504 0
v -1376 -1504 0
v -1008 -1552 0
v -1040 -1552 0
v -1040 -1520 0
v -1008 -1520 0
v -1328 -1584 0
v -1360 -1584 0
v -1360 -1552 0
v -1328 -1552 0
v -1264 -1584 0
v -1296 -1584 0
v -1296 -1552 0
v -1264 -1552 0
v -1200 -1584 0
v -1232 -1584 0
v -1232 -1552 0
v -1200 -1552 0
v -1136 -1584 0
v -1168 -1584 0
v -1168 -1552 0
v -1136 -1552 0

# Texture cooridinates (Count = 10)
vt 0.6923077 0.04545456
vt 0.7692308 0.04545456
vt 0.7692308 0.09090906
vt 0.6923077 0.09090906
vt 0.6923077 0.4090909
vt 0.7692308 0.4090909
vt 0.7692308 0.4545454
vt 0.6923077 0.4545454
vt 0.7692308 0.5
vt 0.6923077 0.5

# Normal
vn 0 0 -1

# Mesh description
g Dungeon-Room-2_mesh_0027

# Faces
f 1/1/1 2/2/1 3/3/1 4/4/1
f 5/1/1 6/2/1 7/3/1 8/4/1
f 9/2/1 10/3/1 11/4/1 12/1/1
f 13/4/1 14/1/1 15/2/1 16/3/1
f 17/3/1 18/4/1 19/1/1 20/2/1
f 21/3/1 22/4/1 23/1/1 24/2/1
f 25/4/1 26/1/1 27/2/1 28/3/1
f 29/5/1 30/6/1 31/7/1 32/8/1
f 33/2/1 34/3/1 35/4/1 36/1/1
f 37/4/1 38/1/1 39/2/1 40/3/1
f 41/8/1 42/7/1 43/9/1 44/10/1
f 45/1/1 46/2/1 47/3/1 48/4/1
f 49/1/1 50/2/1 51/3/1 52/4/1
f 53/5/1 54/6/1 55/7/1 56/8/1
f 57/2/1 58/3/1 59/4/1 60/1/1
f 61/4/1 62/1/1 63/2/1 64/3/1
f 65/3/1 66/4/1 67/1/1 68/2/1
f 69/3/1 70/4/1 71/1/1 72/2/1
f 73/3/1 74/4/1 75/1/1 76/2/1
f 77/3/1 78/4/1 79/1/1 80/2/1

