# Tiled2Unity generated file. Do not modify by hand.
# Wavefront file for 'Dungeon-Room-2_mesh_0030.obj'

# Vertices (Count = 32)
v -192 -160 0
v -224 -160 0
v -224 -128 0
v -192 -128 0
v -128 -160 0
v -160 -160 0
v -160 -128 0
v -128 -128 0
v -96 -304 0
v -128 -304 0
v -128 -272 0
v -96 -272 0
v -224 -320 0
v -256 -320 0
v -256 -288 0
v -224 -288 0
v -96 -384 0
v -128 -384 0
v -128 -352 0
v -96 -352 0
v -224 -416 0
v -256 -416 0
v -256 -384 0
v -224 -384 0
v -192 -416 0
v -224 -416 0
v -224 -384 0
v -192 -384 0
v -208 -432 0
v -240 -432 0
v -240 -400 0
v -208 -400 0

# Texture cooridinates (Count = 6)
vt 0.7692308 0.1363636
vt 0.8461539 0.1363636
vt 0.8461539 0.1818182
vt 0.7692308 0.1818182
vt 0.7692308 0.09090906
vt 0.8461539 0.09090906

# Normal
vn 0 0 -1

# Mesh description
g Dungeon-Room-2_mesh_0030

# Faces
f 1/1/1 2/2/1 3/3/1 4/4/1
f 5/1/1 6/2/1 7/3/1 8/4/1
f 9/4/1 10/1/1 11/2/1 12/3/1
f 13/5/1 14/6/1 15/2/1 16/1/1
f 17/4/1 18/1/1 19/2/1 20/3/1
f 21/5/1 22/6/1 23/2/1 24/1/1
f 25/5/1 26/6/1 27/2/1 28/1/1
f 29/5/1 30/6/1 31/2/1 32/1/1

