# Tiled2Unity generated file. Do not modify by hand.
# Wavefront file for 'Dungeon-Room-2_mesh_0011.obj'

# Vertices (Count = 24)
v -176 -224 0
v -192 -224 0
v -192 -208 0
v -176 -208 0
v -256 -352 0
v -272 -352 0
v -272 -336 0
v -256 -336 0
v -160 -368 0
v -176 -368 0
v -176 -352 0
v -160 -352 0
v -192 -432 0
v -208 -432 0
v -208 -416 0
v -192 -416 0
v -160 -480 0
v -176 -480 0
v -176 -464 0
v -160 -464 0
v -288 -512 0
v -304 -512 0
v -304 -496 0
v -288 -496 0

# Texture cooridinates (Count = 8)
vt 0.875 0.09090906
vt 0.9375 0.09090906
vt 0.9375 0.1363636
vt 0.875 0.1363636
vt 0.9375 0.3636364
vt 0.9375 0.4090909
vt 0.875 0.4090909
vt 0.875 0.3636364

# Normal
vn 0 0 -1

# Mesh description
g Dungeon-Room-2_mesh_0011

# Faces
f 1/1/1 2/2/1 3/3/1 4/4/1
f 5/2/1 6/3/1 7/4/1 8/1/1
f 9/2/1 10/3/1 11/4/1 12/1/1
f 13/5/1 14/6/1 15/7/1 16/8/1
f 17/2/1 18/3/1 19/4/1 20/1/1
f 21/8/1 22/5/1 23/6/1 24/7/1

