# Tiled2Unity generated file. Do not modify by hand.
# Wavefront file for 'Dungeon-Room-2_mesh_0026.obj'

# Vertices (Count = 20)
v -1088 -992 0
v -1120 -992 0
v -1120 -960 0
v -1088 -960 0
v -1104 -1248 0
v -1136 -1248 0
v -1136 -1216 0
v -1104 -1216 0
v -1216 -1296 0
v -1248 -1296 0
v -1248 -1264 0
v -1216 -1264 0
v -1088 -1424 0
v -1120 -1424 0
v -1120 -1392 0
v -1088 -1392 0
v -1200 -1504 0
v -1232 -1504 0
v -1232 -1472 0
v -1200 -1472 0

# Texture cooridinates (Count = 4)
vt 0.9230769 0.1363636
vt 1 0.1363636
vt 1 0.1818182
vt 0.9230769 0.1818182

# Normal
vn 0 0 -1

# Mesh description
g Dungeon-Room-2_mesh_0026

# Faces
f 1/1/1 2/2/1 3/3/1 4/4/1
f 5/3/1 6/4/1 7/1/1 8/2/1
f 9/2/1 10/3/1 11/4/1 12/1/1
f 13/2/1 14/3/1 15/4/1 16/1/1
f 17/1/1 18/2/1 19/3/1 20/4/1

