# Wavefront OBJ file automatically generated by Tiled2Unity

# Vertices (Count = 100)
v -688 -528 0
v -704 -528 0
v -704 -512 0
v -688 -512 0
v -672 -528 0
v -672 -512 0
v -656 -528 0
v -656 -512 0
v -640 -528 0
v -640 -512 0
v -624 -528 0
v -624 -512 0
v -608 -528 0
v -608 -512 0
v -592 -528 0
v -592 -512 0
v -576 -528 0
v -576 -512 0
v -560 -528 0
v -560 -512 0
v -688 -544 0
v -704 -544 0
v -672 -544 0
v -656 -544 0
v -640 -544 0
v -624 -544 0
v -608 -544 0
v -592 -544 0
v -576 -544 0
v -560 -544 0
v -688 -560 0
v -704 -560 0
v -672 -560 0
v -656 -560 0
v -640 -560 0
v -624 -560 0
v -608 -560 0
v -592 -560 0
v -576 -560 0
v -560 -560 0
v -688 -576 0
v -704 -576 0
v -672 -576 0
v -656 -576 0
v -640 -576 0
v -624 -576 0
v -608 -576 0
v -592 -576 0
v -576 -576 0
v -560 -576 0
v -688 -592 0
v -704 -592 0
v -672 -592 0
v -656 -592 0
v -640 -592 0
v -624 -592 0
v -608 -592 0
v -592 -592 0
v -576 -592 0
v -560 -592 0
v -688 -608 0
v -704 -608 0
v -672 -608 0
v -656 -608 0
v -640 -608 0
v -624 -608 0
v -608 -608 0
v -592 -608 0
v -576 -608 0
v -560 -608 0
v -688 -624 0
v -704 -624 0
v -672 -624 0
v -656 -624 0
v -640 -624 0
v -624 -624 0
v -608 -624 0
v -592 -624 0
v -576 -624 0
v -560 -624 0
v -688 -640 0
v -704 -640 0
v -672 -640 0
v -656 -640 0
v -640 -640 0
v -624 -640 0
v -608 -640 0
v -592 -640 0
v -576 -640 0
v -560 -640 0
v -688 -656 0
v -704 -656 0
v -672 -656 0
v -656 -656 0
v -640 -656 0
v -624 -656 0
v -608 -656 0
v -592 -656 0
v -576 -656 0
v -560 -656 0

# Texture cooridinates (Count = 68)
vt 0.07024995 0.2908782
vt 0.08677484 0.2908782
vt 0.08677484 0.3212891
vt 0.07024995 0.3212891
vt 0.05268797 0.2908782
vt 0.06921286 0.2908782
vt 0.06921286 0.3212891
vt 0.05268797 0.3212891
vt 0.03512599 0.2908782
vt 0.05165087 0.2908782
vt 0.05165087 0.3212891
vt 0.03512599 0.3212891
vt 0.07024995 0.2585589
vt 0.08677484 0.2585589
vt 0.08677484 0.2889697
vt 0.07024995 0.2889697
vt 0.05268797 0.2585589
vt 0.06921286 0.2585589
vt 0.06921286 0.2889697
vt 0.05268797 0.2889697
vt 0.03512599 0.2585589
vt 0.05165087 0.2585589
vt 0.05165087 0.2889697
vt 0.03512599 0.2889697
vt 0.07024995 0.2262394
vt 0.08677484 0.2262394
vt 0.08677484 0.2566503
vt 0.07024995 0.2566503
vt 0.05268797 0.2262394
vt 0.06921286 0.2262394
vt 0.06921286 0.2566503
vt 0.05268797 0.2566503
vt 0.03512599 0.2262394
vt 0.05165087 0.2262394
vt 0.05165087 0.2566503
vt 0.03512599 0.2566503
vt 0.2634318 0.7110304
vt 0.2799567 0.7110304
vt 0.2799567 0.7414411
vt 0.2634318 0.7414411
vt 0.9307871 0.6787109
vt 0.9473121 0.6787109
vt 0.9473121 0.7091218
vt 0.9307871 0.7091218
vt 0.2283078 0.3231976
vt 0.2448327 0.3231976
vt 0.2448327 0.3536084
vt 0.2283078 0.3536084
vt 0.9132252 0.6463915
vt 0.92975 0.6463915
vt 0.92975 0.6768024
vt 0.9132252 0.6768024
vt 0.2283078 0.355517
vt 0.2448327 0.355517
vt 0.2448327 0.3859279
vt 0.2283078 0.3859279
vt 0.2458698 0.355517
vt 0.2623947 0.355517
vt 0.2623947 0.3859279
vt 0.2458698 0.3859279
vt 0.2458698 0.3231976
vt 0.2623947 0.3231976
vt 0.2623947 0.3536084
vt 0.2458698 0.3536084
vt 0.4214896 0.7110304
vt 0.4380145 0.7110304
vt 0.4380145 0.7414411
vt 0.4214896 0.7414411

# Normal
vn 0 0 -1

# Groups (Count = 2)

g mesh_0001
f 1/1/1 2/2/1 3/3/1 4/4/1
f 5/5/1 1/6/1 4/7/1 6/8/1
f 7/5/1 5/6/1 6/7/1 8/8/1
f 9/5/1 7/6/1 8/7/1 10/8/1
f 11/5/1 9/6/1 10/7/1 12/8/1
f 13/5/1 11/6/1 12/7/1 14/8/1
f 15/5/1 13/6/1 14/7/1 16/8/1
f 17/5/1 15/6/1 16/7/1 18/8/1
f 19/9/1 17/10/1 18/11/1 20/12/1
f 21/13/1 22/14/1 2/15/1 1/16/1
f 23/17/1 21/18/1 1/19/1 5/20/1
f 24/17/1 23/18/1 5/19/1 7/20/1
f 25/17/1 24/18/1 7/19/1 9/20/1
f 26/17/1 25/18/1 9/19/1 11/20/1
f 27/17/1 26/18/1 11/19/1 13/20/1
f 28/17/1 27/18/1 13/19/1 15/20/1
f 29/17/1 28/18/1 15/19/1 17/20/1
f 30/21/1 29/22/1 17/23/1 19/24/1
f 31/13/1 32/14/1 22/15/1 21/16/1
f 33/17/1 31/18/1 21/19/1 23/20/1
f 34/17/1 33/18/1 23/19/1 24/20/1
f 35/17/1 34/18/1 24/19/1 25/20/1
f 36/17/1 35/18/1 25/19/1 26/20/1
f 37/17/1 36/18/1 26/19/1 27/20/1
f 38/17/1 37/18/1 27/19/1 28/20/1
f 39/17/1 38/18/1 28/19/1 29/20/1
f 40/21/1 39/22/1 29/23/1 30/24/1
f 41/13/1 42/14/1 32/15/1 31/16/1
f 43/17/1 41/18/1 31/19/1 33/20/1
f 44/17/1 43/18/1 33/19/1 34/20/1
f 45/17/1 44/18/1 34/19/1 35/20/1
f 46/17/1 45/18/1 35/19/1 36/20/1
f 47/17/1 46/18/1 36/19/1 37/20/1
f 48/17/1 47/18/1 37/19/1 38/20/1
f 49/17/1 48/18/1 38/19/1 39/20/1
f 50/21/1 49/22/1 39/23/1 40/24/1
f 51/13/1 52/14/1 42/15/1 41/16/1
f 53/17/1 51/18/1 41/19/1 43/20/1
f 54/17/1 53/18/1 43/19/1 44/20/1
f 55/17/1 54/18/1 44/19/1 45/20/1
f 56/17/1 55/18/1 45/19/1 46/20/1
f 57/17/1 56/18/1 46/19/1 47/20/1
f 58/17/1 57/18/1 47/19/1 48/20/1
f 59/17/1 58/18/1 48/19/1 49/20/1
f 60/21/1 59/22/1 49/23/1 50/24/1
f 61/13/1 62/14/1 52/15/1 51/16/1
f 63/17/1 61/18/1 51/19/1 53/20/1
f 64/17/1 63/18/1 53/19/1 54/20/1
f 65/17/1 64/18/1 54/19/1 55/20/1
f 66/17/1 65/18/1 55/19/1 56/20/1
f 67/17/1 66/18/1 56/19/1 57/20/1
f 68/17/1 67/18/1 57/19/1 58/20/1
f 69/17/1 68/18/1 58/19/1 59/20/1
f 70/21/1 69/22/1 59/23/1 60/24/1
f 71/13/1 72/14/1 62/15/1 61/16/1
f 73/17/1 71/18/1 61/19/1 63/20/1
f 74/17/1 73/18/1 63/19/1 64/20/1
f 75/17/1 74/18/1 64/19/1 65/20/1
f 76/17/1 75/18/1 65/19/1 66/20/1
f 77/17/1 76/18/1 66/19/1 67/20/1
f 78/17/1 77/18/1 67/19/1 68/20/1
f 79/17/1 78/18/1 68/19/1 69/20/1
f 80/21/1 79/22/1 69/23/1 70/24/1
f 81/13/1 82/14/1 72/15/1 71/16/1
f 83/17/1 81/18/1 71/19/1 73/20/1
f 84/17/1 83/18/1 73/19/1 74/20/1
f 85/17/1 84/18/1 74/19/1 75/20/1
f 86/17/1 85/18/1 75/19/1 76/20/1
f 87/17/1 86/18/1 76/19/1 77/20/1
f 88/17/1 87/18/1 77/19/1 78/20/1
f 89/17/1 88/18/1 78/19/1 79/20/1
f 90/21/1 89/22/1 79/23/1 80/24/1
f 91/25/1 92/26/1 82/27/1 81/28/1
f 93/29/1 91/30/1 81/31/1 83/32/1
f 94/29/1 93/30/1 83/31/1 84/32/1
f 95/29/1 94/30/1 84/31/1 85/32/1
f 96/29/1 95/30/1 85/31/1 86/32/1
f 97/29/1 96/30/1 86/31/1 87/32/1
f 98/29/1 97/30/1 87/31/1 88/32/1
f 99/29/1 98/30/1 88/31/1 89/32/1
f 100/33/1 99/34/1 89/35/1 90/36/1

g mesh_0002
f 33/37/1 31/38/1 21/39/1 23/40/1
f 39/37/1 38/38/1 28/39/1 29/40/1
f 45/41/1 44/42/1 34/43/1 35/44/1
f 46/41/1 45/42/1 35/43/1 36/44/1
f 47/41/1 46/42/1 36/43/1 37/44/1
f 53/45/1 51/46/1 41/47/1 43/48/1
f 55/41/1 54/42/1 44/43/1 45/44/1
f 56/49/1 55/50/1 45/51/1 46/52/1
f 57/41/1 56/42/1 46/43/1 47/44/1
f 59/45/1 58/46/1 48/47/1 49/48/1
f 63/53/1 61/54/1 51/55/1 53/56/1
f 65/41/1 64/42/1 54/43/1 55/44/1
f 67/41/1 66/42/1 56/43/1 57/44/1
f 69/57/1 68/58/1 58/59/1 59/60/1
f 73/53/1 71/54/1 61/55/1 63/56/1
f 79/53/1 78/54/1 68/55/1 69/56/1
f 83/61/1 81/62/1 71/63/1 73/64/1
f 86/65/1 85/66/1 75/67/1 76/68/1
f 89/61/1 88/62/1 78/63/1 79/64/1

