# Tiled2Unity generated file. Do not modify by hand.
# Wavefront file for 'SewersOne_mesh_0006.obj'

# Vertices (Count = 16)
v -85 -21 0
v -86 -21 0
v -86 -20 0
v -85 -20 0
v -48 -31 0
v -49 -31 0
v -49 -30 0
v -48 -30 0
v -83 -32 0
v -84 -32 0
v -84 -31 0
v -83 -31 0
v -55 -35 0
v -56 -35 0
v -56 -34 0
v -55 -34 0

# Texture cooridinates (Count = 4)
vt 0.5625 0.4090909
vt 0.625 0.4090909
vt 0.625 0.4545454
vt 0.5625 0.4545454

# Normal
vn 0 0 -1

# Mesh description
g SewersOne_mesh_0006

# Faces
f 1/1/1 2/2/1 3/3/1 4/4/1
f 5/1/1 6/2/1 7/3/1 8/4/1
f 9/1/1 10/2/1 11/3/1 12/4/1
f 13/1/1 14/2/1 15/3/1 16/4/1

