# Tiled2Unity generated file. Do not modify by hand.
# Wavefront file for 'SewersOne_mesh_0032.obj'

# Vertices (Count = 16)
v -33 -21 0
v -35 -21 0
v -35 -19 0
v -33 -19 0
v -49 -31 0
v -51 -31 0
v -51 -29 0
v -49 -29 0
v -60 -31 0
v -62 -31 0
v -62 -29 0
v -60 -29 0
v -66 -31 0
v -68 -31 0
v -68 -29 0
v -66 -29 0

# Texture cooridinates (Count = 4)
vt 0.7692308 0.1363636
vt 0.8461539 0.1363636
vt 0.8461539 0.1818182
vt 0.7692308 0.1818182

# Normal
vn 0 0 -1

# Mesh description
g SewersOne_mesh_0032

# Faces
f 1/1/1 2/2/1 3/3/1 4/4/1
f 5/2/1 6/1/1 7/4/1 8/3/1
f 9/2/1 10/1/1 11/4/1 12/3/1
f 13/2/1 14/1/1 15/4/1 16/3/1

