# Tiled2Unity generated file. Do not modify by hand.
# Wavefront file for 'SewersOne_mesh_0014.obj'

# Vertices (Count = 40)
v -86 -10 0
v -88 -10 0
v -88 -8 0
v -86 -8 0
v -46 -12 0
v -48 -12 0
v -48 -10 0
v -46 -10 0
v -59 -12 0
v -61 -12 0
v -61 -10 0
v -59 -10 0
v -67 -12 0
v -69 -12 0
v -69 -10 0
v -67 -10 0
v -79 -12 0
v -81 -12 0
v -81 -10 0
v -79 -10 0
v -86 -12 0
v -88 -12 0
v -88 -10 0
v -86 -10 0
v -86 -13 0
v -88 -13 0
v -88 -11 0
v -86 -11 0
v -42 -18 0
v -44 -18 0
v -44 -16 0
v -42 -16 0
v -64 -18 0
v -66 -18 0
v -66 -16 0
v -64 -16 0
v -80 -18 0
v -82 -18 0
v -82 -16 0
v -80 -16 0

# Texture cooridinates (Count = 10)
vt 0.6923077 0.4545454
vt 0.7692308 0.4545454
vt 0.7692308 0.5
vt 0.6923077 0.5
vt 0.6923077 0.04545456
vt 0.7692308 0.04545456
vt 0.7692308 0.09090906
vt 0.6923077 0.09090906
vt 0.6923077 0.4090909
vt 0.7692308 0.4090909

# Normal
vn 0 0 -1

# Mesh description
g SewersOne_mesh_0014

# Faces
f 1/1/1 2/2/1 3/3/1 4/4/1
f 5/5/1 6/6/1 7/7/1 8/8/1
f 9/5/1 10/6/1 11/7/1 12/8/1
f 13/5/1 14/6/1 15/7/1 16/8/1
f 17/5/1 18/6/1 19/7/1 20/8/1
f 21/1/1 22/2/1 23/3/1 24/4/1
f 25/9/1 26/10/1 27/2/1 28/1/1
f 29/5/1 30/6/1 31/7/1 32/8/1
f 33/5/1 34/6/1 35/7/1 36/8/1
f 37/5/1 38/6/1 39/7/1 40/8/1

