# Tiled2Unity generated file. Do not modify by hand.
# Wavefront file for 'SnowyC_mesh_0006.obj'

# Vertices (Count = 48)
v -53 -65 0
v -54 -65 0
v -54 -64 0
v -53 -64 0
v -54 -65 0
v -55 -65 0
v -55 -64 0
v -54 -64 0
v -53 -66 0
v -54 -66 0
v -54 -65 0
v -53 -65 0
v -54 -66 0
v -55 -66 0
v -55 -65 0
v -54 -65 0
v -53 -67 0
v -54 -67 0
v -54 -66 0
v -53 -66 0
v -54 -67 0
v -55 -67 0
v -55 -66 0
v -54 -66 0
v -53 -68 0
v -54 -68 0
v -54 -67 0
v -53 -67 0
v -54 -68 0
v -55 -68 0
v -55 -67 0
v -54 -67 0
v -53 -69 0
v -54 -69 0
v -54 -68 0
v -53 -68 0
v -54 -69 0
v -55 -69 0
v -55 -68 0
v -54 -68 0
v -53 -70 0
v -54 -70 0
v -54 -69 0
v -53 -69 0
v -54 -70 0
v -55 -70 0
v -55 -69 0
v -54 -69 0

# Texture cooridinates (Count = 48)
vt 0.35625 0.640625
vt 0.40625 0.640625
vt 0.40625 0.703125
vt 0.35625 0.703125
vt 0.415625 0.640625
vt 0.465625 0.640625
vt 0.465625 0.703125
vt 0.415625 0.703125
vt 0.35625 0.5664063
vt 0.40625 0.5664063
vt 0.40625 0.6289063
vt 0.35625 0.6289063
vt 0.415625 0.5664063
vt 0.465625 0.5664063
vt 0.465625 0.6289063
vt 0.415625 0.6289063
vt 0.35625 0.4921875
vt 0.40625 0.4921875
vt 0.40625 0.5546875
vt 0.35625 0.5546875
vt 0.415625 0.4921875
vt 0.465625 0.4921875
vt 0.465625 0.5546875
vt 0.415625 0.5546875
vt 0.35625 0.4179688
vt 0.40625 0.4179688
vt 0.40625 0.4804688
vt 0.35625 0.4804688
vt 0.415625 0.4179688
vt 0.465625 0.4179688
vt 0.465625 0.4804688
vt 0.415625 0.4804688
vt 0.35625 0.34375
vt 0.40625 0.34375
vt 0.40625 0.40625
vt 0.35625 0.40625
vt 0.415625 0.34375
vt 0.465625 0.34375
vt 0.465625 0.40625
vt 0.415625 0.40625
vt 0.35625 0.2695313
vt 0.40625 0.2695313
vt 0.40625 0.3320313
vt 0.35625 0.3320313
vt 0.415625 0.2695313
vt 0.465625 0.2695313
vt 0.465625 0.3320313
vt 0.415625 0.3320313

# Normal
vn 0 0 -1

# Mesh description
g SnowyC_mesh_0006

# Faces
f 1/1/1 2/2/1 3/3/1 4/4/1
f 5/5/1 6/6/1 7/7/1 8/8/1
f 9/9/1 10/10/1 11/11/1 12/12/1
f 13/13/1 14/14/1 15/15/1 16/16/1
f 17/17/1 18/18/1 19/19/1 20/20/1
f 21/21/1 22/22/1 23/23/1 24/24/1
f 25/25/1 26/26/1 27/27/1 28/28/1
f 29/29/1 30/30/1 31/31/1 32/32/1
f 33/33/1 34/34/1 35/35/1 36/36/1
f 37/37/1 38/38/1 39/39/1 40/40/1
f 41/41/1 42/42/1 43/43/1 44/44/1
f 45/45/1 46/46/1 47/47/1 48/48/1

