# Tiled2Unity generated file. Do not modify by hand.
# Wavefront file for 'SnowyC_mesh_0005.obj'

# Vertices (Count = 384)
v -53 -25 0
v -54 -25 0
v -54 -24 0
v -53 -24 0
v -54 -25 0
v -55 -25 0
v -55 -24 0
v -54 -24 0
v -55 -25 0
v -56 -25 0
v -56 -24 0
v -55 -24 0
v -56 -25 0
v -57 -25 0
v -57 -24 0
v -56 -24 0
v -53 -26 0
v -54 -26 0
v -54 -25 0
v -53 -25 0
v -54 -26 0
v -55 -26 0
v -55 -25 0
v -54 -25 0
v -55 -26 0
v -56 -26 0
v -56 -25 0
v -55 -25 0
v -56 -26 0
v -57 -26 0
v -57 -25 0
v -56 -25 0
v -53 -27 0
v -54 -27 0
v -54 -26 0
v -53 -26 0
v -54 -27 0
v -55 -27 0
v -55 -26 0
v -54 -26 0
v -55 -27 0
v -56 -27 0
v -56 -26 0
v -55 -26 0
v -56 -27 0
v -57 -27 0
v -57 -26 0
v -56 -26 0
v -53 -28 0
v -54 -28 0
v -54 -27 0
v -53 -27 0
v -54 -28 0
v -55 -28 0
v -55 -27 0
v -54 -27 0
v -55 -28 0
v -56 -28 0
v -56 -27 0
v -55 -27 0
v -56 -28 0
v -57 -28 0
v -57 -27 0
v -56 -27 0
v -53 -29 0
v -54 -29 0
v -54 -28 0
v -53 -28 0
v -54 -29 0
v -55 -29 0
v -55 -28 0
v -54 -28 0
v -55 -29 0
v -56 -29 0
v -56 -28 0
v -55 -28 0
v -56 -29 0
v -57 -29 0
v -57 -28 0
v -56 -28 0
v -53 -30 0
v -54 -30 0
v -54 -29 0
v -53 -29 0
v -54 -30 0
v -55 -30 0
v -55 -29 0
v -54 -29 0
v -55 -30 0
v -56 -30 0
v -56 -29 0
v -55 -29 0
v -56 -30 0
v -57 -30 0
v -57 -29 0
v -56 -29 0
v -45 -33 0
v -46 -33 0
v -46 -32 0
v -45 -32 0
v -46 -33 0
v -47 -33 0
v -47 -32 0
v -46 -32 0
v -47 -33 0
v -48 -33 0
v -48 -32 0
v -47 -32 0
v -48 -33 0
v -49 -33 0
v -49 -32 0
v -48 -32 0
v -45 -34 0
v -46 -34 0
v -46 -33 0
v -45 -33 0
v -46 -34 0
v -47 -34 0
v -47 -33 0
v -46 -33 0
v -47 -34 0
v -48 -34 0
v -48 -33 0
v -47 -33 0
v -48 -34 0
v -49 -34 0
v -49 -33 0
v -48 -33 0
v -45 -35 0
v -46 -35 0
v -46 -34 0
v -45 -34 0
v -46 -35 0
v -47 -35 0
v -47 -34 0
v -46 -34 0
v -47 -35 0
v -48 -35 0
v -48 -34 0
v -47 -34 0
v -48 -35 0
v -49 -35 0
v -49 -34 0
v -48 -34 0
v -45 -36 0
v -46 -36 0
v -46 -35 0
v -45 -35 0
v -46 -36 0
v -47 -36 0
v -47 -35 0
v -46 -35 0
v -47 -36 0
v -48 -36 0
v -48 -35 0
v -47 -35 0
v -48 -36 0
v -49 -36 0
v -49 -35 0
v -48 -35 0
v -45 -37 0
v -46 -37 0
v -46 -36 0
v -45 -36 0
v -46 -37 0
v -47 -37 0
v -47 -36 0
v -46 -36 0
v -47 -37 0
v -48 -37 0
v -48 -36 0
v -47 -36 0
v -48 -37 0
v -49 -37 0
v -49 -36 0
v -48 -36 0
v -45 -38 0
v -46 -38 0
v -46 -37 0
v -45 -37 0
v -46 -38 0
v -47 -38 0
v -47 -37 0
v -46 -37 0
v -47 -38 0
v -48 -38 0
v -48 -37 0
v -47 -37 0
v -48 -38 0
v -49 -38 0
v -49 -37 0
v -48 -37 0
v -56 -38 0
v -57 -38 0
v -57 -37 0
v -56 -37 0
v -57 -38 0
v -58 -38 0
v -58 -37 0
v -57 -37 0
v -58 -38 0
v -59 -38 0
v -59 -37 0
v -58 -37 0
v -59 -38 0
v -60 -38 0
v -60 -37 0
v -59 -37 0
v -56 -39 0
v -57 -39 0
v -57 -38 0
v -56 -38 0
v -57 -39 0
v -58 -39 0
v -58 -38 0
v -57 -38 0
v -58 -39 0
v -59 -39 0
v -59 -38 0
v -58 -38 0
v -59 -39 0
v -60 -39 0
v -60 -38 0
v -59 -38 0
v -37 -40 0
v -38 -40 0
v -38 -39 0
v -37 -39 0
v -38 -40 0
v -39 -40 0
v -39 -39 0
v -38 -39 0
v -39 -40 0
v -40 -40 0
v -40 -39 0
v -39 -39 0
v -40 -40 0
v -41 -40 0
v -41 -39 0
v -40 -39 0
v -56 -40 0
v -57 -40 0
v -57 -39 0
v -56 -39 0
v -57 -40 0
v -58 -40 0
v -58 -39 0
v -57 -39 0
v -58 -40 0
v -59 -40 0
v -59 -39 0
v -58 -39 0
v -59 -40 0
v -60 -40 0
v -60 -39 0
v -59 -39 0
v -37 -41 0
v -38 -41 0
v -38 -40 0
v -37 -40 0
v -38 -41 0
v -39 -41 0
v -39 -40 0
v -38 -40 0
v -39 -41 0
v -40 -41 0
v -40 -40 0
v -39 -40 0
v -40 -41 0
v -41 -41 0
v -41 -40 0
v -40 -40 0
v -56 -41 0
v -57 -41 0
v -57 -40 0
v -56 -40 0
v -57 -41 0
v -58 -41 0
v -58 -40 0
v -57 -40 0
v -58 -41 0
v -59 -41 0
v -59 -40 0
v -58 -40 0
v -59 -41 0
v -60 -41 0
v -60 -40 0
v -59 -40 0
v -37 -42 0
v -38 -42 0
v -38 -41 0
v -37 -41 0
v -38 -42 0
v -39 -42 0
v -39 -41 0
v -38 -41 0
v -39 -42 0
v -40 -42 0
v -40 -41 0
v -39 -41 0
v -40 -42 0
v -41 -42 0
v -41 -41 0
v -40 -41 0
v -56 -42 0
v -57 -42 0
v -57 -41 0
v -56 -41 0
v -57 -42 0
v -58 -42 0
v -58 -41 0
v -57 -41 0
v -58 -42 0
v -59 -42 0
v -59 -41 0
v -58 -41 0
v -59 -42 0
v -60 -42 0
v -60 -41 0
v -59 -41 0
v -37 -43 0
v -38 -43 0
v -38 -42 0
v -37 -42 0
v -38 -43 0
v -39 -43 0
v -39 -42 0
v -38 -42 0
v -39 -43 0
v -40 -43 0
v -40 -42 0
v -39 -42 0
v -40 -43 0
v -41 -43 0
v -41 -42 0
v -40 -42 0
v -56 -43 0
v -57 -43 0
v -57 -42 0
v -56 -42 0
v -57 -43 0
v -58 -43 0
v -58 -42 0
v -57 -42 0
v -58 -43 0
v -59 -43 0
v -59 -42 0
v -58 -42 0
v -59 -43 0
v -60 -43 0
v -60 -42 0
v -59 -42 0
v -37 -44 0
v -38 -44 0
v -38 -43 0
v -37 -43 0
v -38 -44 0
v -39 -44 0
v -39 -43 0
v -38 -43 0
v -39 -44 0
v -40 -44 0
v -40 -43 0
v -39 -43 0
v -40 -44 0
v -41 -44 0
v -41 -43 0
v -40 -43 0
v -37 -45 0
v -38 -45 0
v -38 -44 0
v -37 -44 0
v -38 -45 0
v -39 -45 0
v -39 -44 0
v -38 -44 0
v -39 -45 0
v -40 -45 0
v -40 -44 0
v -39 -44 0
v -40 -45 0
v -41 -45 0
v -41 -44 0
v -40 -44 0

# Texture cooridinates (Count = 96)
vt 0.5833333 0.4298246
vt 0.6535088 0.4298246
vt 0.6535088 0.5
vt 0.5833333 0.5
vt 0.6666667 0.4298246
vt 0.7368421 0.4298246
vt 0.7368421 0.5
vt 0.6666667 0.5
vt 0.75 0.4298246
vt 0.8201754 0.4298246
vt 0.8201754 0.5
vt 0.75 0.5
vt 0.8333333 0.4298246
vt 0.9035088 0.4298246
vt 0.9035088 0.5
vt 0.8333333 0.5
vt 0.5833333 0.3464912
vt 0.6535088 0.3464912
vt 0.6535088 0.4166667
vt 0.5833333 0.4166667
vt 0.6666667 0.3464912
vt 0.7368421 0.3464912
vt 0.7368421 0.4166667
vt 0.6666667 0.4166667
vt 0.75 0.3464912
vt 0.8201754 0.3464912
vt 0.8201754 0.4166667
vt 0.75 0.4166667
vt 0.8333333 0.3464912
vt 0.9035088 0.3464912
vt 0.9035088 0.4166667
vt 0.8333333 0.4166667
vt 0.5833333 0.2631579
vt 0.6535088 0.2631579
vt 0.6535088 0.3333333
vt 0.5833333 0.3333333
vt 0.6666667 0.2631579
vt 0.7368421 0.2631579
vt 0.7368421 0.3333333
vt 0.6666667 0.3333333
vt 0.75 0.2631579
vt 0.8201754 0.2631579
vt 0.8201754 0.3333333
vt 0.75 0.3333333
vt 0.8333333 0.2631579
vt 0.9035088 0.2631579
vt 0.9035088 0.3333333
vt 0.8333333 0.3333333
vt 0.5833333 0.1798246
vt 0.6535088 0.1798246
vt 0.6535088 0.25
vt 0.5833333 0.25
vt 0.6666667 0.1798246
vt 0.7368421 0.1798246
vt 0.7368421 0.25
vt 0.6666667 0.25
vt 0.75 0.1798246
vt 0.8201754 0.1798246
vt 0.8201754 0.25
vt 0.75 0.25
vt 0.8333333 0.1798246
vt 0.9035088 0.1798246
vt 0.9035088 0.25
vt 0.8333333 0.25
vt 0.5833333 0.09649122
vt 0.6535088 0.09649122
vt 0.6535088 0.1666667
vt 0.5833333 0.1666667
vt 0.6666667 0.09649122
vt 0.7368421 0.09649122
vt 0.7368421 0.1666667
vt 0.6666667 0.1666667
vt 0.75 0.09649122
vt 0.8201754 0.09649122
vt 0.8201754 0.1666667
vt 0.75 0.1666667
vt 0.8333333 0.09649122
vt 0.9035088 0.09649122
vt 0.9035088 0.1666667
vt 0.8333333 0.1666667
vt 0.5833333 0.0131579
vt 0.6535088 0.0131579
vt 0.6535088 0.08333331
vt 0.5833333 0.08333331
vt 0.6666667 0.0131579
vt 0.7368421 0.0131579
vt 0.7368421 0.08333331
vt 0.6666667 0.08333331
vt 0.75 0.0131579
vt 0.8201754 0.0131579
vt 0.8201754 0.08333331
vt 0.75 0.08333331
vt 0.8333333 0.0131579
vt 0.9035088 0.0131579
vt 0.9035088 0.08333331
vt 0.8333333 0.08333331

# Normal
vn 0 0 -1

# Mesh description
g SnowyC_mesh_0005

# Faces
f 1/1/1 2/2/1 3/3/1 4/4/1
f 5/5/1 6/6/1 7/7/1 8/8/1
f 9/9/1 10/10/1 11/11/1 12/12/1
f 13/13/1 14/14/1 15/15/1 16/16/1
f 17/17/1 18/18/1 19/19/1 20/20/1
f 21/21/1 22/22/1 23/23/1 24/24/1
f 25/25/1 26/26/1 27/27/1 28/28/1
f 29/29/1 30/30/1 31/31/1 32/32/1
f 33/33/1 34/34/1 35/35/1 36/36/1
f 37/37/1 38/38/1 39/39/1 40/40/1
f 41/41/1 42/42/1 43/43/1 44/44/1
f 45/45/1 46/46/1 47/47/1 48/48/1
f 49/49/1 50/50/1 51/51/1 52/52/1
f 53/53/1 54/54/1 55/55/1 56/56/1
f 57/57/1 58/58/1 59/59/1 60/60/1
f 61/61/1 62/62/1 63/63/1 64/64/1
f 65/65/1 66/66/1 67/67/1 68/68/1
f 69/69/1 70/70/1 71/71/1 72/72/1
f 73/73/1 74/74/1 75/75/1 76/76/1
f 77/77/1 78/78/1 79/79/1 80/80/1
f 81/81/1 82/82/1 83/83/1 84/84/1
f 85/85/1 86/86/1 87/87/1 88/88/1
f 89/89/1 90/90/1 91/91/1 92/92/1
f 93/93/1 94/94/1 95/95/1 96/96/1
f 97/1/1 98/2/1 99/3/1 100/4/1
f 101/5/1 102/6/1 103/7/1 104/8/1
f 105/9/1 106/10/1 107/11/1 108/12/1
f 109/13/1 110/14/1 111/15/1 112/16/1
f 113/17/1 114/18/1 115/19/1 116/20/1
f 117/21/1 118/22/1 119/23/1 120/24/1
f 121/25/1 122/26/1 123/27/1 124/28/1
f 125/29/1 126/30/1 127/31/1 128/32/1
f 129/33/1 130/34/1 131/35/1 132/36/1
f 133/37/1 134/38/1 135/39/1 136/40/1
f 137/41/1 138/42/1 139/43/1 140/44/1
f 141/45/1 142/46/1 143/47/1 144/48/1
f 145/49/1 146/50/1 147/51/1 148/52/1
f 149/53/1 150/54/1 151/55/1 152/56/1
f 153/57/1 154/58/1 155/59/1 156/60/1
f 157/61/1 158/62/1 159/63/1 160/64/1
f 161/65/1 162/66/1 163/67/1 164/68/1
f 165/69/1 166/70/1 167/71/1 168/72/1
f 169/73/1 170/74/1 171/75/1 172/76/1
f 173/77/1 174/78/1 175/79/1 176/80/1
f 177/81/1 178/82/1 179/83/1 180/84/1
f 181/85/1 182/86/1 183/87/1 184/88/1
f 185/89/1 186/90/1 187/91/1 188/92/1
f 189/93/1 190/94/1 191/95/1 192/96/1
f 193/1/1 194/2/1 195/3/1 196/4/1
f 197/5/1 198/6/1 199/7/1 200/8/1
f 201/9/1 202/10/1 203/11/1 204/12/1
f 205/13/1 206/14/1 207/15/1 208/16/1
f 209/17/1 210/18/1 211/19/1 212/20/1
f 213/21/1 214/22/1 215/23/1 216/24/1
f 217/25/1 218/26/1 219/27/1 220/28/1
f 221/29/1 222/30/1 223/31/1 224/32/1
f 225/1/1 226/2/1 227/3/1 228/4/1
f 229/5/1 230/6/1 231/7/1 232/8/1
f 233/9/1 234/10/1 235/11/1 236/12/1
f 237/13/1 238/14/1 239/15/1 240/16/1
f 241/33/1 242/34/1 243/35/1 244/36/1
f 245/37/1 246/38/1 247/39/1 248/40/1
f 249/41/1 250/42/1 251/43/1 252/44/1
f 253/45/1 254/46/1 255/47/1 256/48/1
f 257/17/1 258/18/1 259/19/1 260/20/1
f 261/21/1 262/22/1 263/23/1 264/24/1
f 265/25/1 266/26/1 267/27/1 268/28/1
f 269/29/1 270/30/1 271/31/1 272/32/1
f 273/49/1 274/50/1 275/51/1 276/52/1
f 277/53/1 278/54/1 279/55/1 280/56/1
f 281/57/1 282/58/1 283/59/1 284/60/1
f 285/61/1 286/62/1 287/63/1 288/64/1
f 289/33/1 290/34/1 291/35/1 292/36/1
f 293/37/1 294/38/1 295/39/1 296/40/1
f 297/41/1 298/42/1 299/43/1 300/44/1
f 301/45/1 302/46/1 303/47/1 304/48/1
f 305/65/1 306/66/1 307/67/1 308/68/1
f 309/69/1 310/70/1 311/71/1 312/72/1
f 313/73/1 314/74/1 315/75/1 316/76/1
f 317/77/1 318/78/1 319/79/1 320/80/1
f 321/49/1 322/50/1 323/51/1 324/52/1
f 325/53/1 326/54/1 327/55/1 328/56/1
f 329/57/1 330/58/1 331/59/1 332/60/1
f 333/61/1 334/62/1 335/63/1 336/64/1
f 337/81/1 338/82/1 339/83/1 340/84/1
f 341/85/1 342/86/1 343/87/1 344/88/1
f 345/89/1 346/90/1 347/91/1 348/92/1
f 349/93/1 350/94/1 351/95/1 352/96/1
f 353/65/1 354/66/1 355/67/1 356/68/1
f 357/69/1 358/70/1 359/71/1 360/72/1
f 361/73/1 362/74/1 363/75/1 364/76/1
f 365/77/1 366/78/1 367/79/1 368/80/1
f 369/81/1 370/82/1 371/83/1 372/84/1
f 373/85/1 374/86/1 375/87/1 376/88/1
f 377/89/1 378/90/1 379/91/1 380/92/1
f 381/93/1 382/94/1 383/95/1 384/96/1

