# Tiled2Unity generated file. Do not modify by hand.
# Wavefront file for 'SnowyC_mesh_0003.obj'

# Vertices (Count = 316)
v -53 -19 0
v -55 -19 0
v -55 -17 0
v -53 -17 0
v -59 -20 0
v -61 -20 0
v -61 -18 0
v -59 -18 0
v -55 -23 0
v -57 -23 0
v -57 -21 0
v -55 -21 0
v -59 -25 0
v -61 -25 0
v -61 -23 0
v -59 -23 0
v -37 -26 0
v -39 -26 0
v -39 -24 0
v -37 -24 0
v -44 -26 0
v -46 -26 0
v -46 -24 0
v -44 -24 0
v -39 -27 0
v -41 -27 0
v -41 -25 0
v -39 -25 0
v -37 -29 0
v -39 -29 0
v -39 -27 0
v -37 -27 0
v -39 -31 0
v -41 -31 0
v -41 -29 0
v -39 -29 0
v -40 -32 0
v -42 -32 0
v -42 -30 0
v -40 -30 0
v -42 -32 0
v -44 -32 0
v -44 -30 0
v -42 -30 0
v -50 -33 0
v -52 -33 0
v -52 -31 0
v -50 -31 0
v -53 -35 0
v -55 -35 0
v -55 -33 0
v -53 -33 0
v -50 -38 0
v -52 -38 0
v -52 -36 0
v -50 -36 0
v -53 -44 0
v -55 -44 0
v -55 -42 0
v -53 -42 0
v -47 -45 0
v -49 -45 0
v -49 -43 0
v -47 -43 0
v -51 -45 0
v -53 -45 0
v -53 -43 0
v -51 -43 0
v -52 -45 0
v -54 -45 0
v -54 -43 0
v -52 -43 0
v -53 -45 0
v -55 -45 0
v -55 -43 0
v -53 -43 0
v -54 -45 0
v -56 -45 0
v -56 -43 0
v -54 -43 0
v -56 -45 0
v -58 -45 0
v -58 -43 0
v -56 -43 0
v -45 -46 0
v -47 -46 0
v -47 -44 0
v -45 -44 0
v -49 -46 0
v -51 -46 0
v -51 -44 0
v -49 -44 0
v -52 -46 0
v -54 -46 0
v -54 -44 0
v -52 -44 0
v -53 -46 0
v -55 -46 0
v -55 -44 0
v -53 -44 0
v -54 -46 0
v -56 -46 0
v -56 -44 0
v -54 -44 0
v -55 -46 0
v -57 -46 0
v -57 -44 0
v -55 -44 0
v -30 -47 0
v -32 -47 0
v -32 -45 0
v -30 -45 0
v -33 -47 0
v -35 -47 0
v -35 -45 0
v -33 -45 0
v -60 -47 0
v -62 -47 0
v -62 -45 0
v -60 -45 0
v -30 -48 0
v -32 -48 0
v -32 -46 0
v -30 -46 0
v -32 -48 0
v -34 -48 0
v -34 -46 0
v -32 -46 0
v -30 -49 0
v -32 -49 0
v -32 -47 0
v -30 -47 0
v -31 -49 0
v -33 -49 0
v -33 -47 0
v -31 -47 0
v -32 -49 0
v -34 -49 0
v -34 -47 0
v -32 -47 0
v -33 -49 0
v -35 -49 0
v -35 -47 0
v -33 -47 0
v -30 -50 0
v -32 -50 0
v -32 -48 0
v -30 -48 0
v -31 -50 0
v -33 -50 0
v -33 -48 0
v -31 -48 0
v -32 -50 0
v -34 -50 0
v -34 -48 0
v -32 -48 0
v -33 -50 0
v -35 -50 0
v -35 -48 0
v -33 -48 0
v -34 -50 0
v -36 -50 0
v -36 -48 0
v -34 -48 0
v -30 -51 0
v -32 -51 0
v -32 -49 0
v -30 -49 0
v -31 -51 0
v -33 -51 0
v -33 -49 0
v -31 -49 0
v -32 -51 0
v -34 -51 0
v -34 -49 0
v -32 -49 0
v -34 -51 0
v -36 -51 0
v -36 -49 0
v -34 -49 0
v -30 -52 0
v -32 -52 0
v -32 -50 0
v -30 -50 0
v -31 -52 0
v -33 -52 0
v -33 -50 0
v -31 -50 0
v -32 -52 0
v -34 -52 0
v -34 -50 0
v -32 -50 0
v -31 -53 0
v -33 -53 0
v -33 -51 0
v -31 -51 0
v -34 -53 0
v -36 -53 0
v -36 -51 0
v -34 -51 0
v -31 -54 0
v -33 -54 0
v -33 -52 0
v -31 -52 0
v -31 -55 0
v -33 -55 0
v -33 -53 0
v -31 -53 0
v -31 -56 0
v -33 -56 0
v -33 -54 0
v -31 -54 0
v -31 -57 0
v -33 -57 0
v -33 -55 0
v -31 -55 0
v -31 -58 0
v -33 -58 0
v -33 -56 0
v -31 -56 0
v -31 -59 0
v -33 -59 0
v -33 -57 0
v -31 -57 0
v -31 -60 0
v -33 -60 0
v -33 -58 0
v -31 -58 0
v -32 -60 0
v -34 -60 0
v -34 -58 0
v -32 -58 0
v -34 -60 0
v -36 -60 0
v -36 -58 0
v -34 -58 0
v -32 -61 0
v -34 -61 0
v -34 -59 0
v -32 -59 0
v -32 -62 0
v -34 -62 0
v -34 -60 0
v -32 -60 0
v -33 -62 0
v -35 -62 0
v -35 -60 0
v -33 -60 0
v -38 -62 0
v -40 -62 0
v -40 -60 0
v -38 -60 0
v -33 -63 0
v -35 -63 0
v -35 -61 0
v -33 -61 0
v -33 -64 0
v -35 -64 0
v -35 -62 0
v -33 -62 0
v -32 -65 0
v -34 -65 0
v -34 -63 0
v -32 -63 0
v -33 -65 0
v -35 -65 0
v -35 -63 0
v -33 -63 0
v -31 -66 0
v -33 -66 0
v -33 -64 0
v -31 -64 0
v -32 -66 0
v -34 -66 0
v -34 -64 0
v -32 -64 0
v -33 -66 0
v -35 -66 0
v -35 -64 0
v -33 -64 0
v -36 -66 0
v -38 -66 0
v -38 -64 0
v -36 -64 0
v -39 -66 0
v -41 -66 0
v -41 -64 0
v -39 -64 0
v -30 -67 0
v -32 -67 0
v -32 -65 0
v -30 -65 0
v -31 -67 0
v -33 -67 0
v -33 -65 0
v -31 -65 0
v -29 -68 0
v -31 -68 0
v -31 -66 0
v -29 -66 0
v -30 -68 0
v -32 -68 0
v -32 -66 0
v -30 -66 0
v -30 -69 0
v -32 -69 0
v -32 -67 0
v -30 -67 0
v -40 -69 0
v -42 -69 0
v -42 -67 0
v -40 -67 0
v -37 -70 0
v -39 -70 0
v -39 -68 0
v -37 -68 0

# Texture cooridinates (Count = 30)
vt 0.09375 0.06349206
vt 0.125 0.06349206
vt 0.125 0.07936507
vt 0.09375 0.07936507
vt 0.375 0.4761904
vt 0.40625 0.4761904
vt 0.40625 0.4920635
vt 0.375 0.4920635
vt 0.28125 0.4761904
vt 0.3125 0.4761904
vt 0.3125 0.4920635
vt 0.28125 0.4920635
vt 0.125 0.4761904
vt 0.15625 0.4761904
vt 0.15625 0.4920635
vt 0.125 0.4920635
vt 0.09375 0.1111111
vt 0.125 0.1111111
vt 0.125 0.1269841
vt 0.09375 0.1269841
vt 0.03125 0.06349206
vt 0.0625 0.06349206
vt 0.0625 0.07936507
vt 0.03125 0.07936507
vt 0.34375 0.4761904
vt 0.34375 0.4920635
vt 0.25 0.4761904
vt 0.25 0.4920635
vt 0.125 0.09523809
vt 0.09375 0.09523809

# Normal
vn 0 0 -1

# Mesh description
g SnowyC_mesh_0003

# Faces
f 1/1/1 2/2/1 3/3/1 4/4/1
f 5/1/1 6/2/1 7/3/1 8/4/1
f 9/1/1 10/2/1 11/3/1 12/4/1
f 13/1/1 14/2/1 15/3/1 16/4/1
f 17/5/1 18/6/1 19/7/1 20/8/1
f 21/9/1 22/10/1 23/11/1 24/12/1
f 25/5/1 26/6/1 27/7/1 28/8/1
f 29/5/1 30/6/1 31/7/1 32/8/1
f 33/9/1 34/10/1 35/11/1 36/12/1
f 37/9/1 38/10/1 39/11/1 40/12/1
f 41/9/1 42/10/1 43/11/1 44/12/1
f 45/13/1 46/14/1 47/15/1 48/16/1
f 49/17/1 50/18/1 51/19/1 52/20/1
f 53/21/1 54/22/1 55/23/1 56/24/1
f 57/9/1 58/10/1 59/11/1 60/12/1
f 61/5/1 62/6/1 63/7/1 64/8/1
f 65/9/1 66/10/1 67/11/1 68/12/1
f 69/9/1 70/10/1 71/11/1 72/12/1
f 73/9/1 74/10/1 75/11/1 76/12/1
f 77/9/1 78/10/1 79/11/1 80/12/1
f 81/9/1 82/10/1 83/11/1 84/12/1
f 85/5/1 86/6/1 87/7/1 88/8/1
f 89/5/1 90/6/1 91/7/1 92/8/1
f 93/9/1 94/10/1 95/11/1 96/12/1
f 97/9/1 98/10/1 99/11/1 100/12/1
f 101/9/1 102/10/1 103/11/1 104/12/1
f 105/9/1 106/10/1 107/11/1 108/12/1
f 109/10/1 110/25/1 111/26/1 112/11/1
f 113/9/1 114/10/1 115/11/1 116/12/1
f 117/21/1 118/22/1 119/23/1 120/24/1
f 121/10/1 122/25/1 123/26/1 124/11/1
f 125/10/1 126/25/1 127/26/1 128/11/1
f 129/10/1 130/25/1 131/26/1 132/11/1
f 133/10/1 134/25/1 135/26/1 136/11/1
f 137/10/1 138/25/1 139/26/1 140/11/1
f 141/9/1 142/10/1 143/11/1 144/12/1
f 145/10/1 146/25/1 147/26/1 148/11/1
f 149/10/1 150/25/1 151/26/1 152/11/1
f 153/10/1 154/25/1 155/26/1 156/11/1
f 157/10/1 158/25/1 159/26/1 160/11/1
f 161/9/1 162/10/1 163/11/1 164/12/1
f 165/10/1 166/25/1 167/26/1 168/11/1
f 169/10/1 170/25/1 171/26/1 172/11/1
f 173/9/1 174/10/1 175/11/1 176/12/1
f 177/9/1 178/10/1 179/11/1 180/12/1
f 181/10/1 182/25/1 183/26/1 184/11/1
f 185/10/1 186/25/1 187/26/1 188/11/1
f 189/9/1 190/10/1 191/11/1 192/12/1
f 193/10/1 194/25/1 195/26/1 196/11/1
f 197/9/1 198/10/1 199/11/1 200/12/1
f 201/10/1 202/25/1 203/26/1 204/11/1
f 205/10/1 206/25/1 207/26/1 208/11/1
f 209/10/1 210/25/1 211/26/1 212/11/1
f 213/10/1 214/25/1 215/26/1 216/11/1
f 217/10/1 218/25/1 219/26/1 220/11/1
f 221/10/1 222/25/1 223/26/1 224/11/1
f 225/10/1 226/25/1 227/26/1 228/11/1
f 229/10/1 230/25/1 231/26/1 232/11/1
f 233/27/1 234/9/1 235/12/1 236/28/1
f 237/10/1 238/25/1 239/26/1 240/11/1
f 241/10/1 242/25/1 243/26/1 244/11/1
f 245/10/1 246/25/1 247/26/1 248/11/1
f 249/27/1 250/9/1 251/12/1 252/28/1
f 253/10/1 254/25/1 255/26/1 256/11/1
f 257/10/1 258/25/1 259/26/1 260/11/1
f 261/10/1 262/25/1 263/26/1 264/11/1
f 265/10/1 266/25/1 267/26/1 268/11/1
f 269/10/1 270/25/1 271/26/1 272/11/1
f 273/10/1 274/25/1 275/26/1 276/11/1
f 277/27/1 278/9/1 279/12/1 280/28/1
f 281/4/1 282/3/1 283/29/1 284/30/1
f 285/27/1 286/9/1 287/12/1 288/28/1
f 289/10/1 290/25/1 291/26/1 292/11/1
f 293/10/1 294/25/1 295/26/1 296/11/1
f 297/10/1 298/25/1 299/26/1 300/11/1
f 301/10/1 302/25/1 303/26/1 304/11/1
f 305/27/1 306/9/1 307/12/1 308/28/1
f 309/27/1 310/9/1 311/12/1 312/28/1
f 313/27/1 314/9/1 315/12/1 316/28/1

