# Tiled2Unity generated file. Do not modify by hand.
# Wavefront file for 'MountainA_mesh_0018.obj'

# Vertices (Count = 16)
v -57 -53 0
v -59 -53 0
v -59 -51 0
v -57 -51 0
v -64 -53 0
v -66 -53 0
v -66 -51 0
v -64 -51 0
v -57 -57 0
v -59 -57 0
v -59 -55 0
v -57 -55 0
v -64 -57 0
v -66 -57 0
v -66 -55 0
v -64 -55 0

# Texture cooridinates (Count = 6)
vt 0.8461539 0.09090906
vt 0.9230769 0.09090906
vt 0.9230769 0.1363636
vt 0.8461539 0.1363636
vt 0.9230769 0.1818182
vt 0.8461539 0.1818182

# Normal
vn 0 0 -1

# Mesh description
g MountainA_mesh_0018

# Faces
f 1/1/1 2/2/1 3/3/1 4/4/1
f 5/1/1 6/2/1 7/3/1 8/4/1
f 9/4/1 10/3/1 11/5/1 12/6/1
f 13/4/1 14/3/1 15/5/1 16/6/1

