# Tiled2Unity generated file. Do not modify by hand.
# Wavefront file for 'MountainA_mesh_0005.obj'

# Vertices (Count = 8)
v -40 -38 0
v -42 -38 0
v -42 -36 0
v -40 -36 0
v -42 -38 0
v -44 -38 0
v -44 -36 0
v -42 -36 0

# Texture cooridinates (Count = 6)
vt 0.375 0.4603174
vt 0.40625 0.4603174
vt 0.40625 0.4761904
vt 0.375 0.4761904
vt 0.40625 0.4920635
vt 0.375 0.4920635

# Normal
vn 0 0 -1

# Mesh description
g MountainA_mesh_0005

# Faces
f 1/1/1 2/2/1 3/3/1 4/4/1
f 5/4/1 6/3/1 7/5/1 8/6/1

