# Tiled2Unity generated file. Do not modify by hand.
# Wavefront file for 'MountainA_mesh_0007.obj'

# Vertices (Count = 316)
v -33 -33 0
v -35 -33 0
v -35 -31 0
v -33 -31 0
v -37 -33 0
v -39 -33 0
v -39 -31 0
v -37 -31 0
v -38 -33 0
v -40 -33 0
v -40 -31 0
v -38 -31 0
v -33 -34 0
v -35 -34 0
v -35 -32 0
v -33 -32 0
v -35 -34 0
v -37 -34 0
v -37 -32 0
v -35 -32 0
v -36 -34 0
v -38 -34 0
v -38 -32 0
v -36 -32 0
v -37 -34 0
v -39 -34 0
v -39 -32 0
v -37 -32 0
v -38 -34 0
v -40 -34 0
v -40 -32 0
v -38 -32 0
v -39 -34 0
v -41 -34 0
v -41 -32 0
v -39 -32 0
v -40 -34 0
v -42 -34 0
v -42 -32 0
v -40 -32 0
v -42 -34 0
v -44 -34 0
v -44 -32 0
v -42 -32 0
v -44 -34 0
v -46 -34 0
v -46 -32 0
v -44 -32 0
v -46 -34 0
v -48 -34 0
v -48 -32 0
v -46 -32 0
v -47 -34 0
v -49 -34 0
v -49 -32 0
v -47 -32 0
v -48 -34 0
v -50 -34 0
v -50 -32 0
v -48 -32 0
v -50 -34 0
v -52 -34 0
v -52 -32 0
v -50 -32 0
v -51 -34 0
v -53 -34 0
v -53 -32 0
v -51 -32 0
v -52 -34 0
v -54 -34 0
v -54 -32 0
v -52 -32 0
v -53 -34 0
v -55 -34 0
v -55 -32 0
v -53 -32 0
v -54 -34 0
v -56 -34 0
v -56 -32 0
v -54 -32 0
v -55 -34 0
v -57 -34 0
v -57 -32 0
v -55 -32 0
v -56 -34 0
v -58 -34 0
v -58 -32 0
v -56 -32 0
v -57 -34 0
v -59 -34 0
v -59 -32 0
v -57 -32 0
v -59 -34 0
v -61 -34 0
v -61 -32 0
v -59 -32 0
v -60 -34 0
v -62 -34 0
v -62 -32 0
v -60 -32 0
v -61 -34 0
v -63 -34 0
v -63 -32 0
v -61 -32 0
v -33 -35 0
v -35 -35 0
v -35 -33 0
v -33 -33 0
v -35 -35 0
v -37 -35 0
v -37 -33 0
v -35 -33 0
v -37 -35 0
v -39 -35 0
v -39 -33 0
v -37 -33 0
v -44 -35 0
v -46 -35 0
v -46 -33 0
v -44 -33 0
v -45 -35 0
v -47 -35 0
v -47 -33 0
v -45 -33 0
v -47 -35 0
v -49 -35 0
v -49 -33 0
v -47 -33 0
v -49 -35 0
v -51 -35 0
v -51 -33 0
v -49 -33 0
v -50 -35 0
v -52 -35 0
v -52 -33 0
v -50 -33 0
v -51 -35 0
v -53 -35 0
v -53 -33 0
v -51 -33 0
v -53 -35 0
v -55 -35 0
v -55 -33 0
v -53 -33 0
v -55 -35 0
v -57 -35 0
v -57 -33 0
v -55 -33 0
v -56 -35 0
v -58 -35 0
v -58 -33 0
v -56 -33 0
v -57 -35 0
v -59 -35 0
v -59 -33 0
v -57 -33 0
v -59 -35 0
v -61 -35 0
v -61 -33 0
v -59 -33 0
v -61 -35 0
v -63 -35 0
v -63 -33 0
v -61 -33 0
v -33 -36 0
v -35 -36 0
v -35 -34 0
v -33 -34 0
v -35 -36 0
v -37 -36 0
v -37 -34 0
v -35 -34 0
v -37 -36 0
v -39 -36 0
v -39 -34 0
v -37 -34 0
v -38 -36 0
v -40 -36 0
v -40 -34 0
v -38 -34 0
v -39 -36 0
v -41 -36 0
v -41 -34 0
v -39 -34 0
v -40 -36 0
v -42 -36 0
v -42 -34 0
v -40 -34 0
v -42 -36 0
v -44 -36 0
v -44 -34 0
v -42 -34 0
v -44 -36 0
v -46 -36 0
v -46 -34 0
v -44 -34 0
v -46 -36 0
v -48 -36 0
v -48 -34 0
v -46 -34 0
v -48 -36 0
v -50 -36 0
v -50 -34 0
v -48 -34 0
v -49 -36 0
v -51 -36 0
v -51 -34 0
v -49 -34 0
v -50 -36 0
v -52 -36 0
v -52 -34 0
v -50 -34 0
v -51 -36 0
v -53 -36 0
v -53 -34 0
v -51 -34 0
v -52 -36 0
v -54 -36 0
v -54 -34 0
v -52 -34 0
v -53 -36 0
v -55 -36 0
v -55 -34 0
v -53 -34 0
v -54 -36 0
v -56 -36 0
v -56 -34 0
v -54 -34 0
v -55 -36 0
v -57 -36 0
v -57 -34 0
v -55 -34 0
v -57 -36 0
v -59 -36 0
v -59 -34 0
v -57 -34 0
v -59 -36 0
v -61 -36 0
v -61 -34 0
v -59 -34 0
v -60 -36 0
v -62 -36 0
v -62 -34 0
v -60 -34 0
v -62 -36 0
v -64 -36 0
v -64 -34 0
v -62 -34 0
v -50 -37 0
v -52 -37 0
v -52 -35 0
v -50 -35 0
v -59 -37 0
v -61 -37 0
v -61 -35 0
v -59 -35 0
v -60 -37 0
v -62 -37 0
v -62 -35 0
v -60 -35 0
v -62 -37 0
v -64 -37 0
v -64 -35 0
v -62 -35 0
v -44 -38 0
v -46 -38 0
v -46 -36 0
v -44 -36 0
v -46 -38 0
v -48 -38 0
v -48 -36 0
v -46 -36 0
v -47 -38 0
v -49 -38 0
v -49 -36 0
v -47 -36 0
v -48 -38 0
v -50 -38 0
v -50 -36 0
v -48 -36 0
v -50 -38 0
v -52 -38 0
v -52 -36 0
v -50 -36 0
v -51 -38 0
v -53 -38 0
v -53 -36 0
v -51 -36 0
v -53 -38 0
v -55 -38 0
v -55 -36 0
v -53 -36 0
v -55 -38 0
v -57 -38 0
v -57 -36 0
v -55 -36 0
v -56 -38 0
v -58 -38 0
v -58 -36 0
v -56 -36 0
v -57 -38 0
v -59 -38 0
v -59 -36 0
v -57 -36 0
v -59 -38 0
v -61 -38 0
v -61 -36 0
v -59 -36 0
v -61 -38 0
v -63 -38 0
v -63 -36 0
v -61 -36 0
v -62 -38 0
v -64 -38 0
v -64 -36 0
v -62 -36 0

# Texture cooridinates (Count = 25)
vt 0.28125 0.8253968
vt 0.3125 0.8253968
vt 0.3125 0.8412699
vt 0.28125 0.8412699
vt 0.5625 0.7142857
vt 0.59375 0.7142857
vt 0.59375 0.7301587
vt 0.5625 0.7301587
vt 0.59375 0.7777778
vt 0.625 0.7777778
vt 0.625 0.7936508
vt 0.59375 0.7936508
vt 0.5625 0.7619048
vt 0.59375 0.7619048
vt 0.5625 0.7777778
vt 0.5625 0.7936508
vt 0.625 0.7619048
vt 0.625 0.7142857
vt 0.625 0.7301587
vt 0.5625 0.6984127
vt 0.59375 0.6984127
vt 0.59375 0.6825397
vt 0.625 0.6825397
vt 0.625 0.6984127
vt 0.5625 0.6825397

# Normal
vn 0 0 -1

# Mesh description
g MountainA_mesh_0007

# Faces
f 1/1/1 2/2/1 3/3/1 4/4/1
f 5/1/1 6/2/1 7/3/1 8/4/1
f 9/1/1 10/2/1 11/3/1 12/4/1
f 13/5/1 14/6/1 15/7/1 16/8/1
f 17/9/1 18/10/1 19/11/1 20/12/1
f 21/5/1 22/6/1 23/7/1 24/8/1
f 25/9/1 26/10/1 27/11/1 28/12/1
f 29/1/1 30/2/1 31/3/1 32/4/1
f 33/1/1 34/2/1 35/3/1 36/4/1
f 37/1/1 38/2/1 39/3/1 40/4/1
f 41/9/1 42/10/1 43/11/1 44/12/1
f 45/9/1 46/10/1 47/11/1 48/12/1
f 49/13/1 50/14/1 51/9/1 52/15/1
f 53/13/1 54/14/1 55/9/1 56/15/1
f 57/9/1 58/10/1 59/11/1 60/12/1
f 61/13/1 62/14/1 63/9/1 64/15/1
f 65/15/1 66/9/1 67/12/1 68/16/1
f 69/15/1 70/9/1 71/12/1 72/16/1
f 73/14/1 74/17/1 75/10/1 76/9/1
f 77/13/1 78/14/1 79/9/1 80/15/1
f 81/14/1 82/17/1 83/10/1 84/9/1
f 85/9/1 86/10/1 87/11/1 88/12/1
f 89/9/1 90/10/1 91/11/1 92/12/1
f 93/9/1 94/10/1 95/11/1 96/12/1
f 97/6/1 98/18/1 99/19/1 100/7/1
f 101/6/1 102/18/1 103/19/1 104/7/1
f 105/5/1 106/6/1 107/7/1 108/8/1
f 109/9/1 110/10/1 111/11/1 112/12/1
f 113/9/1 114/10/1 115/11/1 116/12/1
f 117/13/1 118/14/1 119/9/1 120/15/1
f 121/9/1 122/10/1 123/11/1 124/12/1
f 125/13/1 126/14/1 127/9/1 128/15/1
f 129/15/1 130/9/1 131/12/1 132/16/1
f 133/15/1 134/9/1 135/12/1 136/16/1
f 137/15/1 138/9/1 139/12/1 140/16/1
f 141/20/1 142/21/1 143/6/1 144/5/1
f 145/9/1 146/10/1 147/11/1 148/12/1
f 149/14/1 150/17/1 151/10/1 152/9/1
f 153/14/1 154/17/1 155/10/1 156/9/1
f 157/14/1 158/17/1 159/10/1 160/9/1
f 161/14/1 162/17/1 163/10/1 164/9/1
f 165/5/1 166/6/1 167/7/1 168/8/1
f 169/9/1 170/10/1 171/11/1 172/12/1
f 173/9/1 174/10/1 175/11/1 176/12/1
f 177/9/1 178/10/1 179/11/1 180/12/1
f 181/9/1 182/10/1 183/11/1 184/12/1
f 185/9/1 186/10/1 187/11/1 188/12/1
f 189/9/1 190/10/1 191/11/1 192/12/1
f 193/9/1 194/10/1 195/11/1 196/12/1
f 197/13/1 198/14/1 199/9/1 200/15/1
f 201/13/1 202/14/1 203/9/1 204/15/1
f 205/15/1 206/9/1 207/12/1 208/16/1
f 209/15/1 210/9/1 211/12/1 212/16/1
f 213/15/1 214/9/1 215/12/1 216/16/1
f 217/15/1 218/9/1 219/12/1 220/16/1
f 221/5/1 222/6/1 223/7/1 224/8/1
f 225/6/1 226/18/1 227/19/1 228/7/1
f 229/14/1 230/17/1 231/10/1 232/9/1
f 233/14/1 234/17/1 235/10/1 236/9/1
f 237/9/1 238/10/1 239/11/1 240/12/1
f 241/9/1 242/10/1 243/11/1 244/12/1
f 245/9/1 246/10/1 247/11/1 248/12/1
f 249/22/1 250/23/1 251/24/1 252/21/1
f 253/14/1 254/17/1 255/10/1 256/9/1
f 257/14/1 258/17/1 259/10/1 260/9/1
f 261/14/1 262/17/1 263/10/1 264/9/1
f 265/20/1 266/21/1 267/6/1 268/5/1
f 269/22/1 270/23/1 271/24/1 272/21/1
f 273/22/1 274/23/1 275/24/1 276/21/1
f 277/21/1 278/24/1 279/18/1 280/6/1
f 281/22/1 282/23/1 283/24/1 284/21/1
f 285/22/1 286/23/1 287/24/1 288/21/1
f 289/25/1 290/22/1 291/21/1 292/20/1
f 293/20/1 294/25/1 295/22/1 296/21/1
f 297/20/1 298/25/1 299/22/1 300/21/1
f 301/25/1 302/22/1 303/21/1 304/20/1
f 305/20/1 306/25/1 307/22/1 308/21/1
f 309/25/1 310/22/1 311/21/1 312/20/1
f 313/22/1 314/23/1 315/24/1 316/21/1

