# Tiled2Unity generated file. Do not modify by hand.
# Wavefront file for 'MountainA_mesh_0011.obj'

# Vertices (Count = 24)
v -34 -39 0
v -36 -39 0
v -36 -37 0
v -34 -37 0
v -42 -39 0
v -44 -39 0
v -44 -37 0
v -42 -37 0
v -54 -41 0
v -56 -41 0
v -56 -39 0
v -54 -39 0
v -34 -42 0
v -36 -42 0
v -36 -40 0
v -34 -40 0
v -56 -46 0
v -58 -46 0
v -58 -44 0
v -56 -44 0
v -52 -49 0
v -54 -49 0
v -54 -47 0
v -52 -47 0

# Texture cooridinates (Count = 4)
vt 0.8461539 0.09090906
vt 0.9230769 0.09090906
vt 0.9230769 0.1363636
vt 0.8461539 0.1363636

# Normal
vn 0 0 -1

# Mesh description
g MountainA_mesh_0011

# Faces
f 1/1/1 2/2/1 3/3/1 4/4/1
f 5/1/1 6/2/1 7/3/1 8/4/1
f 9/1/1 10/2/1 11/3/1 12/4/1
f 13/1/1 14/2/1 15/3/1 16/4/1
f 17/1/1 18/2/1 19/3/1 20/4/1
f 21/1/1 22/2/1 23/3/1 24/4/1

