# Tiled2Unity generated file. Do not modify by hand.
# Wavefront file for 'Sewers_A_mesh_0015.obj'

# Vertices (Count = 12)
v -49 -38 0
v -50 -38 0
v -50 -37 0
v -49 -37 0
v -39 -54 0
v -40 -54 0
v -40 -53 0
v -39 -53 0
v -50 -70 0
v -51 -70 0
v -51 -69 0
v -50 -69 0

# Texture cooridinates (Count = 4)
vt 0.8125 0.6363636
vt 0.875 0.6363636
vt 0.875 0.6818182
vt 0.8125 0.6818182

# Normal
vn 0 0 -1

# Mesh description
g Sewers_A_mesh_0015

# Faces
f 1/1/1 2/2/1 3/3/1 4/4/1
f 5/1/1 6/2/1 7/3/1 8/4/1
f 9/1/1 10/2/1 11/3/1 12/4/1

