# Tiled2Unity generated file. Do not modify by hand.
# Wavefront file for 'Sewers_A_mesh_0011.obj'

# Vertices (Count = 20)
v -54 -33 0
v -55 -33 0
v -55 -32 0
v -54 -32 0
v -54 -34 0
v -55 -34 0
v -55 -33 0
v -54 -33 0
v -28 -52 0
v -29 -52 0
v -29 -51 0
v -28 -51 0
v -26 -57 0
v -27 -57 0
v -27 -56 0
v -26 -56 0
v -26 -58 0
v -27 -58 0
v -27 -57 0
v -26 -57 0

# Texture cooridinates (Count = 12)
vt 0.1875 0.8181818
vt 0.25 0.8181818
vt 0.25 0.8636364
vt 0.1875 0.8636364
vt 0.1875 0.7727273
vt 0.25 0.7727273
vt 0 0.7272727
vt 0.0625 0.7272727
vt 0.0625 0.7727273
vt 0 0.7727273
vt 0.125 0.8636364
vt 0.125 0.8181818

# Normal
vn 0 0 -1

# Mesh description
g Sewers_A_mesh_0011

# Faces
f 1/1/1 2/2/1 3/3/1 4/4/1
f 5/5/1 6/6/1 7/2/1 8/1/1
f 9/7/1 10/8/1 11/9/1 12/10/1
f 13/1/1 14/4/1 15/11/1 16/12/1
f 17/1/1 18/4/1 19/11/1 20/12/1

