# Tiled2Unity generated file. Do not modify by hand.
# Wavefront file for 'Sewers_A_mesh_0013.obj'

# Vertices (Count = 20)
v -15 -33 0
v -16 -33 0
v -16 -32 0
v -15 -32 0
v -15 -43 0
v -16 -43 0
v -16 -42 0
v -15 -42 0
v -15 -51 0
v -16 -51 0
v -16 -50 0
v -15 -50 0
v -48 -51 0
v -49 -51 0
v -49 -50 0
v -48 -50 0
v -50 -76 0
v -51 -76 0
v -51 -75 0
v -50 -75 0

# Texture cooridinates (Count = 4)
vt 0.75 0.6363636
vt 0.8125 0.6363636
vt 0.8125 0.6818182
vt 0.75 0.6818182

# Normal
vn 0 0 -1

# Mesh description
g Sewers_A_mesh_0013

# Faces
f 1/1/1 2/2/1 3/3/1 4/4/1
f 5/1/1 6/2/1 7/3/1 8/4/1
f 9/1/1 10/2/1 11/3/1 12/4/1
f 13/1/1 14/2/1 15/3/1 16/4/1
f 17/1/1 18/2/1 19/3/1 20/4/1

