# Tiled2Unity generated file. Do not modify by hand.
# Wavefront file for 'SnowyE_mesh_0009.obj'

# Vertices (Count = 20)
v -60 -42 0
v -61 -42 0
v -61 -41 0
v -60 -41 0
v -59 -43 0
v -60 -43 0
v -60 -42 0
v -59 -42 0
v -46 -68 0
v -47 -68 0
v -47 -67 0
v -46 -67 0
v -46 -69 0
v -47 -69 0
v -47 -68 0
v -46 -68 0
v -46 -70 0
v -47 -70 0
v -47 -69 0
v -46 -69 0

# Texture cooridinates (Count = 9)
vt 0.8571429 0.7142857
vt 1 0.7142857
vt 1 0.8571429
vt 0.8571429 0.8571429
vt 0.7142857 0.8571429
vt 0.7142857 0.7142857
vt 0.8571429 1
vt 0.7142857 1
vt 1 1

# Normal
vn 0 0 -1

# Mesh description
g SnowyE_mesh_0009

# Faces
f 1/1/1 2/2/1 3/3/1 4/4/1
f 5/1/1 6/2/1 7/3/1 8/4/1
f 9/4/1 10/5/1 11/6/1 12/1/1
f 13/5/1 14/4/1 15/7/1 16/8/1
f 17/4/1 18/3/1 19/9/1 20/7/1

