# Tiled2Unity generated file. Do not modify by hand.
# Wavefront file for 'SnowyE_mesh_0004.obj'

# Vertices (Count = 640)
v -49 -36 0
v -51 -36 0
v -51 -34 0
v -49 -34 0
v -49 -37 0
v -51 -37 0
v -51 -35 0
v -49 -35 0
v -49 -38 0
v -51 -38 0
v -51 -36 0
v -49 -36 0
v -52 -38 0
v -54 -38 0
v -54 -36 0
v -52 -36 0
v -53 -38 0
v -55 -38 0
v -55 -36 0
v -53 -36 0
v -54 -38 0
v -56 -38 0
v -56 -36 0
v -54 -36 0
v -55 -38 0
v -57 -38 0
v -57 -36 0
v -55 -36 0
v -32 -39 0
v -34 -39 0
v -34 -37 0
v -32 -37 0
v -33 -39 0
v -35 -39 0
v -35 -37 0
v -33 -37 0
v -38 -39 0
v -40 -39 0
v -40 -37 0
v -38 -37 0
v -39 -39 0
v -41 -39 0
v -41 -37 0
v -39 -37 0
v -40 -39 0
v -42 -39 0
v -42 -37 0
v -40 -37 0
v -43 -39 0
v -45 -39 0
v -45 -37 0
v -43 -37 0
v -44 -39 0
v -46 -39 0
v -46 -37 0
v -44 -37 0
v -49 -39 0
v -51 -39 0
v -51 -37 0
v -49 -37 0
v -50 -39 0
v -52 -39 0
v -52 -37 0
v -50 -37 0
v -51 -39 0
v -53 -39 0
v -53 -37 0
v -51 -37 0
v -52 -39 0
v -54 -39 0
v -54 -37 0
v -52 -37 0
v -55 -39 0
v -57 -39 0
v -57 -37 0
v -55 -37 0
v -56 -39 0
v -58 -39 0
v -58 -37 0
v -56 -37 0
v -57 -39 0
v -59 -39 0
v -59 -37 0
v -57 -37 0
v -58 -39 0
v -60 -39 0
v -60 -37 0
v -58 -37 0
v -59 -39 0
v -61 -39 0
v -61 -37 0
v -59 -37 0
v -33 -40 0
v -35 -40 0
v -35 -38 0
v -33 -38 0
v -34 -40 0
v -36 -40 0
v -36 -38 0
v -34 -38 0
v -35 -40 0
v -37 -40 0
v -37 -38 0
v -35 -38 0
v -36 -40 0
v -38 -40 0
v -38 -38 0
v -36 -38 0
v -37 -40 0
v -39 -40 0
v -39 -38 0
v -37 -38 0
v -40 -40 0
v -42 -40 0
v -42 -38 0
v -40 -38 0
v -41 -40 0
v -43 -40 0
v -43 -38 0
v -41 -38 0
v -42 -40 0
v -44 -40 0
v -44 -38 0
v -42 -38 0
v -43 -40 0
v -45 -40 0
v -45 -38 0
v -43 -38 0
v -49 -40 0
v -51 -40 0
v -51 -38 0
v -49 -38 0
v -51 -40 0
v -53 -40 0
v -53 -38 0
v -51 -38 0
v -52 -40 0
v -54 -40 0
v -54 -38 0
v -52 -38 0
v -53 -40 0
v -55 -40 0
v -55 -38 0
v -53 -38 0
v -55 -40 0
v -57 -40 0
v -57 -38 0
v -55 -38 0
v -59 -40 0
v -61 -40 0
v -61 -38 0
v -59 -38 0
v -60 -40 0
v -62 -40 0
v -62 -38 0
v -60 -38 0
v -61 -40 0
v -63 -40 0
v -63 -38 0
v -61 -38 0
v -61 -41 0
v -63 -41 0
v -63 -39 0
v -61 -39 0
v -62 -41 0
v -64 -41 0
v -64 -39 0
v -62 -39 0
v -63 -41 0
v -65 -41 0
v -65 -39 0
v -63 -39 0
v -62 -42 0
v -64 -42 0
v -64 -40 0
v -62 -40 0
v -63 -42 0
v -65 -42 0
v -65 -40 0
v -63 -40 0
v -63 -43 0
v -65 -43 0
v -65 -41 0
v -63 -41 0
v -64 -43 0
v -66 -43 0
v -66 -41 0
v -64 -41 0
v -65 -43 0
v -67 -43 0
v -67 -41 0
v -65 -41 0
v -65 -44 0
v -67 -44 0
v -67 -42 0
v -65 -42 0
v -64 -45 0
v -66 -45 0
v -66 -43 0
v -64 -43 0
v -65 -45 0
v -67 -45 0
v -67 -43 0
v -65 -43 0
v -42 -47 0
v -44 -47 0
v -44 -45 0
v -42 -45 0
v -43 -47 0
v -45 -47 0
v -45 -45 0
v -43 -45 0
v -44 -47 0
v -46 -47 0
v -46 -45 0
v -44 -45 0
v -45 -47 0
v -47 -47 0
v -47 -45 0
v -45 -45 0
v -47 -47 0
v -49 -47 0
v -49 -45 0
v -47 -45 0
v -48 -47 0
v -50 -47 0
v -50 -45 0
v -48 -45 0
v -49 -47 0
v -51 -47 0
v -51 -45 0
v -49 -45 0
v -41 -48 0
v -43 -48 0
v -43 -46 0
v -41 -46 0
v -42 -48 0
v -44 -48 0
v -44 -46 0
v -42 -46 0
v -43 -48 0
v -45 -48 0
v -45 -46 0
v -43 -46 0
v -44 -48 0
v -46 -48 0
v -46 -46 0
v -44 -46 0
v -45 -48 0
v -47 -48 0
v -47 -46 0
v -45 -46 0
v -46 -48 0
v -48 -48 0
v -48 -46 0
v -46 -46 0
v -47 -48 0
v -49 -48 0
v -49 -46 0
v -47 -46 0
v -50 -48 0
v -52 -48 0
v -52 -46 0
v -50 -46 0
v -51 -48 0
v -53 -48 0
v -53 -46 0
v -51 -46 0
v -41 -49 0
v -43 -49 0
v -43 -47 0
v -41 -47 0
v -43 -49 0
v -45 -49 0
v -45 -47 0
v -43 -47 0
v -45 -49 0
v -47 -49 0
v -47 -47 0
v -45 -47 0
v -46 -49 0
v -48 -49 0
v -48 -47 0
v -46 -47 0
v -47 -49 0
v -49 -49 0
v -49 -47 0
v -47 -47 0
v -48 -49 0
v -50 -49 0
v -50 -47 0
v -48 -47 0
v -49 -49 0
v -51 -49 0
v -51 -47 0
v -49 -47 0
v -50 -49 0
v -52 -49 0
v -52 -47 0
v -50 -47 0
v -51 -49 0
v -53 -49 0
v -53 -47 0
v -51 -47 0
v -43 -50 0
v -45 -50 0
v -45 -48 0
v -43 -48 0
v -45 -50 0
v -47 -50 0
v -47 -48 0
v -45 -48 0
v -46 -50 0
v -48 -50 0
v -48 -48 0
v -46 -48 0
v -47 -50 0
v -49 -50 0
v -49 -48 0
v -47 -48 0
v -49 -50 0
v -51 -50 0
v -51 -48 0
v -49 -48 0
v -50 -50 0
v -52 -50 0
v -52 -48 0
v -50 -48 0
v -51 -50 0
v -53 -50 0
v -53 -48 0
v -51 -48 0
v -52 -50 0
v -54 -50 0
v -54 -48 0
v -52 -48 0
v -64 -50 0
v -66 -50 0
v -66 -48 0
v -64 -48 0
v -41 -51 0
v -43 -51 0
v -43 -49 0
v -41 -49 0
v -45 -51 0
v -47 -51 0
v -47 -49 0
v -45 -49 0
v -46 -51 0
v -48 -51 0
v -48 -49 0
v -46 -49 0
v -47 -51 0
v -49 -51 0
v -49 -49 0
v -47 -49 0
v -50 -51 0
v -52 -51 0
v -52 -49 0
v -50 -49 0
v -51 -51 0
v -53 -51 0
v -53 -49 0
v -51 -49 0
v -52 -51 0
v -54 -51 0
v -54 -49 0
v -52 -49 0
v -64 -51 0
v -66 -51 0
v -66 -49 0
v -64 -49 0
v -41 -52 0
v -43 -52 0
v -43 -50 0
v -41 -50 0
v -42 -52 0
v -44 -52 0
v -44 -50 0
v -42 -50 0
v -43 -52 0
v -45 -52 0
v -45 -50 0
v -43 -50 0
v -46 -52 0
v -48 -52 0
v -48 -50 0
v -46 -50 0
v -49 -52 0
v -51 -52 0
v -51 -50 0
v -49 -50 0
v -50 -52 0
v -52 -52 0
v -52 -50 0
v -50 -50 0
v -51 -52 0
v -53 -52 0
v -53 -50 0
v -51 -50 0
v -52 -52 0
v -54 -52 0
v -54 -50 0
v -52 -50 0
v -63 -52 0
v -65 -52 0
v -65 -50 0
v -63 -50 0
v -42 -53 0
v -44 -53 0
v -44 -51 0
v -42 -51 0
v -43 -53 0
v -45 -53 0
v -45 -51 0
v -43 -51 0
v -44 -53 0
v -46 -53 0
v -46 -51 0
v -44 -51 0
v -45 -53 0
v -47 -53 0
v -47 -51 0
v -45 -51 0
v -46 -53 0
v -48 -53 0
v -48 -51 0
v -46 -51 0
v -47 -53 0
v -49 -53 0
v -49 -51 0
v -47 -51 0
v -48 -53 0
v -50 -53 0
v -50 -51 0
v -48 -51 0
v -49 -53 0
v -51 -53 0
v -51 -51 0
v -49 -51 0
v -50 -53 0
v -52 -53 0
v -52 -51 0
v -50 -51 0
v -51 -53 0
v -53 -53 0
v -53 -51 0
v -51 -51 0
v -63 -53 0
v -65 -53 0
v -65 -51 0
v -63 -51 0
v -24 -54 0
v -26 -54 0
v -26 -52 0
v -24 -52 0
v -26 -54 0
v -28 -54 0
v -28 -52 0
v -26 -52 0
v -27 -54 0
v -29 -54 0
v -29 -52 0
v -27 -52 0
v -47 -54 0
v -49 -54 0
v -49 -52 0
v -47 -52 0
v -58 -54 0
v -60 -54 0
v -60 -52 0
v -58 -52 0
v -63 -54 0
v -65 -54 0
v -65 -52 0
v -63 -52 0
v -62 -55 0
v -64 -55 0
v -64 -53 0
v -62 -53 0
v -63 -55 0
v -65 -55 0
v -65 -53 0
v -63 -53 0
v -61 -56 0
v -63 -56 0
v -63 -54 0
v -61 -54 0
v -62 -56 0
v -64 -56 0
v -64 -54 0
v -62 -54 0
v -61 -57 0
v -63 -57 0
v -63 -55 0
v -61 -55 0
v -60 -58 0
v -62 -58 0
v -62 -56 0
v -60 -56 0
v -61 -58 0
v -63 -58 0
v -63 -56 0
v -61 -56 0
v -59 -60 0
v -61 -60 0
v -61 -58 0
v -59 -58 0
v -25 -61 0
v -27 -61 0
v -27 -59 0
v -25 -59 0
v -27 -61 0
v -29 -61 0
v -29 -59 0
v -27 -59 0
v -29 -61 0
v -31 -61 0
v -31 -59 0
v -29 -59 0
v -31 -61 0
v -33 -61 0
v -33 -59 0
v -31 -59 0
v -33 -61 0
v -35 -61 0
v -35 -59 0
v -33 -59 0
v -35 -61 0
v -37 -61 0
v -37 -59 0
v -35 -59 0
v -37 -61 0
v -39 -61 0
v -39 -59 0
v -37 -59 0
v -56 -61 0
v -58 -61 0
v -58 -59 0
v -56 -59 0
v -58 -61 0
v -60 -61 0
v -60 -59 0
v -58 -59 0
v -59 -61 0
v -61 -61 0
v -61 -59 0
v -59 -59 0
v -60 -61 0
v -62 -61 0
v -62 -59 0
v -60 -59 0
v -61 -61 0
v -63 -61 0
v -63 -59 0
v -61 -59 0
v -35 -62 0
v -37 -62 0
v -37 -60 0
v -35 -60 0
v -36 -62 0
v -38 -62 0
v -38 -60 0
v -36 -60 0
v -37 -62 0
v -39 -62 0
v -39 -60 0
v -37 -60 0
v -35 -63 0
v -37 -63 0
v -37 -61 0
v -35 -61 0
v -36 -63 0
v -38 -63 0
v -38 -61 0
v -36 -61 0
v -36 -64 0
v -38 -64 0
v -38 -62 0
v -36 -62 0
v -55 -64 0
v -57 -64 0
v -57 -62 0
v -55 -62 0
v -57 -64 0
v -59 -64 0
v -59 -62 0
v -57 -62 0
v -59 -64 0
v -61 -64 0
v -61 -62 0
v -59 -62 0
v -61 -64 0
v -63 -64 0
v -63 -62 0
v -61 -62 0
v -35 -65 0
v -37 -65 0
v -37 -63 0
v -35 -63 0
v -36 -65 0
v -38 -65 0
v -38 -63 0
v -36 -63 0
v -31 -66 0
v -33 -66 0
v -33 -64 0
v -31 -64 0
v -33 -66 0
v -35 -66 0
v -35 -64 0
v -33 -64 0
v -34 -66 0
v -36 -66 0
v -36 -64 0
v -34 -64 0
v -36 -66 0
v -38 -66 0
v -38 -64 0
v -36 -64 0
v -35 -67 0
v -37 -67 0
v -37 -65 0
v -35 -65 0
v -36 -67 0
v -38 -67 0
v -38 -65 0
v -36 -65 0
v -35 -68 0
v -37 -68 0
v -37 -66 0
v -35 -66 0
v -36 -68 0
v -38 -68 0
v -38 -66 0
v -36 -66 0
v -36 -69 0
v -38 -69 0
v -38 -67 0
v -36 -67 0

# Texture cooridinates (Count = 28)
vt 0.3125 0.4761904
vt 0.34375 0.4761904
vt 0.34375 0.4920635
vt 0.3125 0.4920635
vt 0.125 0.07936507
vt 0.15625 0.07936507
vt 0.15625 0.09523809
vt 0.125 0.09523809
vt 0.3125 0.952381
vt 0.34375 0.952381
vt 0.34375 0.968254
vt 0.3125 0.968254
vt 0.125 0.9206349
vt 0.15625 0.9206349
vt 0.15625 0.9365079
vt 0.125 0.9365079
vt 0.34375 0.1428571
vt 0.34375 0.1587301
vt 0.3125 0.1587301
vt 0.3125 0.1428571
vt 0.15625 0.1269841
vt 0.1875 0.1269841
vt 0.1875 0.1428571
vt 0.15625 0.1428571
vt 0.28125 0.1428571
vt 0.28125 0.1587301
vt 0.3125 0.1746032
vt 0.28125 0.1746032

# Normal
vn 0 0 -1

# Mesh description
g SnowyE_mesh_0004

# Faces
f 1/1/1 2/2/1 3/3/1 4/4/1
f 5/1/1 6/2/1 7/3/1 8/4/1
f 9/1/1 10/2/1 11/3/1 12/4/1
f 13/1/1 14/2/1 15/3/1 16/4/1
f 17/1/1 18/2/1 19/3/1 20/4/1
f 21/1/1 22/2/1 23/3/1 24/4/1
f 25/1/1 26/2/1 27/3/1 28/4/1
f 29/1/1 30/2/1 31/3/1 32/4/1
f 33/1/1 34/2/1 35/3/1 36/4/1
f 37/1/1 38/2/1 39/3/1 40/4/1
f 41/1/1 42/2/1 43/3/1 44/4/1
f 45/1/1 46/2/1 47/3/1 48/4/1
f 49/1/1 50/2/1 51/3/1 52/4/1
f 53/1/1 54/2/1 55/3/1 56/4/1
f 57/1/1 58/2/1 59/3/1 60/4/1
f 61/1/1 62/2/1 63/3/1 64/4/1
f 65/1/1 66/2/1 67/3/1 68/4/1
f 69/1/1 70/2/1 71/3/1 72/4/1
f 73/1/1 74/2/1 75/3/1 76/4/1
f 77/1/1 78/2/1 79/3/1 80/4/1
f 81/1/1 82/2/1 83/3/1 84/4/1
f 85/1/1 86/2/1 87/3/1 88/4/1
f 89/1/1 90/2/1 91/3/1 92/4/1
f 93/1/1 94/2/1 95/3/1 96/4/1
f 97/1/1 98/2/1 99/3/1 100/4/1
f 101/1/1 102/2/1 103/3/1 104/4/1
f 105/1/1 106/2/1 107/3/1 108/4/1
f 109/1/1 110/2/1 111/3/1 112/4/1
f 113/1/1 114/2/1 115/3/1 116/4/1
f 117/1/1 118/2/1 119/3/1 120/4/1
f 121/1/1 122/2/1 123/3/1 124/4/1
f 125/1/1 126/2/1 127/3/1 128/4/1
f 129/1/1 130/2/1 131/3/1 132/4/1
f 133/1/1 134/2/1 135/3/1 136/4/1
f 137/1/1 138/2/1 139/3/1 140/4/1
f 141/1/1 142/2/1 143/3/1 144/4/1
f 145/5/1 146/6/1 147/7/1 148/8/1
f 149/1/1 150/2/1 151/3/1 152/4/1
f 153/1/1 154/2/1 155/3/1 156/4/1
f 157/1/1 158/2/1 159/3/1 160/4/1
f 161/1/1 162/2/1 163/3/1 164/4/1
f 165/1/1 166/2/1 167/3/1 168/4/1
f 169/1/1 170/2/1 171/3/1 172/4/1
f 173/5/1 174/6/1 175/7/1 176/8/1
f 177/1/1 178/2/1 179/3/1 180/4/1
f 181/1/1 182/2/1 183/3/1 184/4/1
f 185/1/1 186/2/1 187/3/1 188/4/1
f 189/1/1 190/2/1 191/3/1 192/4/1
f 193/1/1 194/2/1 195/3/1 196/4/1
f 197/1/1 198/2/1 199/3/1 200/4/1
f 201/1/1 202/2/1 203/3/1 204/4/1
f 205/9/1 206/10/1 207/11/1 208/12/1
f 209/9/1 210/10/1 211/11/1 212/12/1
f 213/9/1 214/10/1 215/11/1 216/12/1
f 217/9/1 218/10/1 219/11/1 220/12/1
f 221/9/1 222/10/1 223/11/1 224/12/1
f 225/9/1 226/10/1 227/11/1 228/12/1
f 229/9/1 230/10/1 231/11/1 232/12/1
f 233/9/1 234/10/1 235/11/1 236/12/1
f 237/9/1 238/10/1 239/11/1 240/12/1
f 241/9/1 242/10/1 243/11/1 244/12/1
f 245/9/1 246/10/1 247/11/1 248/12/1
f 249/9/1 250/10/1 251/11/1 252/12/1
f 253/9/1 254/10/1 255/11/1 256/12/1
f 257/9/1 258/10/1 259/11/1 260/12/1
f 261/9/1 262/10/1 263/11/1 264/12/1
f 265/9/1 266/10/1 267/11/1 268/12/1
f 269/9/1 270/10/1 271/11/1 272/12/1
f 273/9/1 274/10/1 275/11/1 276/12/1
f 277/9/1 278/10/1 279/11/1 280/12/1
f 281/9/1 282/10/1 283/11/1 284/12/1
f 285/9/1 286/10/1 287/11/1 288/12/1
f 289/9/1 290/10/1 291/11/1 292/12/1
f 293/9/1 294/10/1 295/11/1 296/12/1
f 297/9/1 298/10/1 299/11/1 300/12/1
f 301/9/1 302/10/1 303/11/1 304/12/1
f 305/9/1 306/10/1 307/11/1 308/12/1
f 309/9/1 310/10/1 311/11/1 312/12/1
f 313/9/1 314/10/1 315/11/1 316/12/1
f 317/9/1 318/10/1 319/11/1 320/12/1
f 321/9/1 322/10/1 323/11/1 324/12/1
f 325/9/1 326/10/1 327/11/1 328/12/1
f 329/9/1 330/10/1 331/11/1 332/12/1
f 333/9/1 334/10/1 335/11/1 336/12/1
f 337/5/1 338/6/1 339/7/1 340/8/1
f 341/9/1 342/10/1 343/11/1 344/12/1
f 345/9/1 346/10/1 347/11/1 348/12/1
f 349/9/1 350/10/1 351/11/1 352/12/1
f 353/9/1 354/10/1 355/11/1 356/12/1
f 357/9/1 358/10/1 359/11/1 360/12/1
f 361/9/1 362/10/1 363/11/1 364/12/1
f 365/9/1 366/10/1 367/11/1 368/12/1
f 369/1/1 370/2/1 371/3/1 372/4/1
f 373/9/1 374/10/1 375/11/1 376/12/1
f 377/9/1 378/10/1 379/11/1 380/12/1
f 381/9/1 382/10/1 383/11/1 384/12/1
f 385/13/1 386/14/1 387/15/1 388/16/1
f 389/9/1 390/10/1 391/11/1 392/12/1
f 393/9/1 394/10/1 395/11/1 396/12/1
f 397/9/1 398/10/1 399/11/1 400/12/1
f 401/9/1 402/10/1 403/11/1 404/12/1
f 405/1/1 406/2/1 407/3/1 408/4/1
f 409/9/1 410/10/1 411/11/1 412/12/1
f 413/9/1 414/10/1 415/11/1 416/12/1
f 417/9/1 418/10/1 419/11/1 420/12/1
f 421/9/1 422/10/1 423/11/1 424/12/1
f 425/13/1 426/14/1 427/15/1 428/16/1
f 429/13/1 430/14/1 431/15/1 432/16/1
f 433/9/1 434/10/1 435/11/1 436/12/1
f 437/9/1 438/10/1 439/11/1 440/12/1
f 441/9/1 442/10/1 443/11/1 444/12/1
f 445/9/1 446/10/1 447/11/1 448/12/1
f 449/1/1 450/2/1 451/3/1 452/4/1
f 453/17/1 454/18/1 455/19/1 456/20/1
f 457/17/1 458/18/1 459/19/1 460/20/1
f 461/17/1 462/18/1 463/19/1 464/20/1
f 465/13/1 466/14/1 467/15/1 468/16/1
f 469/21/1 470/22/1 471/23/1 472/24/1
f 473/1/1 474/2/1 475/3/1 476/4/1
f 477/1/1 478/2/1 479/3/1 480/4/1
f 481/1/1 482/2/1 483/3/1 484/4/1
f 485/1/1 486/2/1 487/3/1 488/4/1
f 489/1/1 490/2/1 491/3/1 492/4/1
f 493/1/1 494/2/1 495/3/1 496/4/1
f 497/5/1 498/6/1 499/7/1 500/8/1
f 501/1/1 502/2/1 503/3/1 504/4/1
f 505/25/1 506/20/1 507/19/1 508/26/1
f 509/17/1 510/18/1 511/19/1 512/20/1
f 513/17/1 514/18/1 515/19/1 516/20/1
f 517/17/1 518/18/1 519/19/1 520/20/1
f 521/17/1 522/18/1 523/19/1 524/20/1
f 525/17/1 526/18/1 527/19/1 528/20/1
f 529/17/1 530/18/1 531/19/1 532/20/1
f 533/19/1 534/20/1 535/17/1 536/18/1
f 537/17/1 538/18/1 539/19/1 540/20/1
f 541/19/1 542/20/1 543/17/1 544/18/1
f 545/25/1 546/20/1 547/19/1 548/26/1
f 549/19/1 550/27/1 551/28/1 552/26/1
f 553/19/1 554/27/1 555/28/1 556/26/1
f 557/18/1 558/19/1 559/20/1 560/17/1
f 561/19/1 562/20/1 563/17/1 564/18/1
f 565/19/1 566/20/1 567/17/1 568/18/1
f 569/18/1 570/19/1 571/20/1 572/17/1
f 573/19/1 574/20/1 575/17/1 576/18/1
f 577/19/1 578/20/1 579/17/1 580/18/1
f 581/17/1 582/18/1 583/19/1 584/20/1
f 585/17/1 586/18/1 587/19/1 588/20/1
f 589/17/1 590/18/1 591/19/1 592/20/1
f 593/17/1 594/18/1 595/19/1 596/20/1
f 597/18/1 598/19/1 599/20/1 600/17/1
f 601/19/1 602/20/1 603/17/1 604/18/1
f 605/19/1 606/20/1 607/17/1 608/18/1
f 609/19/1 610/20/1 611/17/1 612/18/1
f 613/19/1 614/20/1 615/17/1 616/18/1
f 617/19/1 618/20/1 619/17/1 620/18/1
f 621/18/1 622/19/1 623/20/1 624/17/1
f 625/19/1 626/20/1 627/17/1 628/18/1
f 629/18/1 630/19/1 631/20/1 632/17/1
f 633/19/1 634/20/1 635/17/1 636/18/1
f 637/19/1 638/20/1 639/17/1 640/18/1

