# Tiled2Unity generated file. Do not modify by hand.
# Wavefront file for 'SnowyE_mesh_0015.obj'

# Vertices (Count = 12)
v -60 -42 0
v -61 -42 0
v -61 -41 0
v -60 -41 0
v -59 -43 0
v -60 -43 0
v -60 -42 0
v -59 -42 0
v -60 -43 0
v -61 -43 0
v -61 -42 0
v -60 -42 0

# Texture cooridinates (Count = 10)
vt 0.8571429 0.7142857
vt 1 0.7142857
vt 1 0.8571429
vt 0.8571429 0.8571429
vt 1 1
vt 0.8571429 1
vt 0.8571429 0.4285714
vt 1 0.4285714
vt 1 0.5714285
vt 0.8571429 0.5714285

# Normal
vn 0 0 -1

# Mesh description
g SnowyE_mesh_0015

# Faces
f 1/1/1 2/2/1 3/3/1 4/4/1
f 5/4/1 6/3/1 7/5/1 8/6/1
f 9/7/1 10/8/1 11/9/1 12/10/1

