# Tiled2Unity generated file. Do not modify by hand.
# Wavefront file for 'SnowyB_mesh_0004.obj'

# Vertices (Count = 124)
v -41 -39 0
v -43 -39 0
v -43 -37 0
v -41 -37 0
v -43 -39 0
v -45 -39 0
v -45 -37 0
v -43 -37 0
v -39 -40 0
v -41 -40 0
v -41 -38 0
v -39 -38 0
v -12 -41 0
v -14 -41 0
v -14 -39 0
v -12 -39 0
v -32 -41 0
v -34 -41 0
v -34 -39 0
v -32 -39 0
v -38 -41 0
v -40 -41 0
v -40 -39 0
v -38 -39 0
v -12 -42 0
v -14 -42 0
v -14 -40 0
v -12 -40 0
v -13 -42 0
v -15 -42 0
v -15 -40 0
v -13 -40 0
v -36 -42 0
v -38 -42 0
v -38 -40 0
v -36 -40 0
v -12 -43 0
v -14 -43 0
v -14 -41 0
v -12 -41 0
v -13 -43 0
v -15 -43 0
v -15 -41 0
v -13 -41 0
v -11 -44 0
v -13 -44 0
v -13 -42 0
v -11 -42 0
v -12 -44 0
v -14 -44 0
v -14 -42 0
v -12 -42 0
v -13 -44 0
v -15 -44 0
v -15 -42 0
v -13 -42 0
v -11 -45 0
v -13 -45 0
v -13 -43 0
v -11 -43 0
v -11 -46 0
v -13 -46 0
v -13 -44 0
v -11 -44 0
v -12 -46 0
v -14 -46 0
v -14 -44 0
v -12 -44 0
v -13 -46 0
v -15 -46 0
v -15 -44 0
v -13 -44 0
v -12 -47 0
v -14 -47 0
v -14 -45 0
v -12 -45 0
v -13 -47 0
v -15 -47 0
v -15 -45 0
v -13 -45 0
v -39 -61 0
v -41 -61 0
v -41 -59 0
v -39 -59 0
v -44 -62 0
v -46 -62 0
v -46 -60 0
v -44 -60 0
v -40 -64 0
v -42 -64 0
v -42 -62 0
v -40 -62 0
v -47 -65 0
v -49 -65 0
v -49 -63 0
v -47 -63 0
v -43 -67 0
v -45 -67 0
v -45 -65 0
v -43 -65 0
v -44 -69 0
v -46 -69 0
v -46 -67 0
v -44 -67 0
v -40 -70 0
v -42 -70 0
v -42 -68 0
v -40 -68 0
v -47 -70 0
v -49 -70 0
v -49 -68 0
v -47 -68 0
v -41 -72 0
v -43 -72 0
v -43 -70 0
v -41 -70 0
v -45 -73 0
v -47 -73 0
v -47 -71 0
v -45 -71 0
v -39 -74 0
v -41 -74 0
v -41 -72 0
v -39 -72 0

# Texture cooridinates (Count = 15)
vt 0.25 0.07936507
vt 0.28125 0.07936507
vt 0.28125 0.09523809
vt 0.25 0.09523809
vt 0.6875 0.6190476
vt 0.71875 0.6190476
vt 0.71875 0.6349206
vt 0.6875 0.6349206
vt 0.3125 0.09523809
vt 0.3125 0.1111111
vt 0.28125 0.1111111
vt 0.375 0.4761904
vt 0.40625 0.4761904
vt 0.40625 0.4920635
vt 0.375 0.4920635

# Normal
vn 0 0 -1

# Mesh description
g SnowyB_mesh_0004

# Faces
f 1/1/1 2/2/1 3/3/1 4/4/1
f 5/1/1 6/2/1 7/3/1 8/4/1
f 9/1/1 10/2/1 11/3/1 12/4/1
f 13/5/1 14/6/1 15/7/1 16/8/1
f 17/1/1 18/2/1 19/3/1 20/4/1
f 21/1/1 22/2/1 23/3/1 24/4/1
f 25/5/1 26/6/1 27/7/1 28/8/1
f 29/5/1 30/6/1 31/7/1 32/8/1
f 33/3/1 34/9/1 35/10/1 36/11/1
f 37/5/1 38/6/1 39/7/1 40/8/1
f 41/5/1 42/6/1 43/7/1 44/8/1
f 45/5/1 46/6/1 47/7/1 48/8/1
f 49/5/1 50/6/1 51/7/1 52/8/1
f 53/5/1 54/6/1 55/7/1 56/8/1
f 57/5/1 58/6/1 59/7/1 60/8/1
f 61/5/1 62/6/1 63/7/1 64/8/1
f 65/5/1 66/6/1 67/7/1 68/8/1
f 69/5/1 70/6/1 71/7/1 72/8/1
f 73/5/1 74/6/1 75/7/1 76/8/1
f 77/5/1 78/6/1 79/7/1 80/8/1
f 81/12/1 82/13/1 83/14/1 84/15/1
f 85/12/1 86/13/1 87/14/1 88/15/1
f 89/12/1 90/13/1 91/14/1 92/15/1
f 93/12/1 94/13/1 95/14/1 96/15/1
f 97/12/1 98/13/1 99/14/1 100/15/1
f 101/12/1 102/13/1 103/14/1 104/15/1
f 105/12/1 106/13/1 107/14/1 108/15/1
f 109/12/1 110/13/1 111/14/1 112/15/1
f 113/12/1 114/13/1 115/14/1 116/15/1
f 117/12/1 118/13/1 119/14/1 120/15/1
f 121/12/1 122/13/1 123/14/1 124/15/1

