# Tiled2Unity generated file. Do not modify by hand.
# Wavefront file for 'SnowyB_mesh_0003.obj'

# Vertices (Count = 768)
v -10 -35 0
v -11 -35 0
v -11 -34 0
v -10 -34 0
v -11 -35 0
v -12 -35 0
v -12 -34 0
v -11 -34 0
v -12 -35 0
v -13 -35 0
v -13 -34 0
v -12 -34 0
v -13 -35 0
v -14 -35 0
v -14 -34 0
v -13 -34 0
v -10 -36 0
v -11 -36 0
v -11 -35 0
v -10 -35 0
v -11 -36 0
v -12 -36 0
v -12 -35 0
v -11 -35 0
v -12 -36 0
v -13 -36 0
v -13 -35 0
v -12 -35 0
v -13 -36 0
v -14 -36 0
v -14 -35 0
v -13 -35 0
v -10 -37 0
v -11 -37 0
v -11 -36 0
v -10 -36 0
v -11 -37 0
v -12 -37 0
v -12 -36 0
v -11 -36 0
v -12 -37 0
v -13 -37 0
v -13 -36 0
v -12 -36 0
v -13 -37 0
v -14 -37 0
v -14 -36 0
v -13 -36 0
v -10 -38 0
v -11 -38 0
v -11 -37 0
v -10 -37 0
v -11 -38 0
v -12 -38 0
v -12 -37 0
v -11 -37 0
v -12 -38 0
v -13 -38 0
v -13 -37 0
v -12 -37 0
v -13 -38 0
v -14 -38 0
v -14 -37 0
v -13 -37 0
v -10 -39 0
v -11 -39 0
v -11 -38 0
v -10 -38 0
v -11 -39 0
v -12 -39 0
v -12 -38 0
v -11 -38 0
v -12 -39 0
v -13 -39 0
v -13 -38 0
v -12 -38 0
v -13 -39 0
v -14 -39 0
v -14 -38 0
v -13 -38 0
v -9 -47 0
v -10 -47 0
v -10 -46 0
v -9 -46 0
v -10 -47 0
v -11 -47 0
v -11 -46 0
v -10 -46 0
v -11 -47 0
v -12 -47 0
v -12 -46 0
v -11 -46 0
v -9 -48 0
v -10 -48 0
v -10 -47 0
v -9 -47 0
v -10 -48 0
v -11 -48 0
v -11 -47 0
v -10 -47 0
v -11 -48 0
v -12 -48 0
v -12 -47 0
v -11 -47 0
v -12 -48 0
v -13 -48 0
v -13 -47 0
v -12 -47 0
v -13 -48 0
v -14 -48 0
v -14 -47 0
v -13 -47 0
v -9 -49 0
v -10 -49 0
v -10 -48 0
v -9 -48 0
v -10 -49 0
v -11 -49 0
v -11 -48 0
v -10 -48 0
v -11 -49 0
v -12 -49 0
v -12 -48 0
v -11 -48 0
v -12 -49 0
v -13 -49 0
v -13 -48 0
v -12 -48 0
v -13 -49 0
v -14 -49 0
v -14 -48 0
v -13 -48 0
v -9 -50 0
v -10 -50 0
v -10 -49 0
v -9 -49 0
v -10 -50 0
v -11 -50 0
v -11 -49 0
v -10 -49 0
v -11 -50 0
v -12 -50 0
v -12 -49 0
v -11 -49 0
v -12 -50 0
v -13 -50 0
v -13 -49 0
v -12 -49 0
v -13 -50 0
v -14 -50 0
v -14 -49 0
v -13 -49 0
v -9 -51 0
v -10 -51 0
v -10 -50 0
v -9 -50 0
v -10 -51 0
v -11 -51 0
v -11 -50 0
v -10 -50 0
v -11 -51 0
v -12 -51 0
v -12 -50 0
v -11 -50 0
v -12 -51 0
v -13 -51 0
v -13 -50 0
v -12 -50 0
v -13 -51 0
v -14 -51 0
v -14 -50 0
v -13 -50 0
v -9 -52 0
v -10 -52 0
v -10 -51 0
v -9 -51 0
v -10 -52 0
v -11 -52 0
v -11 -51 0
v -10 -51 0
v -11 -52 0
v -12 -52 0
v -12 -51 0
v -11 -51 0
v -12 -52 0
v -13 -52 0
v -13 -51 0
v -12 -51 0
v -13 -52 0
v -14 -52 0
v -14 -51 0
v -13 -51 0
v -9 -53 0
v -10 -53 0
v -10 -52 0
v -9 -52 0
v -10 -53 0
v -11 -53 0
v -11 -52 0
v -10 -52 0
v -11 -53 0
v -12 -53 0
v -12 -52 0
v -11 -52 0
v -12 -53 0
v -13 -53 0
v -13 -52 0
v -12 -52 0
v -13 -53 0
v -14 -53 0
v -14 -52 0
v -13 -52 0
v -9 -54 0
v -10 -54 0
v -10 -53 0
v -9 -53 0
v -10 -54 0
v -11 -54 0
v -11 -53 0
v -10 -53 0
v -11 -54 0
v -12 -54 0
v -12 -53 0
v -11 -53 0
v -12 -54 0
v -13 -54 0
v -13 -53 0
v -12 -53 0
v -13 -54 0
v -14 -54 0
v -14 -53 0
v -13 -53 0
v -9 -55 0
v -10 -55 0
v -10 -54 0
v -9 -54 0
v -10 -55 0
v -11 -55 0
v -11 -54 0
v -10 -54 0
v -11 -55 0
v -12 -55 0
v -12 -54 0
v -11 -54 0
v -12 -55 0
v -13 -55 0
v -13 -54 0
v -12 -54 0
v -13 -55 0
v -14 -55 0
v -14 -54 0
v -13 -54 0
v -9 -56 0
v -10 -56 0
v -10 -55 0
v -9 -55 0
v -10 -56 0
v -11 -56 0
v -11 -55 0
v -10 -55 0
v -11 -56 0
v -12 -56 0
v -12 -55 0
v -11 -55 0
v -12 -56 0
v -13 -56 0
v -13 -55 0
v -12 -55 0
v -13 -56 0
v -14 -56 0
v -14 -55 0
v -13 -55 0
v -9 -57 0
v -10 -57 0
v -10 -56 0
v -9 -56 0
v -10 -57 0
v -11 -57 0
v -11 -56 0
v -10 -56 0
v -11 -57 0
v -12 -57 0
v -12 -56 0
v -11 -56 0
v -12 -57 0
v -13 -57 0
v -13 -56 0
v -12 -56 0
v -13 -57 0
v -14 -57 0
v -14 -56 0
v -13 -56 0
v -9 -58 0
v -10 -58 0
v -10 -57 0
v -9 -57 0
v -10 -58 0
v -11 -58 0
v -11 -57 0
v -10 -57 0
v -11 -58 0
v -12 -58 0
v -12 -57 0
v -11 -57 0
v -12 -58 0
v -13 -58 0
v -13 -57 0
v -12 -57 0
v -13 -58 0
v -14 -58 0
v -14 -57 0
v -13 -57 0
v -9 -59 0
v -10 -59 0
v -10 -58 0
v -9 -58 0
v -10 -59 0
v -11 -59 0
v -11 -58 0
v -10 -58 0
v -11 -59 0
v -12 -59 0
v -12 -58 0
v -11 -58 0
v -12 -59 0
v -13 -59 0
v -13 -58 0
v -12 -58 0
v -13 -59 0
v -14 -59 0
v -14 -58 0
v -13 -58 0
v -9 -60 0
v -10 -60 0
v -10 -59 0
v -9 -59 0
v -10 -60 0
v -11 -60 0
v -11 -59 0
v -10 -59 0
v -11 -60 0
v -12 -60 0
v -12 -59 0
v -11 -59 0
v -12 -60 0
v -13 -60 0
v -13 -59 0
v -12 -59 0
v -13 -60 0
v -14 -60 0
v -14 -59 0
v -13 -59 0
v -9 -61 0
v -10 -61 0
v -10 -60 0
v -9 -60 0
v -10 -61 0
v -11 -61 0
v -11 -60 0
v -10 -60 0
v -11 -61 0
v -12 -61 0
v -12 -60 0
v -11 -60 0
v -12 -61 0
v -13 -61 0
v -13 -60 0
v -12 -60 0
v -13 -61 0
v -14 -61 0
v -14 -60 0
v -13 -60 0
v -9 -62 0
v -10 -62 0
v -10 -61 0
v -9 -61 0
v -10 -62 0
v -11 -62 0
v -11 -61 0
v -10 -61 0
v -11 -62 0
v -12 -62 0
v -12 -61 0
v -11 -61 0
v -12 -62 0
v -13 -62 0
v -13 -61 0
v -12 -61 0
v -13 -62 0
v -14 -62 0
v -14 -61 0
v -13 -61 0
v -9 -63 0
v -10 -63 0
v -10 -62 0
v -9 -62 0
v -10 -63 0
v -11 -63 0
v -11 -62 0
v -10 -62 0
v -11 -63 0
v -12 -63 0
v -12 -62 0
v -11 -62 0
v -12 -63 0
v -13 -63 0
v -13 -62 0
v -12 -62 0
v -13 -63 0
v -14 -63 0
v -14 -62 0
v -13 -62 0
v -9 -64 0
v -10 -64 0
v -10 -63 0
v -9 -63 0
v -10 -64 0
v -11 -64 0
v -11 -63 0
v -10 -63 0
v -11 -64 0
v -12 -64 0
v -12 -63 0
v -11 -63 0
v -12 -64 0
v -13 -64 0
v -13 -63 0
v -12 -63 0
v -13 -64 0
v -14 -64 0
v -14 -63 0
v -13 -63 0
v -9 -65 0
v -10 -65 0
v -10 -64 0
v -9 -64 0
v -10 -65 0
v -11 -65 0
v -11 -64 0
v -10 -64 0
v -11 -65 0
v -12 -65 0
v -12 -64 0
v -11 -64 0
v -12 -65 0
v -13 -65 0
v -13 -64 0
v -12 -64 0
v -13 -65 0
v -14 -65 0
v -14 -64 0
v -13 -64 0
v -9 -66 0
v -10 -66 0
v -10 -65 0
v -9 -65 0
v -10 -66 0
v -11 -66 0
v -11 -65 0
v -10 -65 0
v -11 -66 0
v -12 -66 0
v -12 -65 0
v -11 -65 0
v -12 -66 0
v -13 -66 0
v -13 -65 0
v -12 -65 0
v -13 -66 0
v -14 -66 0
v -14 -65 0
v -13 -65 0
v -9 -67 0
v -10 -67 0
v -10 -66 0
v -9 -66 0
v -10 -67 0
v -11 -67 0
v -11 -66 0
v -10 -66 0
v -11 -67 0
v -12 -67 0
v -12 -66 0
v -11 -66 0
v -12 -67 0
v -13 -67 0
v -13 -66 0
v -12 -66 0
v -13 -67 0
v -14 -67 0
v -14 -66 0
v -13 -66 0
v -9 -68 0
v -10 -68 0
v -10 -67 0
v -9 -67 0
v -10 -68 0
v -11 -68 0
v -11 -67 0
v -10 -67 0
v -11 -68 0
v -12 -68 0
v -12 -67 0
v -11 -67 0
v -12 -68 0
v -13 -68 0
v -13 -67 0
v -12 -67 0
v -13 -68 0
v -14 -68 0
v -14 -67 0
v -13 -67 0
v -9 -69 0
v -10 -69 0
v -10 -68 0
v -9 -68 0
v -10 -69 0
v -11 -69 0
v -11 -68 0
v -10 -68 0
v -11 -69 0
v -12 -69 0
v -12 -68 0
v -11 -68 0
v -12 -69 0
v -13 -69 0
v -13 -68 0
v -12 -68 0
v -13 -69 0
v -14 -69 0
v -14 -68 0
v -13 -68 0
v -9 -70 0
v -10 -70 0
v -10 -69 0
v -9 -69 0
v -10 -70 0
v -11 -70 0
v -11 -69 0
v -10 -69 0
v -11 -70 0
v -12 -70 0
v -12 -69 0
v -11 -69 0
v -12 -70 0
v -13 -70 0
v -13 -69 0
v -12 -69 0
v -13 -70 0
v -14 -70 0
v -14 -69 0
v -13 -69 0
v -9 -71 0
v -10 -71 0
v -10 -70 0
v -9 -70 0
v -10 -71 0
v -11 -71 0
v -11 -70 0
v -10 -70 0
v -11 -71 0
v -12 -71 0
v -12 -70 0
v -11 -70 0
v -12 -71 0
v -13 -71 0
v -13 -70 0
v -12 -70 0
v -13 -71 0
v -14 -71 0
v -14 -70 0
v -13 -70 0
v -9 -72 0
v -10 -72 0
v -10 -71 0
v -9 -71 0
v -10 -72 0
v -11 -72 0
v -11 -71 0
v -10 -71 0
v -11 -72 0
v -12 -72 0
v -12 -71 0
v -11 -71 0
v -12 -72 0
v -13 -72 0
v -13 -71 0
v -12 -71 0
v -13 -72 0
v -14 -72 0
v -14 -71 0
v -13 -71 0
v -9 -73 0
v -10 -73 0
v -10 -72 0
v -9 -72 0
v -10 -73 0
v -11 -73 0
v -11 -72 0
v -10 -72 0
v -11 -73 0
v -12 -73 0
v -12 -72 0
v -11 -72 0
v -12 -73 0
v -13 -73 0
v -13 -72 0
v -12 -72 0
v -13 -73 0
v -14 -73 0
v -14 -72 0
v -13 -72 0
v -9 -74 0
v -10 -74 0
v -10 -73 0
v -9 -73 0
v -10 -74 0
v -11 -74 0
v -11 -73 0
v -10 -73 0
v -11 -74 0
v -12 -74 0
v -12 -73 0
v -11 -73 0
v -12 -74 0
v -13 -74 0
v -13 -73 0
v -12 -73 0
v -13 -74 0
v -14 -74 0
v -14 -73 0
v -13 -73 0
v -9 -75 0
v -10 -75 0
v -10 -74 0
v -9 -74 0
v -10 -75 0
v -11 -75 0
v -11 -74 0
v -10 -74 0
v -11 -75 0
v -12 -75 0
v -12 -74 0
v -11 -74 0
v -12 -75 0
v -13 -75 0
v -13 -74 0
v -12 -74 0
v -13 -75 0
v -14 -75 0
v -14 -74 0
v -13 -74 0
v -9 -76 0
v -10 -76 0
v -10 -75 0
v -9 -75 0
v -10 -76 0
v -11 -76 0
v -11 -75 0
v -10 -75 0
v -9 -77 0
v -10 -77 0
v -10 -76 0
v -9 -76 0
v -10 -77 0
v -11 -77 0
v -11 -76 0
v -10 -76 0
v -9 -78 0
v -10 -78 0
v -10 -77 0
v -9 -77 0
v -10 -78 0
v -11 -78 0
v -11 -77 0
v -10 -77 0
v -9 -79 0
v -10 -79 0
v -10 -78 0
v -9 -78 0
v -10 -79 0
v -11 -79 0
v -11 -78 0
v -10 -78 0
v -9 -80 0
v -10 -80 0
v -10 -79 0
v -9 -79 0
v -10 -80 0
v -11 -80 0
v -11 -79 0
v -10 -79 0
v -11 -80 0
v -12 -80 0
v -12 -79 0
v -11 -79 0
v -9 -81 0
v -10 -81 0
v -10 -80 0
v -9 -80 0
v -10 -81 0
v -11 -81 0
v -11 -80 0
v -10 -80 0
v -11 -81 0
v -12 -81 0
v -12 -80 0
v -11 -80 0
v -9 -82 0
v -10 -82 0
v -10 -81 0
v -9 -81 0
v -10 -82 0
v -11 -82 0
v -11 -81 0
v -10 -81 0
v -11 -82 0
v -12 -82 0
v -12 -81 0
v -11 -81 0
v -9 -83 0
v -10 -83 0
v -10 -82 0
v -9 -82 0
v -10 -83 0
v -11 -83 0
v -11 -82 0
v -10 -82 0
v -11 -83 0
v -12 -83 0
v -12 -82 0
v -11 -82 0
v -9 -84 0
v -10 -84 0
v -10 -83 0
v -9 -83 0
v -10 -84 0
v -11 -84 0
v -11 -83 0
v -10 -83 0
v -11 -84 0
v -12 -84 0
v -12 -83 0
v -11 -83 0
v -9 -85 0
v -10 -85 0
v -10 -84 0
v -9 -84 0
v -10 -85 0
v -11 -85 0
v -11 -84 0
v -10 -84 0
v -11 -85 0
v -12 -85 0
v -12 -84 0
v -11 -84 0
v -9 -86 0
v -10 -86 0
v -10 -85 0
v -9 -85 0
v -10 -86 0
v -11 -86 0
v -11 -85 0
v -10 -85 0
v -11 -86 0
v -12 -86 0
v -12 -85 0
v -11 -85 0

# Texture cooridinates (Count = 144)
vt 0.7125 0.640625
vt 0.7625 0.640625
vt 0.7625 0.703125
vt 0.7125 0.703125
vt 0.771875 0.640625
vt 0.821875 0.640625
vt 0.821875 0.703125
vt 0.771875 0.703125
vt 0.83125 0.640625
vt 0.88125 0.640625
vt 0.88125 0.703125
vt 0.83125 0.703125
vt 0.7125 0.5664063
vt 0.7625 0.5664063
vt 0.7625 0.6289063
vt 0.7125 0.6289063
vt 0.771875 0.5664063
vt 0.821875 0.5664063
vt 0.821875 0.6289063
vt 0.771875 0.6289063
vt 0.83125 0.5664063
vt 0.88125 0.5664063
vt 0.88125 0.6289063
vt 0.83125 0.6289063
vt 0.7125 0.4921875
vt 0.7625 0.4921875
vt 0.7625 0.5546875
vt 0.7125 0.5546875
vt 0.771875 0.4921875
vt 0.821875 0.4921875
vt 0.821875 0.5546875
vt 0.771875 0.5546875
vt 0.83125 0.4921875
vt 0.88125 0.4921875
vt 0.88125 0.5546875
vt 0.83125 0.5546875
vt 0.7125 0.4179688
vt 0.7625 0.4179688
vt 0.7625 0.4804688
vt 0.7125 0.4804688
vt 0.771875 0.4179688
vt 0.821875 0.4179688
vt 0.821875 0.4804688
vt 0.771875 0.4804688
vt 0.83125 0.4179688
vt 0.88125 0.4179688
vt 0.88125 0.4804688
vt 0.83125 0.4804688
vt 0.7125 0.34375
vt 0.7625 0.34375
vt 0.7625 0.40625
vt 0.7125 0.40625
vt 0.771875 0.34375
vt 0.821875 0.34375
vt 0.821875 0.40625
vt 0.771875 0.40625
vt 0.83125 0.34375
vt 0.88125 0.34375
vt 0.88125 0.40625
vt 0.83125 0.40625
vt 0.415625 0.7890625
vt 0.465625 0.7890625
vt 0.465625 0.8515625
vt 0.415625 0.8515625
vt 0.475 0.7890625
vt 0.525 0.7890625
vt 0.525 0.8515625
vt 0.475 0.8515625
vt 0.534375 0.7890625
vt 0.584375 0.7890625
vt 0.584375 0.8515625
vt 0.534375 0.8515625
vt 0.59375 0.7890625
vt 0.64375 0.7890625
vt 0.64375 0.8515625
vt 0.59375 0.8515625
vt 0.415625 0.7148438
vt 0.465625 0.7148438
vt 0.465625 0.7773438
vt 0.415625 0.7773438
vt 0.415625 0.640625
vt 0.465625 0.640625
vt 0.465625 0.703125
vt 0.415625 0.703125
vt 0.475 0.640625
vt 0.525 0.640625
vt 0.525 0.703125
vt 0.475 0.703125
vt 0.534375 0.640625
vt 0.584375 0.640625
vt 0.584375 0.703125
vt 0.534375 0.703125
vt 0.59375 0.640625
vt 0.64375 0.640625
vt 0.64375 0.703125
vt 0.59375 0.703125
vt 0.653125 0.2695313
vt 0.703125 0.2695313
vt 0.703125 0.3320313
vt 0.653125 0.3320313
vt 0.59375 0.2695313
vt 0.64375 0.2695313
vt 0.64375 0.3320313
vt 0.59375 0.3320313
vt 0.35625 0.2695313
vt 0.40625 0.2695313
vt 0.40625 0.3320313
vt 0.35625 0.3320313
vt 0.415625 0.2695313
vt 0.465625 0.2695313
vt 0.465625 0.3320313
vt 0.415625 0.3320313
vt 0.475 0.2695313
vt 0.525 0.2695313
vt 0.525 0.3320313
vt 0.475 0.3320313
vt 0.35625 0.1953125
vt 0.40625 0.1953125
vt 0.40625 0.2578125
vt 0.35625 0.2578125
vt 0.534375 0.2695313
vt 0.584375 0.2695313
vt 0.584375 0.3320313
vt 0.534375 0.3320313
vt 0.653125 0.1953125
vt 0.703125 0.1953125
vt 0.703125 0.2578125
vt 0.653125 0.2578125
vt 0.415625 0.1953125
vt 0.465625 0.1953125
vt 0.465625 0.2578125
vt 0.415625 0.2578125
vt 0.475 0.1953125
vt 0.525 0.1953125
vt 0.525 0.2578125
vt 0.475 0.2578125
vt 0.534375 0.1953125
vt 0.584375 0.1953125
vt 0.584375 0.2578125
vt 0.534375 0.2578125
vt 0.59375 0.1953125
vt 0.64375 0.1953125
vt 0.64375 0.2578125
vt 0.59375 0.2578125

# Normal
vn 0 0 -1

# Mesh description
g SnowyB_mesh_0003

# Faces
f 1/1/1 2/2/1 3/3/1 4/4/1
f 5/5/1 6/6/1 7/7/1 8/8/1
f 9/9/1 10/10/1 11/11/1 12/12/1
f 13/5/1 14/6/1 15/7/1 16/8/1
f 17/13/1 18/14/1 19/15/1 20/16/1
f 21/17/1 22/18/1 23/19/1 24/20/1
f 25/21/1 26/22/1 27/23/1 28/24/1
f 29/17/1 30/18/1 31/19/1 32/20/1
f 33/25/1 34/26/1 35/27/1 36/28/1
f 37/29/1 38/30/1 39/31/1 40/32/1
f 41/33/1 42/34/1 43/35/1 44/36/1
f 45/29/1 46/30/1 47/31/1 48/32/1
f 49/37/1 50/38/1 51/39/1 52/40/1
f 53/41/1 54/42/1 55/43/1 56/44/1
f 57/45/1 58/46/1 59/47/1 60/48/1
f 61/41/1 62/42/1 63/43/1 64/44/1
f 65/49/1 66/50/1 67/51/1 68/52/1
f 69/53/1 70/54/1 71/55/1 72/56/1
f 73/57/1 74/58/1 75/59/1 76/60/1
f 77/53/1 78/54/1 79/55/1 80/56/1
f 81/61/1 82/62/1 83/63/1 84/64/1
f 85/65/1 86/66/1 87/67/1 88/68/1
f 89/69/1 90/70/1 91/71/1 92/72/1
f 93/69/1 94/70/1 95/71/1 96/72/1
f 97/73/1 98/74/1 99/75/1 100/76/1
f 101/73/1 102/74/1 103/75/1 104/76/1
f 105/61/1 106/62/1 107/63/1 108/64/1
f 109/61/1 110/62/1 111/63/1 112/64/1
f 113/61/1 114/62/1 115/63/1 116/64/1
f 117/61/1 118/62/1 119/63/1 120/64/1
f 121/61/1 122/62/1 123/63/1 124/64/1
f 125/77/1 126/78/1 127/79/1 128/80/1
f 129/77/1 130/78/1 131/79/1 132/80/1
f 133/77/1 134/78/1 135/79/1 136/80/1
f 137/77/1 138/78/1 139/79/1 140/80/1
f 141/77/1 142/78/1 143/79/1 144/80/1
f 145/81/1 146/82/1 147/83/1 148/84/1
f 149/81/1 150/82/1 151/83/1 152/84/1
f 153/81/1 154/82/1 155/83/1 156/84/1
f 157/81/1 158/82/1 159/83/1 160/84/1
f 161/81/1 162/82/1 163/83/1 164/84/1
f 165/81/1 166/82/1 167/83/1 168/84/1
f 169/85/1 170/86/1 171/87/1 172/88/1
f 173/81/1 174/82/1 175/83/1 176/84/1
f 177/85/1 178/86/1 179/87/1 180/88/1
f 181/89/1 182/90/1 183/91/1 184/92/1
f 185/93/1 186/94/1 187/95/1 188/96/1
f 189/1/1 190/2/1 191/3/1 192/4/1
f 193/93/1 194/94/1 195/95/1 196/96/1
f 197/13/1 198/14/1 199/15/1 200/16/1
f 201/13/1 202/14/1 203/15/1 204/16/1
f 205/13/1 206/14/1 207/15/1 208/16/1
f 209/13/1 210/14/1 211/15/1 212/16/1
f 213/97/1 214/98/1 215/99/1 216/100/1
f 217/25/1 218/26/1 219/27/1 220/28/1
f 221/25/1 222/26/1 223/27/1 224/28/1
f 225/25/1 226/26/1 227/27/1 228/28/1
f 229/25/1 230/26/1 231/27/1 232/28/1
f 233/97/1 234/98/1 235/99/1 236/100/1
f 237/37/1 238/38/1 239/39/1 240/40/1
f 241/37/1 242/38/1 243/39/1 244/40/1
f 245/37/1 246/38/1 247/39/1 248/40/1
f 249/37/1 250/38/1 251/39/1 252/40/1
f 253/97/1 254/98/1 255/99/1 256/100/1
f 257/1/1 258/2/1 259/3/1 260/4/1
f 261/1/1 262/2/1 263/3/1 264/4/1
f 265/1/1 266/2/1 267/3/1 268/4/1
f 269/37/1 270/38/1 271/39/1 272/40/1
f 273/97/1 274/98/1 275/99/1 276/100/1
f 277/13/1 278/14/1 279/15/1 280/16/1
f 281/13/1 282/14/1 283/15/1 284/16/1
f 285/13/1 286/14/1 287/15/1 288/16/1
f 289/13/1 290/14/1 291/15/1 292/16/1
f 293/97/1 294/98/1 295/99/1 296/100/1
f 297/25/1 298/26/1 299/27/1 300/28/1
f 301/25/1 302/26/1 303/27/1 304/28/1
f 305/25/1 306/26/1 307/27/1 308/28/1
f 309/25/1 310/26/1 311/27/1 312/28/1
f 313/101/1 314/102/1 315/103/1 316/104/1
f 317/97/1 318/98/1 319/99/1 320/100/1
f 321/105/1 322/106/1 323/107/1 324/108/1
f 325/109/1 326/110/1 327/111/1 328/112/1
f 329/113/1 330/114/1 331/115/1 332/116/1
f 333/101/1 334/102/1 335/103/1 336/104/1
f 337/97/1 338/98/1 339/99/1 340/100/1
f 341/105/1 342/106/1 343/107/1 344/108/1
f 345/109/1 346/110/1 347/111/1 348/112/1
f 349/113/1 350/114/1 351/115/1 352/116/1
f 353/101/1 354/102/1 355/103/1 356/104/1
f 357/97/1 358/98/1 359/99/1 360/100/1
f 361/105/1 362/106/1 363/107/1 364/108/1
f 365/109/1 366/110/1 367/111/1 368/112/1
f 369/113/1 370/114/1 371/115/1 372/116/1
f 373/101/1 374/102/1 375/103/1 376/104/1
f 377/97/1 378/98/1 379/99/1 380/100/1
f 381/105/1 382/106/1 383/107/1 384/108/1
f 385/109/1 386/110/1 387/111/1 388/112/1
f 389/113/1 390/114/1 391/115/1 392/116/1
f 393/101/1 394/102/1 395/103/1 396/104/1
f 397/97/1 398/98/1 399/99/1 400/100/1
f 401/105/1 402/106/1 403/107/1 404/108/1
f 405/109/1 406/110/1 407/111/1 408/112/1
f 409/113/1 410/114/1 411/115/1 412/116/1
f 413/101/1 414/102/1 415/103/1 416/104/1
f 417/97/1 418/98/1 419/99/1 420/100/1
f 421/109/1 422/110/1 423/111/1 424/112/1
f 425/113/1 426/114/1 427/115/1 428/116/1
f 429/105/1 430/106/1 431/107/1 432/108/1
f 433/101/1 434/102/1 435/103/1 436/104/1
f 437/97/1 438/98/1 439/99/1 440/100/1
f 441/109/1 442/110/1 443/111/1 444/112/1
f 445/113/1 446/114/1 447/115/1 448/116/1
f 449/117/1 450/118/1 451/119/1 452/120/1
f 453/121/1 454/122/1 455/123/1 456/124/1
f 457/101/1 458/102/1 459/103/1 460/104/1
f 461/97/1 462/98/1 463/99/1 464/100/1
f 465/113/1 466/114/1 467/115/1 468/116/1
f 469/117/1 470/118/1 471/119/1 472/120/1
f 473/121/1 474/122/1 475/123/1 476/124/1
f 477/101/1 478/102/1 479/103/1 480/104/1
f 481/97/1 482/98/1 483/99/1 484/100/1
f 485/113/1 486/114/1 487/115/1 488/116/1
f 489/117/1 490/118/1 491/119/1 492/120/1
f 493/121/1 494/122/1 495/123/1 496/124/1
f 497/101/1 498/102/1 499/103/1 500/104/1
f 501/97/1 502/98/1 503/99/1 504/100/1
f 505/113/1 506/114/1 507/115/1 508/116/1
f 509/117/1 510/118/1 511/119/1 512/120/1
f 513/101/1 514/102/1 515/103/1 516/104/1
f 517/97/1 518/98/1 519/99/1 520/100/1
f 521/97/1 522/98/1 523/99/1 524/100/1
f 525/121/1 526/122/1 527/123/1 528/124/1
f 529/117/1 530/118/1 531/119/1 532/120/1
f 533/101/1 534/102/1 535/103/1 536/104/1
f 537/97/1 538/98/1 539/99/1 540/100/1
f 541/125/1 542/126/1 543/127/1 544/128/1
f 545/101/1 546/102/1 547/103/1 548/104/1
f 549/117/1 550/118/1 551/119/1 552/120/1
f 553/101/1 554/102/1 555/103/1 556/104/1
f 557/97/1 558/98/1 559/99/1 560/100/1
f 561/101/1 562/102/1 563/103/1 564/104/1
f 565/105/1 566/106/1 567/107/1 568/108/1
f 569/117/1 570/118/1 571/119/1 572/120/1
f 573/101/1 574/102/1 575/103/1 576/104/1
f 577/97/1 578/98/1 579/99/1 580/100/1
f 581/105/1 582/106/1 583/107/1 584/108/1
f 585/117/1 586/118/1 587/119/1 588/120/1
f 589/117/1 590/118/1 591/119/1 592/120/1
f 593/101/1 594/102/1 595/103/1 596/104/1
f 597/97/1 598/98/1 599/99/1 600/100/1
f 601/117/1 602/118/1 603/119/1 604/120/1
f 605/117/1 606/118/1 607/119/1 608/120/1
f 609/129/1 610/130/1 611/131/1 612/132/1
f 613/101/1 614/102/1 615/103/1 616/104/1
f 617/97/1 618/98/1 619/99/1 620/100/1
f 621/129/1 622/130/1 623/131/1 624/132/1
f 625/133/1 626/134/1 627/135/1 628/136/1
f 629/137/1 630/138/1 631/139/1 632/140/1
f 633/101/1 634/102/1 635/103/1 636/104/1
f 637/97/1 638/98/1 639/99/1 640/100/1
f 641/133/1 642/134/1 643/135/1 644/136/1
f 645/137/1 646/138/1 647/139/1 648/140/1
f 649/141/1 650/142/1 651/143/1 652/144/1
f 653/101/1 654/102/1 655/103/1 656/104/1
f 657/97/1 658/98/1 659/99/1 660/100/1
f 661/101/1 662/102/1 663/103/1 664/104/1
f 665/97/1 666/98/1 667/99/1 668/100/1
f 669/101/1 670/102/1 671/103/1 672/104/1
f 673/97/1 674/98/1 675/99/1 676/100/1
f 677/101/1 678/102/1 679/103/1 680/104/1
f 681/97/1 682/98/1 683/99/1 684/100/1
f 685/121/1 686/122/1 687/123/1 688/124/1
f 689/101/1 690/102/1 691/103/1 692/104/1
f 693/97/1 694/98/1 695/99/1 696/100/1
f 697/121/1 698/122/1 699/123/1 700/124/1
f 701/101/1 702/102/1 703/103/1 704/104/1
f 705/97/1 706/98/1 707/99/1 708/100/1
f 709/121/1 710/122/1 711/123/1 712/124/1
f 713/101/1 714/102/1 715/103/1 716/104/1
f 717/97/1 718/98/1 719/99/1 720/100/1
f 721/121/1 722/122/1 723/123/1 724/124/1
f 725/101/1 726/102/1 727/103/1 728/104/1
f 729/97/1 730/98/1 731/99/1 732/100/1
f 733/121/1 734/122/1 735/123/1 736/124/1
f 737/101/1 738/102/1 739/103/1 740/104/1
f 741/97/1 742/98/1 743/99/1 744/100/1
f 745/121/1 746/122/1 747/123/1 748/124/1
f 749/101/1 750/102/1 751/103/1 752/104/1
f 753/97/1 754/98/1 755/99/1 756/100/1
f 757/137/1 758/138/1 759/139/1 760/140/1
f 761/141/1 762/142/1 763/143/1 764/144/1
f 765/125/1 766/126/1 767/127/1 768/128/1

