# Tiled2Unity generated file. Do not modify by hand.
# Wavefront file for 'SnowyB_mesh_0004.obj'

# Vertices (Count = 724)
v -10 -35 0
v -11 -35 0
v -11 -34 0
v -10 -34 0
v -11 -35 0
v -12 -35 0
v -12 -34 0
v -11 -34 0
v -12 -35 0
v -13 -35 0
v -13 -34 0
v -12 -34 0
v -13 -35 0
v -14 -35 0
v -14 -34 0
v -13 -34 0
v -10 -36 0
v -11 -36 0
v -11 -35 0
v -10 -35 0
v -11 -36 0
v -12 -36 0
v -12 -35 0
v -11 -35 0
v -10 -37 0
v -11 -37 0
v -11 -36 0
v -10 -36 0
v -10 -38 0
v -11 -38 0
v -11 -37 0
v -10 -37 0
v -11 -38 0
v -12 -38 0
v -12 -37 0
v -11 -37 0
v -12 -38 0
v -13 -38 0
v -13 -37 0
v -12 -37 0
v -13 -38 0
v -14 -38 0
v -14 -37 0
v -13 -37 0
v -10 -39 0
v -11 -39 0
v -11 -38 0
v -10 -38 0
v -11 -39 0
v -12 -39 0
v -12 -38 0
v -11 -38 0
v -12 -39 0
v -13 -39 0
v -13 -38 0
v -12 -38 0
v -13 -39 0
v -14 -39 0
v -14 -38 0
v -13 -38 0
v -9 -47 0
v -10 -47 0
v -10 -46 0
v -9 -46 0
v -10 -47 0
v -11 -47 0
v -11 -46 0
v -10 -46 0
v -11 -47 0
v -12 -47 0
v -12 -46 0
v -11 -46 0
v -9 -48 0
v -10 -48 0
v -10 -47 0
v -9 -47 0
v -10 -48 0
v -11 -48 0
v -11 -47 0
v -10 -47 0
v -11 -48 0
v -12 -48 0
v -12 -47 0
v -11 -47 0
v -12 -48 0
v -13 -48 0
v -13 -47 0
v -12 -47 0
v -13 -48 0
v -14 -48 0
v -14 -47 0
v -13 -47 0
v -9 -49 0
v -10 -49 0
v -10 -48 0
v -9 -48 0
v -10 -49 0
v -11 -49 0
v -11 -48 0
v -10 -48 0
v -11 -49 0
v -12 -49 0
v -12 -48 0
v -11 -48 0
v -12 -49 0
v -13 -49 0
v -13 -48 0
v -12 -48 0
v -13 -49 0
v -14 -49 0
v -14 -48 0
v -13 -48 0
v -9 -50 0
v -10 -50 0
v -10 -49 0
v -9 -49 0
v -10 -50 0
v -11 -50 0
v -11 -49 0
v -10 -49 0
v -11 -50 0
v -12 -50 0
v -12 -49 0
v -11 -49 0
v -12 -50 0
v -13 -50 0
v -13 -49 0
v -12 -49 0
v -13 -50 0
v -14 -50 0
v -14 -49 0
v -13 -49 0
v -9 -51 0
v -10 -51 0
v -10 -50 0
v -9 -50 0
v -10 -51 0
v -11 -51 0
v -11 -50 0
v -10 -50 0
v -11 -51 0
v -12 -51 0
v -12 -50 0
v -11 -50 0
v -12 -51 0
v -13 -51 0
v -13 -50 0
v -12 -50 0
v -13 -51 0
v -14 -51 0
v -14 -50 0
v -13 -50 0
v -9 -52 0
v -10 -52 0
v -10 -51 0
v -9 -51 0
v -10 -52 0
v -11 -52 0
v -11 -51 0
v -10 -51 0
v -11 -52 0
v -12 -52 0
v -12 -51 0
v -11 -51 0
v -12 -52 0
v -13 -52 0
v -13 -51 0
v -12 -51 0
v -9 -53 0
v -10 -53 0
v -10 -52 0
v -9 -52 0
v -10 -53 0
v -11 -53 0
v -11 -52 0
v -10 -52 0
v -11 -53 0
v -12 -53 0
v -12 -52 0
v -11 -52 0
v -9 -54 0
v -10 -54 0
v -10 -53 0
v -9 -53 0
v -10 -54 0
v -11 -54 0
v -11 -53 0
v -10 -53 0
v -11 -54 0
v -12 -54 0
v -12 -53 0
v -11 -53 0
v -9 -55 0
v -10 -55 0
v -10 -54 0
v -9 -54 0
v -10 -55 0
v -11 -55 0
v -11 -54 0
v -10 -54 0
v -11 -55 0
v -12 -55 0
v -12 -54 0
v -11 -54 0
v -12 -55 0
v -13 -55 0
v -13 -54 0
v -12 -54 0
v -9 -56 0
v -10 -56 0
v -10 -55 0
v -9 -55 0
v -10 -56 0
v -11 -56 0
v -11 -55 0
v -10 -55 0
v -11 -56 0
v -12 -56 0
v -12 -55 0
v -11 -55 0
v -12 -56 0
v -13 -56 0
v -13 -55 0
v -12 -55 0
v -13 -56 0
v -14 -56 0
v -14 -55 0
v -13 -55 0
v -9 -57 0
v -10 -57 0
v -10 -56 0
v -9 -56 0
v -10 -57 0
v -11 -57 0
v -11 -56 0
v -10 -56 0
v -11 -57 0
v -12 -57 0
v -12 -56 0
v -11 -56 0
v -12 -57 0
v -13 -57 0
v -13 -56 0
v -12 -56 0
v -13 -57 0
v -14 -57 0
v -14 -56 0
v -13 -56 0
v -9 -58 0
v -10 -58 0
v -10 -57 0
v -9 -57 0
v -10 -58 0
v -11 -58 0
v -11 -57 0
v -10 -57 0
v -11 -58 0
v -12 -58 0
v -12 -57 0
v -11 -57 0
v -12 -58 0
v -13 -58 0
v -13 -57 0
v -12 -57 0
v -13 -58 0
v -14 -58 0
v -14 -57 0
v -13 -57 0
v -9 -59 0
v -10 -59 0
v -10 -58 0
v -9 -58 0
v -10 -59 0
v -11 -59 0
v -11 -58 0
v -10 -58 0
v -11 -59 0
v -12 -59 0
v -12 -58 0
v -11 -58 0
v -12 -59 0
v -13 -59 0
v -13 -58 0
v -12 -58 0
v -13 -59 0
v -14 -59 0
v -14 -58 0
v -13 -58 0
v -9 -60 0
v -10 -60 0
v -10 -59 0
v -9 -59 0
v -10 -60 0
v -11 -60 0
v -11 -59 0
v -10 -59 0
v -11 -60 0
v -12 -60 0
v -12 -59 0
v -11 -59 0
v -12 -60 0
v -13 -60 0
v -13 -59 0
v -12 -59 0
v -13 -60 0
v -14 -60 0
v -14 -59 0
v -13 -59 0
v -9 -61 0
v -10 -61 0
v -10 -60 0
v -9 -60 0
v -10 -61 0
v -11 -61 0
v -11 -60 0
v -10 -60 0
v -11 -61 0
v -12 -61 0
v -12 -60 0
v -11 -60 0
v -12 -61 0
v -13 -61 0
v -13 -60 0
v -12 -60 0
v -13 -61 0
v -14 -61 0
v -14 -60 0
v -13 -60 0
v -9 -62 0
v -10 -62 0
v -10 -61 0
v -9 -61 0
v -10 -62 0
v -11 -62 0
v -11 -61 0
v -10 -61 0
v -11 -62 0
v -12 -62 0
v -12 -61 0
v -11 -61 0
v -12 -62 0
v -13 -62 0
v -13 -61 0
v -12 -61 0
v -13 -62 0
v -14 -62 0
v -14 -61 0
v -13 -61 0
v -9 -63 0
v -10 -63 0
v -10 -62 0
v -9 -62 0
v -10 -63 0
v -11 -63 0
v -11 -62 0
v -10 -62 0
v -11 -63 0
v -12 -63 0
v -12 -62 0
v -11 -62 0
v -12 -63 0
v -13 -63 0
v -13 -62 0
v -12 -62 0
v -13 -63 0
v -14 -63 0
v -14 -62 0
v -13 -62 0
v -9 -64 0
v -10 -64 0
v -10 -63 0
v -9 -63 0
v -10 -64 0
v -11 -64 0
v -11 -63 0
v -10 -63 0
v -11 -64 0
v -12 -64 0
v -12 -63 0
v -11 -63 0
v -12 -64 0
v -13 -64 0
v -13 -63 0
v -12 -63 0
v -13 -64 0
v -14 -64 0
v -14 -63 0
v -13 -63 0
v -9 -65 0
v -10 -65 0
v -10 -64 0
v -9 -64 0
v -10 -65 0
v -11 -65 0
v -11 -64 0
v -10 -64 0
v -11 -65 0
v -12 -65 0
v -12 -64 0
v -11 -64 0
v -12 -65 0
v -13 -65 0
v -13 -64 0
v -12 -64 0
v -13 -65 0
v -14 -65 0
v -14 -64 0
v -13 -64 0
v -9 -66 0
v -10 -66 0
v -10 -65 0
v -9 -65 0
v -10 -66 0
v -11 -66 0
v -11 -65 0
v -10 -65 0
v -11 -66 0
v -12 -66 0
v -12 -65 0
v -11 -65 0
v -12 -66 0
v -13 -66 0
v -13 -65 0
v -12 -65 0
v -13 -66 0
v -14 -66 0
v -14 -65 0
v -13 -65 0
v -9 -67 0
v -10 -67 0
v -10 -66 0
v -9 -66 0
v -10 -67 0
v -11 -67 0
v -11 -66 0
v -10 -66 0
v -11 -67 0
v -12 -67 0
v -12 -66 0
v -11 -66 0
v -12 -67 0
v -13 -67 0
v -13 -66 0
v -12 -66 0
v -13 -67 0
v -14 -67 0
v -14 -66 0
v -13 -66 0
v -9 -68 0
v -10 -68 0
v -10 -67 0
v -9 -67 0
v -10 -68 0
v -11 -68 0
v -11 -67 0
v -10 -67 0
v -11 -68 0
v -12 -68 0
v -12 -67 0
v -11 -67 0
v -12 -68 0
v -13 -68 0
v -13 -67 0
v -12 -67 0
v -13 -68 0
v -14 -68 0
v -14 -67 0
v -13 -67 0
v -9 -69 0
v -10 -69 0
v -10 -68 0
v -9 -68 0
v -10 -69 0
v -11 -69 0
v -11 -68 0
v -10 -68 0
v -11 -69 0
v -12 -69 0
v -12 -68 0
v -11 -68 0
v -12 -69 0
v -13 -69 0
v -13 -68 0
v -12 -68 0
v -13 -69 0
v -14 -69 0
v -14 -68 0
v -13 -68 0
v -9 -70 0
v -10 -70 0
v -10 -69 0
v -9 -69 0
v -10 -70 0
v -11 -70 0
v -11 -69 0
v -10 -69 0
v -11 -70 0
v -12 -70 0
v -12 -69 0
v -11 -69 0
v -12 -70 0
v -13 -70 0
v -13 -69 0
v -12 -69 0
v -13 -70 0
v -14 -70 0
v -14 -69 0
v -13 -69 0
v -9 -71 0
v -10 -71 0
v -10 -70 0
v -9 -70 0
v -10 -71 0
v -11 -71 0
v -11 -70 0
v -10 -70 0
v -11 -71 0
v -12 -71 0
v -12 -70 0
v -11 -70 0
v -12 -71 0
v -13 -71 0
v -13 -70 0
v -12 -70 0
v -13 -71 0
v -14 -71 0
v -14 -70 0
v -13 -70 0
v -9 -72 0
v -10 -72 0
v -10 -71 0
v -9 -71 0
v -10 -72 0
v -11 -72 0
v -11 -71 0
v -10 -71 0
v -11 -72 0
v -12 -72 0
v -12 -71 0
v -11 -71 0
v -12 -72 0
v -13 -72 0
v -13 -71 0
v -12 -71 0
v -13 -72 0
v -14 -72 0
v -14 -71 0
v -13 -71 0
v -9 -73 0
v -10 -73 0
v -10 -72 0
v -9 -72 0
v -10 -73 0
v -11 -73 0
v -11 -72 0
v -10 -72 0
v -11 -73 0
v -12 -73 0
v -12 -72 0
v -11 -72 0
v -12 -73 0
v -13 -73 0
v -13 -72 0
v -12 -72 0
v -13 -73 0
v -14 -73 0
v -14 -72 0
v -13 -72 0
v -9 -74 0
v -10 -74 0
v -10 -73 0
v -9 -73 0
v -10 -74 0
v -11 -74 0
v -11 -73 0
v -10 -73 0
v -11 -74 0
v -12 -74 0
v -12 -73 0
v -11 -73 0
v -12 -74 0
v -13 -74 0
v -13 -73 0
v -12 -73 0
v -13 -74 0
v -14 -74 0
v -14 -73 0
v -13 -73 0
v -9 -75 0
v -10 -75 0
v -10 -74 0
v -9 -74 0
v -10 -75 0
v -11 -75 0
v -11 -74 0
v -10 -74 0
v -11 -75 0
v -12 -75 0
v -12 -74 0
v -11 -74 0
v -12 -75 0
v -13 -75 0
v -13 -74 0
v -12 -74 0
v -13 -75 0
v -14 -75 0
v -14 -74 0
v -13 -74 0
v -9 -76 0
v -10 -76 0
v -10 -75 0
v -9 -75 0
v -10 -76 0
v -11 -76 0
v -11 -75 0
v -10 -75 0
v -9 -77 0
v -10 -77 0
v -10 -76 0
v -9 -76 0
v -10 -77 0
v -11 -77 0
v -11 -76 0
v -10 -76 0
v -9 -78 0
v -10 -78 0
v -10 -77 0
v -9 -77 0
v -10 -78 0
v -11 -78 0
v -11 -77 0
v -10 -77 0
v -9 -79 0
v -10 -79 0
v -10 -78 0
v -9 -78 0
v -10 -79 0
v -11 -79 0
v -11 -78 0
v -10 -78 0
v -9 -80 0
v -10 -80 0
v -10 -79 0
v -9 -79 0
v -10 -80 0
v -11 -80 0
v -11 -79 0
v -10 -79 0
v -11 -80 0
v -12 -80 0
v -12 -79 0
v -11 -79 0
v -9 -81 0
v -10 -81 0
v -10 -80 0
v -9 -80 0
v -10 -81 0
v -11 -81 0
v -11 -80 0
v -10 -80 0
v -11 -81 0
v -12 -81 0
v -12 -80 0
v -11 -80 0
v -9 -82 0
v -10 -82 0
v -10 -81 0
v -9 -81 0
v -10 -82 0
v -11 -82 0
v -11 -81 0
v -10 -81 0
v -11 -82 0
v -12 -82 0
v -12 -81 0
v -11 -81 0
v -9 -83 0
v -10 -83 0
v -10 -82 0
v -9 -82 0
v -10 -83 0
v -11 -83 0
v -11 -82 0
v -10 -82 0
v -11 -83 0
v -12 -83 0
v -12 -82 0
v -11 -82 0
v -9 -84 0
v -10 -84 0
v -10 -83 0
v -9 -83 0
v -10 -84 0
v -11 -84 0
v -11 -83 0
v -10 -83 0
v -11 -84 0
v -12 -84 0
v -12 -83 0
v -11 -83 0
v -9 -85 0
v -10 -85 0
v -10 -84 0
v -9 -84 0
v -10 -85 0
v -11 -85 0
v -11 -84 0
v -10 -84 0
v -11 -85 0
v -12 -85 0
v -12 -84 0
v -11 -84 0
v -9 -86 0
v -10 -86 0
v -10 -85 0
v -9 -85 0
v -10 -86 0
v -11 -86 0
v -11 -85 0
v -10 -85 0
v -11 -86 0
v -12 -86 0
v -12 -85 0
v -11 -85 0

# Texture cooridinates (Count = 132)
vt 0.7125 0.640625
vt 0.7625 0.640625
vt 0.7625 0.703125
vt 0.7125 0.703125
vt 0.771875 0.640625
vt 0.821875 0.640625
vt 0.821875 0.703125
vt 0.771875 0.703125
vt 0.83125 0.640625
vt 0.88125 0.640625
vt 0.88125 0.703125
vt 0.83125 0.703125
vt 0.7125 0.5664063
vt 0.7625 0.5664063
vt 0.7625 0.6289063
vt 0.7125 0.6289063
vt 0.771875 0.5664063
vt 0.821875 0.5664063
vt 0.821875 0.6289063
vt 0.771875 0.6289063
vt 0.7125 0.4921875
vt 0.7625 0.4921875
vt 0.7625 0.5546875
vt 0.7125 0.5546875
vt 0.7125 0.4179688
vt 0.7625 0.4179688
vt 0.7625 0.4804688
vt 0.7125 0.4804688
vt 0.771875 0.4179688
vt 0.821875 0.4179688
vt 0.821875 0.4804688
vt 0.771875 0.4804688
vt 0.83125 0.4179688
vt 0.88125 0.4179688
vt 0.88125 0.4804688
vt 0.83125 0.4804688
vt 0.7125 0.34375
vt 0.7625 0.34375
vt 0.7625 0.40625
vt 0.7125 0.40625
vt 0.771875 0.34375
vt 0.821875 0.34375
vt 0.821875 0.40625
vt 0.771875 0.40625
vt 0.83125 0.34375
vt 0.88125 0.34375
vt 0.88125 0.40625
vt 0.83125 0.40625
vt 0.415625 0.7890625
vt 0.465625 0.7890625
vt 0.465625 0.8515625
vt 0.415625 0.8515625
vt 0.475 0.7890625
vt 0.525 0.7890625
vt 0.525 0.8515625
vt 0.475 0.8515625
vt 0.534375 0.7890625
vt 0.584375 0.7890625
vt 0.584375 0.8515625
vt 0.534375 0.8515625
vt 0.59375 0.7890625
vt 0.64375 0.7890625
vt 0.64375 0.8515625
vt 0.59375 0.8515625
vt 0.415625 0.7148438
vt 0.465625 0.7148438
vt 0.465625 0.7773438
vt 0.415625 0.7773438
vt 0.415625 0.640625
vt 0.465625 0.640625
vt 0.465625 0.703125
vt 0.415625 0.703125
vt 0.475 0.640625
vt 0.525 0.640625
vt 0.525 0.703125
vt 0.475 0.703125
vt 0.534375 0.640625
vt 0.584375 0.640625
vt 0.584375 0.703125
vt 0.534375 0.703125
vt 0.59375 0.640625
vt 0.64375 0.640625
vt 0.64375 0.703125
vt 0.59375 0.703125
vt 0.653125 0.2695313
vt 0.703125 0.2695313
vt 0.703125 0.3320313
vt 0.653125 0.3320313
vt 0.59375 0.2695313
vt 0.64375 0.2695313
vt 0.64375 0.3320313
vt 0.59375 0.3320313
vt 0.35625 0.2695313
vt 0.40625 0.2695313
vt 0.40625 0.3320313
vt 0.35625 0.3320313
vt 0.415625 0.2695313
vt 0.465625 0.2695313
vt 0.465625 0.3320313
vt 0.415625 0.3320313
vt 0.475 0.2695313
vt 0.525 0.2695313
vt 0.525 0.3320313
vt 0.475 0.3320313
vt 0.35625 0.1953125
vt 0.40625 0.1953125
vt 0.40625 0.2578125
vt 0.35625 0.2578125
vt 0.534375 0.2695313
vt 0.584375 0.2695313
vt 0.584375 0.3320313
vt 0.534375 0.3320313
vt 0.653125 0.1953125
vt 0.703125 0.1953125
vt 0.703125 0.2578125
vt 0.653125 0.2578125
vt 0.415625 0.1953125
vt 0.465625 0.1953125
vt 0.465625 0.2578125
vt 0.415625 0.2578125
vt 0.475 0.1953125
vt 0.525 0.1953125
vt 0.525 0.2578125
vt 0.475 0.2578125
vt 0.534375 0.1953125
vt 0.584375 0.1953125
vt 0.584375 0.2578125
vt 0.534375 0.2578125
vt 0.59375 0.1953125
vt 0.64375 0.1953125
vt 0.64375 0.2578125
vt 0.59375 0.2578125

# Normal
vn 0 0 -1

# Mesh description
g SnowyB_mesh_0004

# Faces
f 1/1/1 2/2/1 3/3/1 4/4/1
f 5/5/1 6/6/1 7/7/1 8/8/1
f 9/9/1 10/10/1 11/11/1 12/12/1
f 13/5/1 14/6/1 15/7/1 16/8/1
f 17/13/1 18/14/1 19/15/1 20/16/1
f 21/17/1 22/18/1 23/19/1 24/20/1
f 25/21/1 26/22/1 27/23/1 28/24/1
f 29/25/1 30/26/1 31/27/1 32/28/1
f 33/29/1 34/30/1 35/31/1 36/32/1
f 37/33/1 38/34/1 39/35/1 40/36/1
f 41/29/1 42/30/1 43/31/1 44/32/1
f 45/37/1 46/38/1 47/39/1 48/40/1
f 49/41/1 50/42/1 51/43/1 52/44/1
f 53/45/1 54/46/1 55/47/1 56/48/1
f 57/41/1 58/42/1 59/43/1 60/44/1
f 61/49/1 62/50/1 63/51/1 64/52/1
f 65/53/1 66/54/1 67/55/1 68/56/1
f 69/57/1 70/58/1 71/59/1 72/60/1
f 73/57/1 74/58/1 75/59/1 76/60/1
f 77/61/1 78/62/1 79/63/1 80/64/1
f 81/61/1 82/62/1 83/63/1 84/64/1
f 85/49/1 86/50/1 87/51/1 88/52/1
f 89/49/1 90/50/1 91/51/1 92/52/1
f 93/49/1 94/50/1 95/51/1 96/52/1
f 97/49/1 98/50/1 99/51/1 100/52/1
f 101/49/1 102/50/1 103/51/1 104/52/1
f 105/65/1 106/66/1 107/67/1 108/68/1
f 109/65/1 110/66/1 111/67/1 112/68/1
f 113/65/1 114/66/1 115/67/1 116/68/1
f 117/65/1 118/66/1 119/67/1 120/68/1
f 121/65/1 122/66/1 123/67/1 124/68/1
f 125/69/1 126/70/1 127/71/1 128/72/1
f 129/69/1 130/70/1 131/71/1 132/72/1
f 133/69/1 134/70/1 135/71/1 136/72/1
f 137/69/1 138/70/1 139/71/1 140/72/1
f 141/69/1 142/70/1 143/71/1 144/72/1
f 145/69/1 146/70/1 147/71/1 148/72/1
f 149/73/1 150/74/1 151/75/1 152/76/1
f 153/69/1 154/70/1 155/71/1 156/72/1
f 157/73/1 158/74/1 159/75/1 160/76/1
f 161/77/1 162/78/1 163/79/1 164/80/1
f 165/81/1 166/82/1 167/83/1 168/84/1
f 169/81/1 170/82/1 171/83/1 172/84/1
f 173/13/1 174/14/1 175/15/1 176/16/1
f 177/13/1 178/14/1 179/15/1 180/16/1
f 181/85/1 182/86/1 183/87/1 184/88/1
f 185/21/1 186/22/1 187/23/1 188/24/1
f 189/21/1 190/22/1 191/23/1 192/24/1
f 193/85/1 194/86/1 195/87/1 196/88/1
f 197/25/1 198/26/1 199/27/1 200/28/1
f 201/25/1 202/26/1 203/27/1 204/28/1
f 205/25/1 206/26/1 207/27/1 208/28/1
f 209/85/1 210/86/1 211/87/1 212/88/1
f 213/1/1 214/2/1 215/3/1 216/4/1
f 217/1/1 218/2/1 219/3/1 220/4/1
f 221/1/1 222/2/1 223/3/1 224/4/1
f 225/25/1 226/26/1 227/27/1 228/28/1
f 229/85/1 230/86/1 231/87/1 232/88/1
f 233/13/1 234/14/1 235/15/1 236/16/1
f 237/13/1 238/14/1 239/15/1 240/16/1
f 241/13/1 242/14/1 243/15/1 244/16/1
f 245/13/1 246/14/1 247/15/1 248/16/1
f 249/85/1 250/86/1 251/87/1 252/88/1
f 253/21/1 254/22/1 255/23/1 256/24/1
f 257/21/1 258/22/1 259/23/1 260/24/1
f 261/21/1 262/22/1 263/23/1 264/24/1
f 265/21/1 266/22/1 267/23/1 268/24/1
f 269/89/1 270/90/1 271/91/1 272/92/1
f 273/85/1 274/86/1 275/87/1 276/88/1
f 277/93/1 278/94/1 279/95/1 280/96/1
f 281/97/1 282/98/1 283/99/1 284/100/1
f 285/101/1 286/102/1 287/103/1 288/104/1
f 289/89/1 290/90/1 291/91/1 292/92/1
f 293/85/1 294/86/1 295/87/1 296/88/1
f 297/93/1 298/94/1 299/95/1 300/96/1
f 301/97/1 302/98/1 303/99/1 304/100/1
f 305/101/1 306/102/1 307/103/1 308/104/1
f 309/89/1 310/90/1 311/91/1 312/92/1
f 313/85/1 314/86/1 315/87/1 316/88/1
f 317/93/1 318/94/1 319/95/1 320/96/1
f 321/97/1 322/98/1 323/99/1 324/100/1
f 325/101/1 326/102/1 327/103/1 328/104/1
f 329/89/1 330/90/1 331/91/1 332/92/1
f 333/85/1 334/86/1 335/87/1 336/88/1
f 337/93/1 338/94/1 339/95/1 340/96/1
f 341/97/1 342/98/1 343/99/1 344/100/1
f 345/101/1 346/102/1 347/103/1 348/104/1
f 349/89/1 350/90/1 351/91/1 352/92/1
f 353/85/1 354/86/1 355/87/1 356/88/1
f 357/93/1 358/94/1 359/95/1 360/96/1
f 361/97/1 362/98/1 363/99/1 364/100/1
f 365/101/1 366/102/1 367/103/1 368/104/1
f 369/89/1 370/90/1 371/91/1 372/92/1
f 373/85/1 374/86/1 375/87/1 376/88/1
f 377/97/1 378/98/1 379/99/1 380/100/1
f 381/101/1 382/102/1 383/103/1 384/104/1
f 385/93/1 386/94/1 387/95/1 388/96/1
f 389/89/1 390/90/1 391/91/1 392/92/1
f 393/85/1 394/86/1 395/87/1 396/88/1
f 397/97/1 398/98/1 399/99/1 400/100/1
f 401/101/1 402/102/1 403/103/1 404/104/1
f 405/105/1 406/106/1 407/107/1 408/108/1
f 409/109/1 410/110/1 411/111/1 412/112/1
f 413/89/1 414/90/1 415/91/1 416/92/1
f 417/85/1 418/86/1 419/87/1 420/88/1
f 421/101/1 422/102/1 423/103/1 424/104/1
f 425/105/1 426/106/1 427/107/1 428/108/1
f 429/109/1 430/110/1 431/111/1 432/112/1
f 433/89/1 434/90/1 435/91/1 436/92/1
f 437/85/1 438/86/1 439/87/1 440/88/1
f 441/101/1 442/102/1 443/103/1 444/104/1
f 445/105/1 446/106/1 447/107/1 448/108/1
f 449/109/1 450/110/1 451/111/1 452/112/1
f 453/89/1 454/90/1 455/91/1 456/92/1
f 457/85/1 458/86/1 459/87/1 460/88/1
f 461/101/1 462/102/1 463/103/1 464/104/1
f 465/105/1 466/106/1 467/107/1 468/108/1
f 469/89/1 470/90/1 471/91/1 472/92/1
f 473/85/1 474/86/1 475/87/1 476/88/1
f 477/85/1 478/86/1 479/87/1 480/88/1
f 481/109/1 482/110/1 483/111/1 484/112/1
f 485/105/1 486/106/1 487/107/1 488/108/1
f 489/89/1 490/90/1 491/91/1 492/92/1
f 493/85/1 494/86/1 495/87/1 496/88/1
f 497/113/1 498/114/1 499/115/1 500/116/1
f 501/89/1 502/90/1 503/91/1 504/92/1
f 505/105/1 506/106/1 507/107/1 508/108/1
f 509/89/1 510/90/1 511/91/1 512/92/1
f 513/85/1 514/86/1 515/87/1 516/88/1
f 517/89/1 518/90/1 519/91/1 520/92/1
f 521/93/1 522/94/1 523/95/1 524/96/1
f 525/105/1 526/106/1 527/107/1 528/108/1
f 529/89/1 530/90/1 531/91/1 532/92/1
f 533/85/1 534/86/1 535/87/1 536/88/1
f 537/93/1 538/94/1 539/95/1 540/96/1
f 541/105/1 542/106/1 543/107/1 544/108/1
f 545/105/1 546/106/1 547/107/1 548/108/1
f 549/89/1 550/90/1 551/91/1 552/92/1
f 553/85/1 554/86/1 555/87/1 556/88/1
f 557/105/1 558/106/1 559/107/1 560/108/1
f 561/105/1 562/106/1 563/107/1 564/108/1
f 565/117/1 566/118/1 567/119/1 568/120/1
f 569/89/1 570/90/1 571/91/1 572/92/1
f 573/85/1 574/86/1 575/87/1 576/88/1
f 577/117/1 578/118/1 579/119/1 580/120/1
f 581/121/1 582/122/1 583/123/1 584/124/1
f 585/125/1 586/126/1 587/127/1 588/128/1
f 589/89/1 590/90/1 591/91/1 592/92/1
f 593/85/1 594/86/1 595/87/1 596/88/1
f 597/121/1 598/122/1 599/123/1 600/124/1
f 601/125/1 602/126/1 603/127/1 604/128/1
f 605/129/1 606/130/1 607/131/1 608/132/1
f 609/89/1 610/90/1 611/91/1 612/92/1
f 613/85/1 614/86/1 615/87/1 616/88/1
f 617/89/1 618/90/1 619/91/1 620/92/1
f 621/85/1 622/86/1 623/87/1 624/88/1
f 625/89/1 626/90/1 627/91/1 628/92/1
f 629/85/1 630/86/1 631/87/1 632/88/1
f 633/89/1 634/90/1 635/91/1 636/92/1
f 637/85/1 638/86/1 639/87/1 640/88/1
f 641/109/1 642/110/1 643/111/1 644/112/1
f 645/89/1 646/90/1 647/91/1 648/92/1
f 649/85/1 650/86/1 651/87/1 652/88/1
f 653/109/1 654/110/1 655/111/1 656/112/1
f 657/89/1 658/90/1 659/91/1 660/92/1
f 661/85/1 662/86/1 663/87/1 664/88/1
f 665/109/1 666/110/1 667/111/1 668/112/1
f 669/89/1 670/90/1 671/91/1 672/92/1
f 673/85/1 674/86/1 675/87/1 676/88/1
f 677/109/1 678/110/1 679/111/1 680/112/1
f 681/89/1 682/90/1 683/91/1 684/92/1
f 685/85/1 686/86/1 687/87/1 688/88/1
f 689/109/1 690/110/1 691/111/1 692/112/1
f 693/89/1 694/90/1 695/91/1 696/92/1
f 697/85/1 698/86/1 699/87/1 700/88/1
f 701/109/1 702/110/1 703/111/1 704/112/1
f 705/89/1 706/90/1 707/91/1 708/92/1
f 709/85/1 710/86/1 711/87/1 712/88/1
f 713/125/1 714/126/1 715/127/1 716/128/1
f 717/129/1 718/130/1 719/131/1 720/132/1
f 721/113/1 722/114/1 723/115/1 724/116/1

