# Tiled2Unity generated file. Do not modify by hand.
# Wavefront file for 'SnowyB_mesh_0005.obj'

# Vertices (Count = 808)
v -7 -27 0
v -9 -27 0
v -9 -25 0
v -7 -25 0
v -8 -27 0
v -10 -27 0
v -10 -25 0
v -8 -25 0
v -9 -27 0
v -11 -27 0
v -11 -25 0
v -9 -25 0
v -11 -27 0
v -13 -27 0
v -13 -25 0
v -11 -25 0
v -5 -28 0
v -7 -28 0
v -7 -26 0
v -5 -26 0
v -7 -28 0
v -9 -28 0
v -9 -26 0
v -7 -26 0
v -8 -28 0
v -10 -28 0
v -10 -26 0
v -8 -26 0
v -9 -28 0
v -11 -28 0
v -11 -26 0
v -9 -26 0
v -10 -28 0
v -12 -28 0
v -12 -26 0
v -10 -26 0
v -11 -28 0
v -13 -28 0
v -13 -26 0
v -11 -26 0
v -12 -28 0
v -14 -28 0
v -14 -26 0
v -12 -26 0
v -14 -28 0
v -16 -28 0
v -16 -26 0
v -14 -26 0
v -4 -29 0
v -6 -29 0
v -6 -27 0
v -4 -27 0
v -5 -29 0
v -7 -29 0
v -7 -27 0
v -5 -27 0
v -7 -29 0
v -9 -29 0
v -9 -27 0
v -7 -27 0
v -9 -29 0
v -11 -29 0
v -11 -27 0
v -9 -27 0
v -10 -29 0
v -12 -29 0
v -12 -27 0
v -10 -27 0
v -11 -29 0
v -13 -29 0
v -13 -27 0
v -11 -27 0
v -12 -29 0
v -14 -29 0
v -14 -27 0
v -12 -27 0
v -14 -29 0
v -16 -29 0
v -16 -27 0
v -14 -27 0
v -3 -30 0
v -5 -30 0
v -5 -28 0
v -3 -28 0
v -4 -30 0
v -6 -30 0
v -6 -28 0
v -4 -28 0
v -5 -30 0
v -7 -30 0
v -7 -28 0
v -5 -28 0
v -6 -30 0
v -8 -30 0
v -8 -28 0
v -6 -28 0
v -7 -30 0
v -9 -30 0
v -9 -28 0
v -7 -28 0
v -8 -30 0
v -10 -30 0
v -10 -28 0
v -8 -28 0
v -1 -31 0
v -3 -31 0
v -3 -29 0
v -1 -29 0
v -2 -31 0
v -4 -31 0
v -4 -29 0
v -2 -29 0
v -3 -31 0
v -5 -31 0
v -5 -29 0
v -3 -29 0
v -5 -31 0
v -7 -31 0
v -7 -29 0
v -5 -29 0
v -6 -31 0
v -8 -31 0
v -8 -29 0
v -6 -29 0
v -7 -31 0
v -9 -31 0
v -9 -29 0
v -7 -29 0
v -8 -31 0
v -10 -31 0
v -10 -29 0
v -8 -29 0
v -9 -31 0
v -11 -31 0
v -11 -29 0
v -9 -29 0
v -1 -32 0
v -3 -32 0
v -3 -30 0
v -1 -30 0
v -2 -32 0
v -4 -32 0
v -4 -30 0
v -2 -30 0
v -3 -32 0
v -5 -32 0
v -5 -30 0
v -3 -30 0
v -4 -32 0
v -6 -32 0
v -6 -30 0
v -4 -30 0
v -5 -32 0
v -7 -32 0
v -7 -30 0
v -5 -30 0
v -6 -32 0
v -8 -32 0
v -8 -30 0
v -6 -30 0
v -7 -32 0
v -9 -32 0
v -9 -30 0
v -7 -30 0
v -8 -32 0
v -10 -32 0
v -10 -30 0
v -8 -30 0
v -9 -32 0
v -11 -32 0
v -11 -30 0
v -9 -30 0
v -3 -33 0
v -5 -33 0
v -5 -31 0
v -3 -31 0
v -4 -33 0
v -6 -33 0
v -6 -31 0
v -4 -31 0
v -5 -33 0
v -7 -33 0
v -7 -31 0
v -5 -31 0
v -6 -33 0
v -8 -33 0
v -8 -31 0
v -6 -31 0
v -7 -33 0
v -9 -33 0
v -9 -31 0
v -7 -31 0
v -8 -33 0
v -10 -33 0
v -10 -31 0
v -8 -31 0
v -9 -33 0
v -11 -33 0
v -11 -31 0
v -9 -31 0
v -3 -34 0
v -5 -34 0
v -5 -32 0
v -3 -32 0
v -4 -34 0
v -6 -34 0
v -6 -32 0
v -4 -32 0
v -5 -34 0
v -7 -34 0
v -7 -32 0
v -5 -32 0
v -6 -34 0
v -8 -34 0
v -8 -32 0
v -6 -32 0
v -7 -34 0
v -9 -34 0
v -9 -32 0
v -7 -32 0
v -8 -34 0
v -10 -34 0
v -10 -32 0
v -8 -32 0
v -9 -34 0
v -11 -34 0
v -11 -32 0
v -9 -32 0
v -2 -35 0
v -4 -35 0
v -4 -33 0
v -2 -33 0
v -4 -35 0
v -6 -35 0
v -6 -33 0
v -4 -33 0
v -5 -35 0
v -7 -35 0
v -7 -33 0
v -5 -33 0
v -6 -35 0
v -8 -35 0
v -8 -33 0
v -6 -33 0
v -7 -35 0
v -9 -35 0
v -9 -33 0
v -7 -33 0
v -8 -35 0
v -10 -35 0
v -10 -33 0
v -8 -33 0
v -9 -35 0
v -11 -35 0
v -11 -33 0
v -9 -33 0
v -2 -36 0
v -4 -36 0
v -4 -34 0
v -2 -34 0
v -4 -36 0
v -6 -36 0
v -6 -34 0
v -4 -34 0
v -5 -36 0
v -7 -36 0
v -7 -34 0
v -5 -34 0
v -6 -36 0
v -8 -36 0
v -8 -34 0
v -6 -34 0
v -7 -36 0
v -9 -36 0
v -9 -34 0
v -7 -34 0
v -8 -36 0
v -10 -36 0
v -10 -34 0
v -8 -34 0
v -9 -36 0
v -11 -36 0
v -11 -34 0
v -9 -34 0
v -2 -37 0
v -4 -37 0
v -4 -35 0
v -2 -35 0
v -3 -37 0
v -5 -37 0
v -5 -35 0
v -3 -35 0
v -4 -37 0
v -6 -37 0
v -6 -35 0
v -4 -35 0
v -5 -37 0
v -7 -37 0
v -7 -35 0
v -5 -35 0
v -6 -37 0
v -8 -37 0
v -8 -35 0
v -6 -35 0
v -7 -37 0
v -9 -37 0
v -9 -35 0
v -7 -35 0
v -8 -37 0
v -10 -37 0
v -10 -35 0
v -8 -35 0
v -9 -37 0
v -11 -37 0
v -11 -35 0
v -9 -35 0
v -2 -38 0
v -4 -38 0
v -4 -36 0
v -2 -36 0
v -3 -38 0
v -5 -38 0
v -5 -36 0
v -3 -36 0
v -4 -38 0
v -6 -38 0
v -6 -36 0
v -4 -36 0
v -5 -38 0
v -7 -38 0
v -7 -36 0
v -5 -36 0
v -6 -38 0
v -8 -38 0
v -8 -36 0
v -6 -36 0
v -8 -38 0
v -10 -38 0
v -10 -36 0
v -8 -36 0
v -9 -38 0
v -11 -38 0
v -11 -36 0
v -9 -36 0
v -19 -38 0
v -21 -38 0
v -21 -36 0
v -19 -36 0
v -3 -39 0
v -5 -39 0
v -5 -37 0
v -3 -37 0
v -4 -39 0
v -6 -39 0
v -6 -37 0
v -4 -37 0
v -5 -39 0
v -7 -39 0
v -7 -37 0
v -5 -37 0
v -6 -39 0
v -8 -39 0
v -8 -37 0
v -6 -37 0
v -8 -39 0
v -10 -39 0
v -10 -37 0
v -8 -37 0
v -9 -39 0
v -11 -39 0
v -11 -37 0
v -9 -37 0
v -14 -39 0
v -16 -39 0
v -16 -37 0
v -14 -37 0
v -19 -39 0
v -21 -39 0
v -21 -37 0
v -19 -37 0
v -41 -39 0
v -43 -39 0
v -43 -37 0
v -41 -37 0
v -43 -39 0
v -45 -39 0
v -45 -37 0
v -43 -37 0
v -3 -40 0
v -5 -40 0
v -5 -38 0
v -3 -38 0
v -4 -40 0
v -6 -40 0
v -6 -38 0
v -4 -38 0
v -5 -40 0
v -7 -40 0
v -7 -38 0
v -5 -38 0
v -6 -40 0
v -8 -40 0
v -8 -38 0
v -6 -38 0
v -7 -40 0
v -9 -40 0
v -9 -38 0
v -7 -38 0
v -8 -40 0
v -10 -40 0
v -10 -38 0
v -8 -38 0
v -9 -40 0
v -11 -40 0
v -11 -38 0
v -9 -38 0
v -14 -40 0
v -16 -40 0
v -16 -38 0
v -14 -38 0
v -39 -40 0
v -41 -40 0
v -41 -38 0
v -39 -38 0
v -3 -41 0
v -5 -41 0
v -5 -39 0
v -3 -39 0
v -4 -41 0
v -6 -41 0
v -6 -39 0
v -4 -39 0
v -5 -41 0
v -7 -41 0
v -7 -39 0
v -5 -39 0
v -6 -41 0
v -8 -41 0
v -8 -39 0
v -6 -39 0
v -7 -41 0
v -9 -41 0
v -9 -39 0
v -7 -39 0
v -8 -41 0
v -10 -41 0
v -10 -39 0
v -8 -39 0
v -9 -41 0
v -11 -41 0
v -11 -39 0
v -9 -39 0
v -32 -41 0
v -34 -41 0
v -34 -39 0
v -32 -39 0
v -38 -41 0
v -40 -41 0
v -40 -39 0
v -38 -39 0
v -3 -42 0
v -5 -42 0
v -5 -40 0
v -3 -40 0
v -4 -42 0
v -6 -42 0
v -6 -40 0
v -4 -40 0
v -5 -42 0
v -7 -42 0
v -7 -40 0
v -5 -40 0
v -6 -42 0
v -8 -42 0
v -8 -40 0
v -6 -40 0
v -7 -42 0
v -9 -42 0
v -9 -40 0
v -7 -40 0
v -8 -42 0
v -10 -42 0
v -10 -40 0
v -8 -40 0
v -9 -42 0
v -11 -42 0
v -11 -40 0
v -9 -40 0
v -13 -42 0
v -15 -42 0
v -15 -40 0
v -13 -40 0
v -36 -42 0
v -38 -42 0
v -38 -40 0
v -36 -40 0
v -4 -43 0
v -6 -43 0
v -6 -41 0
v -4 -41 0
v -5 -43 0
v -7 -43 0
v -7 -41 0
v -5 -41 0
v -6 -43 0
v -8 -43 0
v -8 -41 0
v -6 -41 0
v -7 -43 0
v -9 -43 0
v -9 -41 0
v -7 -41 0
v -8 -43 0
v -10 -43 0
v -10 -41 0
v -8 -41 0
v -9 -43 0
v -11 -43 0
v -11 -41 0
v -9 -41 0
v -13 -43 0
v -15 -43 0
v -15 -41 0
v -13 -41 0
v -7 -44 0
v -9 -44 0
v -9 -42 0
v -7 -42 0
v -8 -44 0
v -10 -44 0
v -10 -42 0
v -8 -42 0
v -9 -44 0
v -11 -44 0
v -11 -42 0
v -9 -42 0
v -13 -44 0
v -15 -44 0
v -15 -42 0
v -13 -42 0
v -17 -50 0
v -19 -50 0
v -19 -48 0
v -17 -48 0
v -18 -50 0
v -20 -50 0
v -20 -48 0
v -18 -48 0
v -14 -51 0
v -16 -51 0
v -16 -49 0
v -14 -49 0
v -20 -51 0
v -22 -51 0
v -22 -49 0
v -20 -49 0
v -21 -51 0
v -23 -51 0
v -23 -49 0
v -21 -49 0
v -13 -52 0
v -15 -52 0
v -15 -50 0
v -13 -50 0
v -14 -52 0
v -16 -52 0
v -16 -50 0
v -14 -50 0
v -22 -52 0
v -24 -52 0
v -24 -50 0
v -22 -50 0
v -12 -53 0
v -14 -53 0
v -14 -51 0
v -12 -51 0
v -13 -53 0
v -15 -53 0
v -15 -51 0
v -13 -51 0
v -18 -53 0
v -20 -53 0
v -20 -51 0
v -18 -51 0
v -19 -53 0
v -21 -53 0
v -21 -51 0
v -19 -51 0
v -21 -53 0
v -23 -53 0
v -23 -51 0
v -21 -51 0
v -22 -53 0
v -24 -53 0
v -24 -51 0
v -22 -51 0
v -24 -53 0
v -26 -53 0
v -26 -51 0
v -24 -51 0
v -12 -54 0
v -14 -54 0
v -14 -52 0
v -12 -52 0
v -13 -54 0
v -15 -54 0
v -15 -52 0
v -13 -52 0
v -20 -54 0
v -22 -54 0
v -22 -52 0
v -20 -52 0
v -21 -54 0
v -23 -54 0
v -23 -52 0
v -21 -52 0
v -24 -54 0
v -26 -54 0
v -26 -52 0
v -24 -52 0
v -25 -54 0
v -27 -54 0
v -27 -52 0
v -25 -52 0
v -13 -55 0
v -15 -55 0
v -15 -53 0
v -13 -53 0
v -14 -55 0
v -16 -55 0
v -16 -53 0
v -14 -53 0
v -15 -55 0
v -17 -55 0
v -17 -53 0
v -15 -53 0
v -16 -55 0
v -18 -55 0
v -18 -53 0
v -16 -53 0
v -17 -55 0
v -19 -55 0
v -19 -53 0
v -17 -53 0
v -20 -55 0
v -22 -55 0
v -22 -53 0
v -20 -53 0
v -23 -55 0
v -25 -55 0
v -25 -53 0
v -23 -53 0
v -24 -55 0
v -26 -55 0
v -26 -53 0
v -24 -53 0
v -25 -55 0
v -27 -55 0
v -27 -53 0
v -25 -53 0
v -15 -56 0
v -17 -56 0
v -17 -54 0
v -15 -54 0
v -16 -56 0
v -18 -56 0
v -18 -54 0
v -16 -54 0
v -18 -56 0
v -20 -56 0
v -20 -54 0
v -18 -54 0
v -19 -56 0
v -21 -56 0
v -21 -54 0
v -19 -54 0
v -24 -56 0
v -26 -56 0
v -26 -54 0
v -24 -54 0
v -20 -57 0
v -22 -57 0
v -22 -55 0
v -20 -55 0
v -21 -57 0
v -23 -57 0
v -23 -55 0
v -21 -55 0
v -22 -57 0
v -24 -57 0
v -24 -55 0
v -22 -55 0
v -23 -58 0
v -25 -58 0
v -25 -56 0
v -23 -56 0
v -20 -59 0
v -22 -59 0
v -22 -57 0
v -20 -57 0
v -21 -59 0
v -23 -59 0
v -23 -57 0
v -21 -57 0
v -23 -59 0
v -25 -59 0
v -25 -57 0
v -23 -57 0
v -24 -59 0
v -26 -59 0
v -26 -57 0
v -24 -57 0
v -22 -60 0
v -24 -60 0
v -24 -58 0
v -22 -58 0
v -23 -60 0
v -25 -60 0
v -25 -58 0
v -23 -58 0
v -24 -60 0
v -26 -60 0
v -26 -58 0
v -24 -58 0
v -39 -61 0
v -41 -61 0
v -41 -59 0
v -39 -59 0
v -29 -62 0
v -31 -62 0
v -31 -60 0
v -29 -60 0
v -30 -62 0
v -32 -62 0
v -32 -60 0
v -30 -60 0
v -44 -62 0
v -46 -62 0
v -46 -60 0
v -44 -60 0
v -27 -63 0
v -29 -63 0
v -29 -61 0
v -27 -61 0
v -29 -63 0
v -31 -63 0
v -31 -61 0
v -29 -61 0
v -30 -63 0
v -32 -63 0
v -32 -61 0
v -30 -61 0
v -27 -64 0
v -29 -64 0
v -29 -62 0
v -27 -62 0
v -40 -64 0
v -42 -64 0
v -42 -62 0
v -40 -62 0
v -28 -65 0
v -30 -65 0
v -30 -63 0
v -28 -63 0
v -47 -65 0
v -49 -65 0
v -49 -63 0
v -47 -63 0
v -43 -67 0
v -45 -67 0
v -45 -65 0
v -43 -65 0
v -30 -68 0
v -32 -68 0
v -32 -66 0
v -30 -66 0
v -31 -69 0
v -33 -69 0
v -33 -67 0
v -31 -67 0
v -44 -69 0
v -46 -69 0
v -46 -67 0
v -44 -67 0
v -31 -70 0
v -33 -70 0
v -33 -68 0
v -31 -68 0
v -40 -70 0
v -42 -70 0
v -42 -68 0
v -40 -68 0
v -47 -70 0
v -49 -70 0
v -49 -68 0
v -47 -68 0
v -41 -72 0
v -43 -72 0
v -43 -70 0
v -41 -70 0
v -45 -73 0
v -47 -73 0
v -47 -71 0
v -45 -71 0
v -39 -74 0
v -41 -74 0
v -41 -72 0
v -39 -72 0

# Texture cooridinates (Count = 25)
vt 0.40625 0.4761904
vt 0.4375 0.4761904
vt 0.4375 0.4920635
vt 0.40625 0.4920635
vt 0.40625 0.4603174
vt 0.4375 0.4603174
vt 0.25 0.07936507
vt 0.28125 0.07936507
vt 0.28125 0.09523809
vt 0.25 0.09523809
vt 0.6875 0.6190476
vt 0.71875 0.6190476
vt 0.71875 0.6349206
vt 0.6875 0.6349206
vt 0.3125 0.09523809
vt 0.3125 0.1111111
vt 0.28125 0.1111111
vt 0.3125 0.4761904
vt 0.34375 0.4761904
vt 0.34375 0.4920635
vt 0.3125 0.4920635
vt 0.28125 0.4761904
vt 0.28125 0.4920635
vt 0.375 0.4761904
vt 0.375 0.4920635

# Normal
vn 0 0 -1

# Mesh description
g SnowyB_mesh_0005

# Faces
f 1/1/1 2/2/1 3/3/1 4/4/1
f 5/1/1 6/2/1 7/3/1 8/4/1
f 9/1/1 10/2/1 11/3/1 12/4/1
f 13/1/1 14/2/1 15/3/1 16/4/1
f 17/1/1 18/2/1 19/3/1 20/4/1
f 21/5/1 22/6/1 23/2/1 24/1/1
f 25/5/1 26/6/1 27/2/1 28/1/1
f 29/1/1 30/2/1 31/3/1 32/4/1
f 33/1/1 34/2/1 35/3/1 36/4/1
f 37/1/1 38/2/1 39/3/1 40/4/1
f 41/1/1 42/2/1 43/3/1 44/4/1
f 45/1/1 46/2/1 47/3/1 48/4/1
f 49/1/1 50/2/1 51/3/1 52/4/1
f 53/5/1 54/6/1 55/2/1 56/1/1
f 57/1/1 58/2/1 59/3/1 60/4/1
f 61/5/1 62/6/1 63/2/1 64/1/1
f 65/5/1 66/6/1 67/2/1 68/1/1
f 69/5/1 70/6/1 71/2/1 72/1/1
f 73/5/1 74/6/1 75/2/1 76/1/1
f 77/5/1 78/6/1 79/2/1 80/1/1
f 81/1/1 82/2/1 83/3/1 84/4/1
f 85/5/1 86/6/1 87/2/1 88/1/1
f 89/5/1 90/6/1 91/2/1 92/1/1
f 93/1/1 94/2/1 95/3/1 96/4/1
f 97/5/1 98/6/1 99/2/1 100/1/1
f 101/1/1 102/2/1 103/3/1 104/4/1
f 105/1/1 106/2/1 107/3/1 108/4/1
f 109/1/1 110/2/1 111/3/1 112/4/1
f 113/5/1 114/6/1 115/2/1 116/1/1
f 117/1/1 118/2/1 119/3/1 120/4/1
f 121/5/1 122/6/1 123/2/1 124/1/1
f 125/5/1 126/6/1 127/2/1 128/1/1
f 129/5/1 130/6/1 131/2/1 132/1/1
f 133/1/1 134/2/1 135/3/1 136/4/1
f 137/5/1 138/6/1 139/2/1 140/1/1
f 141/5/1 142/6/1 143/2/1 144/1/1
f 145/5/1 146/6/1 147/2/1 148/1/1
f 149/1/1 150/2/1 151/3/1 152/4/1
f 153/5/1 154/6/1 155/2/1 156/1/1
f 157/5/1 158/6/1 159/2/1 160/1/1
f 161/1/1 162/2/1 163/3/1 164/4/1
f 165/5/1 166/6/1 167/2/1 168/1/1
f 169/5/1 170/6/1 171/2/1 172/1/1
f 173/1/1 174/2/1 175/3/1 176/4/1
f 177/5/1 178/6/1 179/2/1 180/1/1
f 181/5/1 182/6/1 183/2/1 184/1/1
f 185/1/1 186/2/1 187/3/1 188/4/1
f 189/5/1 190/6/1 191/2/1 192/1/1
f 193/1/1 194/2/1 195/3/1 196/4/1
f 197/5/1 198/6/1 199/2/1 200/1/1
f 201/5/1 202/6/1 203/2/1 204/1/1
f 205/5/1 206/6/1 207/2/1 208/1/1
f 209/1/1 210/2/1 211/3/1 212/4/1
f 213/5/1 214/6/1 215/2/1 216/1/1
f 217/5/1 218/6/1 219/2/1 220/1/1
f 221/1/1 222/2/1 223/3/1 224/4/1
f 225/1/1 226/2/1 227/3/1 228/4/1
f 229/1/1 230/2/1 231/3/1 232/4/1
f 233/1/1 234/2/1 235/3/1 236/4/1
f 237/5/1 238/6/1 239/2/1 240/1/1
f 241/5/1 242/6/1 243/2/1 244/1/1
f 245/1/1 246/2/1 247/3/1 248/4/1
f 249/1/1 250/2/1 251/3/1 252/4/1
f 253/5/1 254/6/1 255/2/1 256/1/1
f 257/1/1 258/2/1 259/3/1 260/4/1
f 261/5/1 262/6/1 263/2/1 264/1/1
f 265/5/1 266/6/1 267/2/1 268/1/1
f 269/1/1 270/2/1 271/3/1 272/4/1
f 273/1/1 274/2/1 275/3/1 276/4/1
f 277/5/1 278/6/1 279/2/1 280/1/1
f 281/5/1 282/6/1 283/2/1 284/1/1
f 285/1/1 286/2/1 287/3/1 288/4/1
f 289/1/1 290/2/1 291/3/1 292/4/1
f 293/5/1 294/6/1 295/2/1 296/1/1
f 297/1/1 298/2/1 299/3/1 300/4/1
f 301/1/1 302/2/1 303/3/1 304/4/1
f 305/5/1 306/6/1 307/2/1 308/1/1
f 309/1/1 310/2/1 311/3/1 312/4/1
f 313/5/1 314/6/1 315/2/1 316/1/1
f 317/5/1 318/6/1 319/2/1 320/1/1
f 321/1/1 322/2/1 323/3/1 324/4/1
f 325/5/1 326/6/1 327/2/1 328/1/1
f 329/1/1 330/2/1 331/3/1 332/4/1
f 333/1/1 334/2/1 335/3/1 336/4/1
f 337/5/1 338/6/1 339/2/1 340/1/1
f 341/5/1 342/6/1 343/2/1 344/1/1
f 345/1/1 346/2/1 347/3/1 348/4/1
f 349/1/1 350/2/1 351/3/1 352/4/1
f 353/5/1 354/6/1 355/2/1 356/1/1
f 357/1/1 358/2/1 359/3/1 360/4/1
f 361/1/1 362/2/1 363/3/1 364/4/1
f 365/5/1 366/6/1 367/2/1 368/1/1
f 369/5/1 370/6/1 371/2/1 372/1/1
f 373/1/1 374/2/1 375/3/1 376/4/1
f 377/5/1 378/6/1 379/2/1 380/1/1
f 381/7/1 382/8/1 383/9/1 384/10/1
f 385/7/1 386/8/1 387/9/1 388/10/1
f 389/1/1 390/2/1 391/3/1 392/4/1
f 393/5/1 394/6/1 395/2/1 396/1/1
f 397/5/1 398/6/1 399/2/1 400/1/1
f 401/1/1 402/2/1 403/3/1 404/4/1
f 405/1/1 406/2/1 407/3/1 408/4/1
f 409/5/1 410/6/1 411/2/1 412/1/1
f 413/1/1 414/2/1 415/3/1 416/4/1
f 417/5/1 418/6/1 419/2/1 420/1/1
f 421/7/1 422/8/1 423/9/1 424/10/1
f 425/1/1 426/2/1 427/3/1 428/4/1
f 429/1/1 430/2/1 431/3/1 432/4/1
f 433/5/1 434/6/1 435/2/1 436/1/1
f 437/5/1 438/6/1 439/2/1 440/1/1
f 441/1/1 442/2/1 443/3/1 444/4/1
f 445/1/1 446/2/1 447/3/1 448/4/1
f 449/5/1 450/6/1 451/2/1 452/1/1
f 453/7/1 454/8/1 455/9/1 456/10/1
f 457/7/1 458/8/1 459/9/1 460/10/1
f 461/5/1 462/6/1 463/2/1 464/1/1
f 465/1/1 466/2/1 467/3/1 468/4/1
f 469/1/1 470/2/1 471/3/1 472/4/1
f 473/1/1 474/2/1 475/3/1 476/4/1
f 477/1/1 478/2/1 479/3/1 480/4/1
f 481/1/1 482/2/1 483/3/1 484/4/1
f 485/1/1 486/2/1 487/3/1 488/4/1
f 489/11/1 490/12/1 491/13/1 492/14/1
f 493/9/1 494/15/1 495/16/1 496/17/1
f 497/5/1 498/6/1 499/2/1 500/1/1
f 501/5/1 502/6/1 503/2/1 504/1/1
f 505/5/1 506/6/1 507/2/1 508/1/1
f 509/1/1 510/2/1 511/3/1 512/4/1
f 513/1/1 514/2/1 515/3/1 516/4/1
f 517/1/1 518/2/1 519/3/1 520/4/1
f 521/11/1 522/12/1 523/13/1 524/14/1
f 525/5/1 526/6/1 527/2/1 528/1/1
f 529/5/1 530/6/1 531/2/1 532/1/1
f 533/5/1 534/6/1 535/2/1 536/1/1
f 537/11/1 538/12/1 539/13/1 540/14/1
f 541/18/1 542/19/1 543/20/1 544/21/1
f 545/18/1 546/19/1 547/20/1 548/21/1
f 549/18/1 550/19/1 551/20/1 552/21/1
f 553/18/1 554/19/1 555/20/1 556/21/1
f 557/18/1 558/19/1 559/20/1 560/21/1
f 561/18/1 562/19/1 563/20/1 564/21/1
f 565/18/1 566/19/1 567/20/1 568/21/1
f 569/18/1 570/19/1 571/20/1 572/21/1
f 573/18/1 574/19/1 575/20/1 576/21/1
f 577/18/1 578/19/1 579/20/1 580/21/1
f 581/18/1 582/19/1 583/20/1 584/21/1
f 585/18/1 586/19/1 587/20/1 588/21/1
f 589/18/1 590/19/1 591/20/1 592/21/1
f 593/18/1 594/19/1 595/20/1 596/21/1
f 597/18/1 598/19/1 599/20/1 600/21/1
f 601/18/1 602/19/1 603/20/1 604/21/1
f 605/18/1 606/19/1 607/20/1 608/21/1
f 609/18/1 610/19/1 611/20/1 612/21/1
f 613/18/1 614/19/1 615/20/1 616/21/1
f 617/18/1 618/19/1 619/20/1 620/21/1
f 621/22/1 622/18/1 623/21/1 624/23/1
f 625/18/1 626/19/1 627/20/1 628/21/1
f 629/18/1 630/19/1 631/20/1 632/21/1
f 633/18/1 634/19/1 635/20/1 636/21/1
f 637/18/1 638/19/1 639/20/1 640/21/1
f 641/18/1 642/19/1 643/20/1 644/21/1
f 645/18/1 646/19/1 647/20/1 648/21/1
f 649/18/1 650/19/1 651/20/1 652/21/1
f 653/18/1 654/19/1 655/20/1 656/21/1
f 657/22/1 658/18/1 659/21/1 660/23/1
f 661/18/1 662/19/1 663/20/1 664/21/1
f 665/18/1 666/19/1 667/20/1 668/21/1
f 669/18/1 670/19/1 671/20/1 672/21/1
f 673/18/1 674/19/1 675/20/1 676/21/1
f 677/18/1 678/19/1 679/20/1 680/21/1
f 681/18/1 682/19/1 683/20/1 684/21/1
f 685/18/1 686/19/1 687/20/1 688/21/1
f 689/18/1 690/19/1 691/20/1 692/21/1
f 693/18/1 694/19/1 695/20/1 696/21/1
f 697/22/1 698/18/1 699/21/1 700/23/1
f 701/22/1 702/18/1 703/21/1 704/23/1
f 705/18/1 706/19/1 707/20/1 708/21/1
f 709/18/1 710/19/1 711/20/1 712/21/1
f 713/22/1 714/18/1 715/21/1 716/23/1
f 717/18/1 718/19/1 719/20/1 720/21/1
f 721/18/1 722/19/1 723/20/1 724/21/1
f 725/24/1 726/1/1 727/4/1 728/25/1
f 729/22/1 730/18/1 731/21/1 732/23/1
f 733/22/1 734/18/1 735/21/1 736/23/1
f 737/24/1 738/1/1 739/4/1 740/25/1
f 741/18/1 742/19/1 743/20/1 744/21/1
f 745/22/1 746/18/1 747/21/1 748/23/1
f 749/22/1 750/18/1 751/21/1 752/23/1
f 753/18/1 754/19/1 755/20/1 756/21/1
f 757/24/1 758/1/1 759/4/1 760/25/1
f 761/18/1 762/19/1 763/20/1 764/21/1
f 765/24/1 766/1/1 767/4/1 768/25/1
f 769/24/1 770/1/1 771/4/1 772/25/1
f 773/18/1 774/19/1 775/20/1 776/21/1
f 777/18/1 778/19/1 779/20/1 780/21/1
f 781/24/1 782/1/1 783/4/1 784/25/1
f 785/18/1 786/19/1 787/20/1 788/21/1
f 789/24/1 790/1/1 791/4/1 792/25/1
f 793/24/1 794/1/1 795/4/1 796/25/1
f 797/24/1 798/1/1 799/4/1 800/25/1
f 801/24/1 802/1/1 803/4/1 804/25/1
f 805/24/1 806/1/1 807/4/1 808/25/1

