# Tiled2Unity generated file. Do not modify by hand.
# Wavefront file for 'SnowyB_mesh_0008.obj'

# Vertices (Count = 20)
v -15 -37 0
v -17 -37 0
v -17 -35 0
v -15 -35 0
v -67 -42 0
v -69 -42 0
v -69 -40 0
v -67 -40 0
v -67 -44 0
v -69 -44 0
v -69 -42 0
v -67 -42 0
v -67 -46 0
v -69 -46 0
v -69 -44 0
v -67 -44 0
v -67 -48 0
v -69 -48 0
v -69 -46 0
v -67 -46 0

# Texture cooridinates (Count = 16)
vt 0.6923077 0.2272727
vt 0.7692308 0.2272727
vt 0.7692308 0.2727273
vt 0.6923077 0.2727273
vt 0.6923077 0.8181818
vt 0.7692308 0.8181818
vt 0.7692308 0.8636364
vt 0.6923077 0.8636364
vt 0.6923077 0.7727273
vt 0.7692308 0.7727273
vt 0.8461539 0.8181818
vt 0.9230769 0.8181818
vt 0.9230769 0.8636364
vt 0.8461539 0.8636364
vt 0.8461539 0.7727273
vt 0.9230769 0.7727273

# Normal
vn 0 0 -1

# Mesh description
g SnowyB_mesh_0008

# Faces
f 1/1/1 2/2/1 3/3/1 4/4/1
f 5/5/1 6/6/1 7/7/1 8/8/1
f 9/9/1 10/10/1 11/6/1 12/5/1
f 13/11/1 14/12/1 15/13/1 16/14/1
f 17/15/1 18/16/1 19/12/1 20/11/1

