# Tiled2Unity generated file. Do not modify by hand.
# Wavefront file for 'SnowyB_mesh_0006.obj'

# Vertices (Count = 788)
v -10 -35 0
v -11 -35 0
v -11 -34 0
v -10 -34 0
v -12 -35 0
v -13 -35 0
v -13 -34 0
v -12 -34 0
v -13 -35 0
v -14 -35 0
v -14 -34 0
v -13 -34 0
v -10 -36 0
v -11 -36 0
v -11 -35 0
v -10 -35 0
v -10 -37 0
v -11 -37 0
v -11 -36 0
v -10 -36 0
v -10 -38 0
v -11 -38 0
v -11 -37 0
v -10 -37 0
v -11 -38 0
v -12 -38 0
v -12 -37 0
v -11 -37 0
v -12 -38 0
v -13 -38 0
v -13 -37 0
v -12 -37 0
v -13 -38 0
v -14 -38 0
v -14 -37 0
v -13 -37 0
v -10 -39 0
v -11 -39 0
v -11 -38 0
v -10 -38 0
v -11 -39 0
v -12 -39 0
v -12 -38 0
v -11 -38 0
v -12 -39 0
v -13 -39 0
v -13 -38 0
v -12 -38 0
v -13 -39 0
v -14 -39 0
v -14 -38 0
v -13 -38 0
v -10 -40 0
v -11 -40 0
v -11 -39 0
v -10 -39 0
v -11 -40 0
v -12 -40 0
v -12 -39 0
v -11 -39 0
v -10 -41 0
v -11 -41 0
v -11 -40 0
v -10 -40 0
v -11 -41 0
v -12 -41 0
v -12 -40 0
v -11 -40 0
v -12 -41 0
v -13 -41 0
v -13 -40 0
v -12 -40 0
v -10 -42 0
v -11 -42 0
v -11 -41 0
v -10 -41 0
v -11 -42 0
v -12 -42 0
v -12 -41 0
v -11 -41 0
v -12 -42 0
v -13 -42 0
v -13 -41 0
v -12 -41 0
v -10 -43 0
v -11 -43 0
v -11 -42 0
v -10 -42 0
v -11 -43 0
v -12 -43 0
v -12 -42 0
v -11 -42 0
v -12 -43 0
v -13 -43 0
v -13 -42 0
v -12 -42 0
v -11 -44 0
v -12 -44 0
v -12 -43 0
v -11 -43 0
v -12 -44 0
v -13 -44 0
v -13 -43 0
v -12 -43 0
v -11 -45 0
v -12 -45 0
v -12 -44 0
v -11 -44 0
v -12 -45 0
v -13 -45 0
v -13 -44 0
v -12 -44 0
v -11 -46 0
v -12 -46 0
v -12 -45 0
v -11 -45 0
v -12 -46 0
v -13 -46 0
v -13 -45 0
v -12 -45 0
v -9 -47 0
v -10 -47 0
v -10 -46 0
v -9 -46 0
v -10 -47 0
v -11 -47 0
v -11 -46 0
v -10 -46 0
v -11 -47 0
v -12 -47 0
v -12 -46 0
v -11 -46 0
v -12 -47 0
v -13 -47 0
v -13 -46 0
v -12 -46 0
v -9 -48 0
v -10 -48 0
v -10 -47 0
v -9 -47 0
v -10 -48 0
v -11 -48 0
v -11 -47 0
v -10 -47 0
v -11 -48 0
v -12 -48 0
v -12 -47 0
v -11 -47 0
v -12 -48 0
v -13 -48 0
v -13 -47 0
v -12 -47 0
v -13 -48 0
v -14 -48 0
v -14 -47 0
v -13 -47 0
v -9 -49 0
v -10 -49 0
v -10 -48 0
v -9 -48 0
v -10 -49 0
v -11 -49 0
v -11 -48 0
v -10 -48 0
v -11 -49 0
v -12 -49 0
v -12 -48 0
v -11 -48 0
v -12 -49 0
v -13 -49 0
v -13 -48 0
v -12 -48 0
v -13 -49 0
v -14 -49 0
v -14 -48 0
v -13 -48 0
v -9 -50 0
v -10 -50 0
v -10 -49 0
v -9 -49 0
v -10 -50 0
v -11 -50 0
v -11 -49 0
v -10 -49 0
v -11 -50 0
v -12 -50 0
v -12 -49 0
v -11 -49 0
v -12 -50 0
v -13 -50 0
v -13 -49 0
v -12 -49 0
v -13 -50 0
v -14 -50 0
v -14 -49 0
v -13 -49 0
v -9 -51 0
v -10 -51 0
v -10 -50 0
v -9 -50 0
v -10 -51 0
v -11 -51 0
v -11 -50 0
v -10 -50 0
v -11 -51 0
v -12 -51 0
v -12 -50 0
v -11 -50 0
v -12 -51 0
v -13 -51 0
v -13 -50 0
v -12 -50 0
v -13 -51 0
v -14 -51 0
v -14 -50 0
v -13 -50 0
v -9 -52 0
v -10 -52 0
v -10 -51 0
v -9 -51 0
v -10 -52 0
v -11 -52 0
v -11 -51 0
v -10 -51 0
v -11 -52 0
v -12 -52 0
v -12 -51 0
v -11 -51 0
v -12 -52 0
v -13 -52 0
v -13 -51 0
v -12 -51 0
v -9 -53 0
v -10 -53 0
v -10 -52 0
v -9 -52 0
v -10 -53 0
v -11 -53 0
v -11 -52 0
v -10 -52 0
v -11 -53 0
v -12 -53 0
v -12 -52 0
v -11 -52 0
v -9 -54 0
v -10 -54 0
v -10 -53 0
v -9 -53 0
v -10 -54 0
v -11 -54 0
v -11 -53 0
v -10 -53 0
v -11 -54 0
v -12 -54 0
v -12 -53 0
v -11 -53 0
v -9 -55 0
v -10 -55 0
v -10 -54 0
v -9 -54 0
v -10 -55 0
v -11 -55 0
v -11 -54 0
v -10 -54 0
v -11 -55 0
v -12 -55 0
v -12 -54 0
v -11 -54 0
v -12 -55 0
v -13 -55 0
v -13 -54 0
v -12 -54 0
v -9 -56 0
v -10 -56 0
v -10 -55 0
v -9 -55 0
v -10 -56 0
v -11 -56 0
v -11 -55 0
v -10 -55 0
v -11 -56 0
v -12 -56 0
v -12 -55 0
v -11 -55 0
v -12 -56 0
v -13 -56 0
v -13 -55 0
v -12 -55 0
v -13 -56 0
v -14 -56 0
v -14 -55 0
v -13 -55 0
v -9 -57 0
v -10 -57 0
v -10 -56 0
v -9 -56 0
v -10 -57 0
v -11 -57 0
v -11 -56 0
v -10 -56 0
v -11 -57 0
v -12 -57 0
v -12 -56 0
v -11 -56 0
v -12 -57 0
v -13 -57 0
v -13 -56 0
v -12 -56 0
v -13 -57 0
v -14 -57 0
v -14 -56 0
v -13 -56 0
v -9 -58 0
v -10 -58 0
v -10 -57 0
v -9 -57 0
v -10 -58 0
v -11 -58 0
v -11 -57 0
v -10 -57 0
v -11 -58 0
v -12 -58 0
v -12 -57 0
v -11 -57 0
v -12 -58 0
v -13 -58 0
v -13 -57 0
v -12 -57 0
v -13 -58 0
v -14 -58 0
v -14 -57 0
v -13 -57 0
v -9 -59 0
v -10 -59 0
v -10 -58 0
v -9 -58 0
v -10 -59 0
v -11 -59 0
v -11 -58 0
v -10 -58 0
v -11 -59 0
v -12 -59 0
v -12 -58 0
v -11 -58 0
v -12 -59 0
v -13 -59 0
v -13 -58 0
v -12 -58 0
v -13 -59 0
v -14 -59 0
v -14 -58 0
v -13 -58 0
v -9 -60 0
v -10 -60 0
v -10 -59 0
v -9 -59 0
v -10 -60 0
v -11 -60 0
v -11 -59 0
v -10 -59 0
v -11 -60 0
v -12 -60 0
v -12 -59 0
v -11 -59 0
v -12 -60 0
v -13 -60 0
v -13 -59 0
v -12 -59 0
v -13 -60 0
v -14 -60 0
v -14 -59 0
v -13 -59 0
v -9 -61 0
v -10 -61 0
v -10 -60 0
v -9 -60 0
v -10 -61 0
v -11 -61 0
v -11 -60 0
v -10 -60 0
v -11 -61 0
v -12 -61 0
v -12 -60 0
v -11 -60 0
v -12 -61 0
v -13 -61 0
v -13 -60 0
v -12 -60 0
v -13 -61 0
v -14 -61 0
v -14 -60 0
v -13 -60 0
v -9 -62 0
v -10 -62 0
v -10 -61 0
v -9 -61 0
v -10 -62 0
v -11 -62 0
v -11 -61 0
v -10 -61 0
v -11 -62 0
v -12 -62 0
v -12 -61 0
v -11 -61 0
v -12 -62 0
v -13 -62 0
v -13 -61 0
v -12 -61 0
v -13 -62 0
v -14 -62 0
v -14 -61 0
v -13 -61 0
v -9 -63 0
v -10 -63 0
v -10 -62 0
v -9 -62 0
v -10 -63 0
v -11 -63 0
v -11 -62 0
v -10 -62 0
v -11 -63 0
v -12 -63 0
v -12 -62 0
v -11 -62 0
v -12 -63 0
v -13 -63 0
v -13 -62 0
v -12 -62 0
v -13 -63 0
v -14 -63 0
v -14 -62 0
v -13 -62 0
v -9 -64 0
v -10 -64 0
v -10 -63 0
v -9 -63 0
v -10 -64 0
v -11 -64 0
v -11 -63 0
v -10 -63 0
v -11 -64 0
v -12 -64 0
v -12 -63 0
v -11 -63 0
v -12 -64 0
v -13 -64 0
v -13 -63 0
v -12 -63 0
v -13 -64 0
v -14 -64 0
v -14 -63 0
v -13 -63 0
v -9 -65 0
v -10 -65 0
v -10 -64 0
v -9 -64 0
v -10 -65 0
v -11 -65 0
v -11 -64 0
v -10 -64 0
v -11 -65 0
v -12 -65 0
v -12 -64 0
v -11 -64 0
v -12 -65 0
v -13 -65 0
v -13 -64 0
v -12 -64 0
v -13 -65 0
v -14 -65 0
v -14 -64 0
v -13 -64 0
v -9 -66 0
v -10 -66 0
v -10 -65 0
v -9 -65 0
v -10 -66 0
v -11 -66 0
v -11 -65 0
v -10 -65 0
v -11 -66 0
v -12 -66 0
v -12 -65 0
v -11 -65 0
v -12 -66 0
v -13 -66 0
v -13 -65 0
v -12 -65 0
v -13 -66 0
v -14 -66 0
v -14 -65 0
v -13 -65 0
v -9 -67 0
v -10 -67 0
v -10 -66 0
v -9 -66 0
v -10 -67 0
v -11 -67 0
v -11 -66 0
v -10 -66 0
v -11 -67 0
v -12 -67 0
v -12 -66 0
v -11 -66 0
v -12 -67 0
v -13 -67 0
v -13 -66 0
v -12 -66 0
v -13 -67 0
v -14 -67 0
v -14 -66 0
v -13 -66 0
v -9 -68 0
v -10 -68 0
v -10 -67 0
v -9 -67 0
v -10 -68 0
v -11 -68 0
v -11 -67 0
v -10 -67 0
v -11 -68 0
v -12 -68 0
v -12 -67 0
v -11 -67 0
v -12 -68 0
v -13 -68 0
v -13 -67 0
v -12 -67 0
v -13 -68 0
v -14 -68 0
v -14 -67 0
v -13 -67 0
v -9 -69 0
v -10 -69 0
v -10 -68 0
v -9 -68 0
v -10 -69 0
v -11 -69 0
v -11 -68 0
v -10 -68 0
v -11 -69 0
v -12 -69 0
v -12 -68 0
v -11 -68 0
v -12 -69 0
v -13 -69 0
v -13 -68 0
v -12 -68 0
v -13 -69 0
v -14 -69 0
v -14 -68 0
v -13 -68 0
v -9 -70 0
v -10 -70 0
v -10 -69 0
v -9 -69 0
v -10 -70 0
v -11 -70 0
v -11 -69 0
v -10 -69 0
v -11 -70 0
v -12 -70 0
v -12 -69 0
v -11 -69 0
v -12 -70 0
v -13 -70 0
v -13 -69 0
v -12 -69 0
v -13 -70 0
v -14 -70 0
v -14 -69 0
v -13 -69 0
v -9 -71 0
v -10 -71 0
v -10 -70 0
v -9 -70 0
v -10 -71 0
v -11 -71 0
v -11 -70 0
v -10 -70 0
v -11 -71 0
v -12 -71 0
v -12 -70 0
v -11 -70 0
v -12 -71 0
v -13 -71 0
v -13 -70 0
v -12 -70 0
v -13 -71 0
v -14 -71 0
v -14 -70 0
v -13 -70 0
v -9 -72 0
v -10 -72 0
v -10 -71 0
v -9 -71 0
v -10 -72 0
v -11 -72 0
v -11 -71 0
v -10 -71 0
v -11 -72 0
v -12 -72 0
v -12 -71 0
v -11 -71 0
v -12 -72 0
v -13 -72 0
v -13 -71 0
v -12 -71 0
v -13 -72 0
v -14 -72 0
v -14 -71 0
v -13 -71 0
v -9 -73 0
v -10 -73 0
v -10 -72 0
v -9 -72 0
v -10 -73 0
v -11 -73 0
v -11 -72 0
v -10 -72 0
v -11 -73 0
v -12 -73 0
v -12 -72 0
v -11 -72 0
v -12 -73 0
v -13 -73 0
v -13 -72 0
v -12 -72 0
v -13 -73 0
v -14 -73 0
v -14 -72 0
v -13 -72 0
v -9 -74 0
v -10 -74 0
v -10 -73 0
v -9 -73 0
v -10 -74 0
v -11 -74 0
v -11 -73 0
v -10 -73 0
v -11 -74 0
v -12 -74 0
v -12 -73 0
v -11 -73 0
v -12 -74 0
v -13 -74 0
v -13 -73 0
v -12 -73 0
v -13 -74 0
v -14 -74 0
v -14 -73 0
v -13 -73 0
v -9 -75 0
v -10 -75 0
v -10 -74 0
v -9 -74 0
v -10 -75 0
v -11 -75 0
v -11 -74 0
v -10 -74 0
v -11 -75 0
v -12 -75 0
v -12 -74 0
v -11 -74 0
v -12 -75 0
v -13 -75 0
v -13 -74 0
v -12 -74 0
v -13 -75 0
v -14 -75 0
v -14 -74 0
v -13 -74 0
v -9 -76 0
v -10 -76 0
v -10 -75 0
v -9 -75 0
v -10 -76 0
v -11 -76 0
v -11 -75 0
v -10 -75 0
v -9 -77 0
v -10 -77 0
v -10 -76 0
v -9 -76 0
v -10 -77 0
v -11 -77 0
v -11 -76 0
v -10 -76 0
v -9 -78 0
v -10 -78 0
v -10 -77 0
v -9 -77 0
v -10 -78 0
v -11 -78 0
v -11 -77 0
v -10 -77 0
v -9 -79 0
v -10 -79 0
v -10 -78 0
v -9 -78 0
v -10 -79 0
v -11 -79 0
v -11 -78 0
v -10 -78 0
v -9 -80 0
v -10 -80 0
v -10 -79 0
v -9 -79 0
v -10 -80 0
v -11 -80 0
v -11 -79 0
v -10 -79 0
v -11 -80 0
v -12 -80 0
v -12 -79 0
v -11 -79 0
v -9 -81 0
v -10 -81 0
v -10 -80 0
v -9 -80 0
v -10 -81 0
v -11 -81 0
v -11 -80 0
v -10 -80 0
v -11 -81 0
v -12 -81 0
v -12 -80 0
v -11 -80 0
v -9 -82 0
v -10 -82 0
v -10 -81 0
v -9 -81 0
v -10 -82 0
v -11 -82 0
v -11 -81 0
v -10 -81 0
v -11 -82 0
v -12 -82 0
v -12 -81 0
v -11 -81 0
v -9 -83 0
v -10 -83 0
v -10 -82 0
v -9 -82 0
v -10 -83 0
v -11 -83 0
v -11 -82 0
v -10 -82 0
v -11 -83 0
v -12 -83 0
v -12 -82 0
v -11 -82 0
v -9 -84 0
v -10 -84 0
v -10 -83 0
v -9 -83 0
v -10 -84 0
v -11 -84 0
v -11 -83 0
v -10 -83 0
v -11 -84 0
v -12 -84 0
v -12 -83 0
v -11 -83 0
v -9 -85 0
v -10 -85 0
v -10 -84 0
v -9 -84 0
v -10 -85 0
v -11 -85 0
v -11 -84 0
v -10 -84 0
v -11 -85 0
v -12 -85 0
v -12 -84 0
v -11 -84 0
v -9 -86 0
v -10 -86 0
v -10 -85 0
v -9 -85 0
v -10 -86 0
v -11 -86 0
v -11 -85 0
v -10 -85 0
v -11 -86 0
v -12 -86 0
v -12 -85 0
v -11 -85 0

# Texture cooridinates (Count = 160)
vt 0.7125 0.640625
vt 0.7625 0.640625
vt 0.7625 0.703125
vt 0.7125 0.703125
vt 0.83125 0.640625
vt 0.88125 0.640625
vt 0.88125 0.703125
vt 0.83125 0.703125
vt 0.771875 0.640625
vt 0.821875 0.640625
vt 0.821875 0.703125
vt 0.771875 0.703125
vt 0.7125 0.5664063
vt 0.7625 0.5664063
vt 0.7625 0.6289063
vt 0.7125 0.6289063
vt 0.7125 0.4921875
vt 0.7625 0.4921875
vt 0.7625 0.5546875
vt 0.7125 0.5546875
vt 0.771875 0.5664063
vt 0.821875 0.5664063
vt 0.821875 0.6289063
vt 0.771875 0.6289063
vt 0.83125 0.5664063
vt 0.88125 0.5664063
vt 0.88125 0.6289063
vt 0.83125 0.6289063
vt 0.83125 0.4179688
vt 0.88125 0.4179688
vt 0.88125 0.4804688
vt 0.83125 0.4804688
vt 0.771875 0.4179688
vt 0.821875 0.4179688
vt 0.821875 0.4804688
vt 0.771875 0.4804688
vt 0.771875 0.4921875
vt 0.821875 0.4921875
vt 0.821875 0.5546875
vt 0.771875 0.5546875
vt 0.83125 0.4921875
vt 0.88125 0.4921875
vt 0.88125 0.5546875
vt 0.83125 0.5546875
vt 0.83125 0.34375
vt 0.88125 0.34375
vt 0.88125 0.40625
vt 0.83125 0.40625
vt 0.771875 0.34375
vt 0.821875 0.34375
vt 0.821875 0.40625
vt 0.771875 0.40625
vt 0.7125 0.7148438
vt 0.7625 0.7148438
vt 0.7625 0.7773438
vt 0.7125 0.7773438
vt 0.771875 0.7148438
vt 0.821875 0.7148438
vt 0.821875 0.7773438
vt 0.771875 0.7773438
vt 0.83125 0.7148438
vt 0.88125 0.7148438
vt 0.88125 0.7773438
vt 0.83125 0.7773438
vt 0.415625 0.7890625
vt 0.465625 0.7890625
vt 0.465625 0.8515625
vt 0.415625 0.8515625
vt 0.475 0.7890625
vt 0.525 0.7890625
vt 0.525 0.8515625
vt 0.475 0.8515625
vt 0.534375 0.7890625
vt 0.584375 0.7890625
vt 0.584375 0.8515625
vt 0.534375 0.8515625
vt 0.59375 0.7890625
vt 0.64375 0.7890625
vt 0.64375 0.8515625
vt 0.59375 0.8515625
vt 0.771875 0.2695313
vt 0.821875 0.2695313
vt 0.821875 0.3320313
vt 0.771875 0.3320313
vt 0.83125 0.2695313
vt 0.88125 0.2695313
vt 0.88125 0.3320313
vt 0.83125 0.3320313
vt 0.415625 0.7148438
vt 0.465625 0.7148438
vt 0.465625 0.7773438
vt 0.415625 0.7773438
vt 0.415625 0.640625
vt 0.465625 0.640625
vt 0.465625 0.703125
vt 0.415625 0.703125
vt 0.475 0.640625
vt 0.525 0.640625
vt 0.525 0.703125
vt 0.475 0.703125
vt 0.534375 0.640625
vt 0.584375 0.640625
vt 0.584375 0.703125
vt 0.534375 0.703125
vt 0.59375 0.640625
vt 0.64375 0.640625
vt 0.64375 0.703125
vt 0.59375 0.703125
vt 0.653125 0.2695313
vt 0.703125 0.2695313
vt 0.703125 0.3320313
vt 0.653125 0.3320313
vt 0.7125 0.4179688
vt 0.7625 0.4179688
vt 0.7625 0.4804688
vt 0.7125 0.4804688
vt 0.59375 0.2695313
vt 0.64375 0.2695313
vt 0.64375 0.3320313
vt 0.59375 0.3320313
vt 0.35625 0.2695313
vt 0.40625 0.2695313
vt 0.40625 0.3320313
vt 0.35625 0.3320313
vt 0.415625 0.2695313
vt 0.465625 0.2695313
vt 0.465625 0.3320313
vt 0.415625 0.3320313
vt 0.475 0.2695313
vt 0.525 0.2695313
vt 0.525 0.3320313
vt 0.475 0.3320313
vt 0.35625 0.1953125
vt 0.40625 0.1953125
vt 0.40625 0.2578125
vt 0.35625 0.2578125
vt 0.534375 0.2695313
vt 0.584375 0.2695313
vt 0.584375 0.3320313
vt 0.534375 0.3320313
vt 0.653125 0.1953125
vt 0.703125 0.1953125
vt 0.703125 0.2578125
vt 0.653125 0.2578125
vt 0.415625 0.1953125
vt 0.465625 0.1953125
vt 0.465625 0.2578125
vt 0.415625 0.2578125
vt 0.475 0.1953125
vt 0.525 0.1953125
vt 0.525 0.2578125
vt 0.475 0.2578125
vt 0.534375 0.1953125
vt 0.584375 0.1953125
vt 0.584375 0.2578125
vt 0.534375 0.2578125
vt 0.59375 0.1953125
vt 0.64375 0.1953125
vt 0.64375 0.2578125
vt 0.59375 0.2578125

# Normal
vn 0 0 -1

# Mesh description
g SnowyB_mesh_0006

# Faces
f 1/1/1 2/2/1 3/3/1 4/4/1
f 5/5/1 6/6/1 7/7/1 8/8/1
f 9/9/1 10/10/1 11/11/1 12/12/1
f 13/13/1 14/14/1 15/15/1 16/16/1
f 17/17/1 18/18/1 19/19/1 20/20/1
f 21/21/1 22/22/1 23/23/1 24/24/1
f 25/25/1 26/26/1 27/27/1 28/28/1
f 29/29/1 30/30/1 31/31/1 32/32/1
f 33/33/1 34/34/1 35/35/1 36/36/1
f 37/37/1 38/38/1 39/39/1 40/40/1
f 41/41/1 42/42/1 43/43/1 44/44/1
f 45/45/1 46/46/1 47/47/1 48/48/1
f 49/49/1 50/50/1 51/51/1 52/52/1
f 53/33/1 54/34/1 55/35/1 56/36/1
f 57/29/1 58/30/1 59/31/1 60/32/1
f 61/53/1 62/54/1 63/55/1 64/56/1
f 65/57/1 66/58/1 67/59/1 68/60/1
f 69/61/1 70/62/1 71/63/1 72/64/1
f 73/1/1 74/2/1 75/3/1 76/4/1
f 77/9/1 78/10/1 79/11/1 80/12/1
f 81/5/1 82/6/1 83/7/1 84/8/1
f 85/13/1 86/14/1 87/15/1 88/16/1
f 89/21/1 90/22/1 91/23/1 92/24/1
f 93/25/1 94/26/1 95/27/1 96/28/1
f 97/21/1 98/22/1 99/23/1 100/24/1
f 101/25/1 102/26/1 103/27/1 104/28/1
f 105/37/1 106/38/1 107/39/1 108/40/1
f 109/41/1 110/42/1 111/43/1 112/44/1
f 113/33/1 114/34/1 115/35/1 116/36/1
f 117/29/1 118/30/1 119/31/1 120/32/1
f 121/65/1 122/66/1 123/67/1 124/68/1
f 125/69/1 126/70/1 127/71/1 128/72/1
f 129/49/1 130/50/1 131/51/1 132/52/1
f 133/45/1 134/46/1 135/47/1 136/48/1
f 137/73/1 138/74/1 139/75/1 140/76/1
f 141/77/1 142/78/1 143/79/1 144/80/1
f 145/81/1 146/82/1 147/83/1 148/84/1
f 149/85/1 150/86/1 151/87/1 152/88/1
f 153/65/1 154/66/1 155/67/1 156/68/1
f 157/65/1 158/66/1 159/67/1 160/68/1
f 161/65/1 162/66/1 163/67/1 164/68/1
f 165/81/1 166/82/1 167/83/1 168/84/1
f 169/85/1 170/86/1 171/87/1 172/88/1
f 173/89/1 174/90/1 175/91/1 176/92/1
f 177/89/1 178/90/1 179/91/1 180/92/1
f 181/89/1 182/90/1 183/91/1 184/92/1
f 185/89/1 186/90/1 187/91/1 188/92/1
f 189/93/1 190/94/1 191/95/1 192/96/1
f 193/93/1 194/94/1 195/95/1 196/96/1
f 197/93/1 198/94/1 199/95/1 200/96/1
f 201/93/1 202/94/1 203/95/1 204/96/1
f 205/93/1 206/94/1 207/95/1 208/96/1
f 209/93/1 210/94/1 211/95/1 212/96/1
f 213/97/1 214/98/1 215/99/1 216/100/1
f 217/93/1 218/94/1 219/95/1 220/96/1
f 221/97/1 222/98/1 223/99/1 224/100/1
f 225/101/1 226/102/1 227/103/1 228/104/1
f 229/105/1 230/106/1 231/107/1 232/108/1
f 233/105/1 234/106/1 235/107/1 236/108/1
f 237/13/1 238/14/1 239/15/1 240/16/1
f 241/13/1 242/14/1 243/15/1 244/16/1
f 245/109/1 246/110/1 247/111/1 248/112/1
f 249/17/1 250/18/1 251/19/1 252/20/1
f 253/17/1 254/18/1 255/19/1 256/20/1
f 257/109/1 258/110/1 259/111/1 260/112/1
f 261/113/1 262/114/1 263/115/1 264/116/1
f 265/113/1 266/114/1 267/115/1 268/116/1
f 269/113/1 270/114/1 271/115/1 272/116/1
f 273/109/1 274/110/1 275/111/1 276/112/1
f 277/1/1 278/2/1 279/3/1 280/4/1
f 281/1/1 282/2/1 283/3/1 284/4/1
f 285/1/1 286/2/1 287/3/1 288/4/1
f 289/113/1 290/114/1 291/115/1 292/116/1
f 293/109/1 294/110/1 295/111/1 296/112/1
f 297/13/1 298/14/1 299/15/1 300/16/1
f 301/13/1 302/14/1 303/15/1 304/16/1
f 305/13/1 306/14/1 307/15/1 308/16/1
f 309/13/1 310/14/1 311/15/1 312/16/1
f 313/109/1 314/110/1 315/111/1 316/112/1
f 317/17/1 318/18/1 319/19/1 320/20/1
f 321/17/1 322/18/1 323/19/1 324/20/1
f 325/17/1 326/18/1 327/19/1 328/20/1
f 329/17/1 330/18/1 331/19/1 332/20/1
f 333/117/1 334/118/1 335/119/1 336/120/1
f 337/109/1 338/110/1 339/111/1 340/112/1
f 341/121/1 342/122/1 343/123/1 344/124/1
f 345/125/1 346/126/1 347/127/1 348/128/1
f 349/129/1 350/130/1 351/131/1 352/132/1
f 353/117/1 354/118/1 355/119/1 356/120/1
f 357/109/1 358/110/1 359/111/1 360/112/1
f 361/121/1 362/122/1 363/123/1 364/124/1
f 365/125/1 366/126/1 367/127/1 368/128/1
f 369/129/1 370/130/1 371/131/1 372/132/1
f 373/117/1 374/118/1 375/119/1 376/120/1
f 377/109/1 378/110/1 379/111/1 380/112/1
f 381/121/1 382/122/1 383/123/1 384/124/1
f 385/125/1 386/126/1 387/127/1 388/128/1
f 389/129/1 390/130/1 391/131/1 392/132/1
f 393/117/1 394/118/1 395/119/1 396/120/1
f 397/109/1 398/110/1 399/111/1 400/112/1
f 401/121/1 402/122/1 403/123/1 404/124/1
f 405/125/1 406/126/1 407/127/1 408/128/1
f 409/129/1 410/130/1 411/131/1 412/132/1
f 413/117/1 414/118/1 415/119/1 416/120/1
f 417/109/1 418/110/1 419/111/1 420/112/1
f 421/121/1 422/122/1 423/123/1 424/124/1
f 425/125/1 426/126/1 427/127/1 428/128/1
f 429/129/1 430/130/1 431/131/1 432/132/1
f 433/117/1 434/118/1 435/119/1 436/120/1
f 437/109/1 438/110/1 439/111/1 440/112/1
f 441/125/1 442/126/1 443/127/1 444/128/1
f 445/129/1 446/130/1 447/131/1 448/132/1
f 449/121/1 450/122/1 451/123/1 452/124/1
f 453/117/1 454/118/1 455/119/1 456/120/1
f 457/109/1 458/110/1 459/111/1 460/112/1
f 461/125/1 462/126/1 463/127/1 464/128/1
f 465/129/1 466/130/1 467/131/1 468/132/1
f 469/133/1 470/134/1 471/135/1 472/136/1
f 473/137/1 474/138/1 475/139/1 476/140/1
f 477/117/1 478/118/1 479/119/1 480/120/1
f 481/109/1 482/110/1 483/111/1 484/112/1
f 485/129/1 486/130/1 487/131/1 488/132/1
f 489/133/1 490/134/1 491/135/1 492/136/1
f 493/137/1 494/138/1 495/139/1 496/140/1
f 497/117/1 498/118/1 499/119/1 500/120/1
f 501/109/1 502/110/1 503/111/1 504/112/1
f 505/129/1 506/130/1 507/131/1 508/132/1
f 509/133/1 510/134/1 511/135/1 512/136/1
f 513/137/1 514/138/1 515/139/1 516/140/1
f 517/117/1 518/118/1 519/119/1 520/120/1
f 521/109/1 522/110/1 523/111/1 524/112/1
f 525/129/1 526/130/1 527/131/1 528/132/1
f 529/133/1 530/134/1 531/135/1 532/136/1
f 533/117/1 534/118/1 535/119/1 536/120/1
f 537/109/1 538/110/1 539/111/1 540/112/1
f 541/109/1 542/110/1 543/111/1 544/112/1
f 545/137/1 546/138/1 547/139/1 548/140/1
f 549/133/1 550/134/1 551/135/1 552/136/1
f 553/117/1 554/118/1 555/119/1 556/120/1
f 557/109/1 558/110/1 559/111/1 560/112/1
f 561/141/1 562/142/1 563/143/1 564/144/1
f 565/117/1 566/118/1 567/119/1 568/120/1
f 569/133/1 570/134/1 571/135/1 572/136/1
f 573/117/1 574/118/1 575/119/1 576/120/1
f 577/109/1 578/110/1 579/111/1 580/112/1
f 581/117/1 582/118/1 583/119/1 584/120/1
f 585/121/1 586/122/1 587/123/1 588/124/1
f 589/133/1 590/134/1 591/135/1 592/136/1
f 593/117/1 594/118/1 595/119/1 596/120/1
f 597/109/1 598/110/1 599/111/1 600/112/1
f 601/121/1 602/122/1 603/123/1 604/124/1
f 605/133/1 606/134/1 607/135/1 608/136/1
f 609/133/1 610/134/1 611/135/1 612/136/1
f 613/117/1 614/118/1 615/119/1 616/120/1
f 617/109/1 618/110/1 619/111/1 620/112/1
f 621/133/1 622/134/1 623/135/1 624/136/1
f 625/133/1 626/134/1 627/135/1 628/136/1
f 629/145/1 630/146/1 631/147/1 632/148/1
f 633/117/1 634/118/1 635/119/1 636/120/1
f 637/109/1 638/110/1 639/111/1 640/112/1
f 641/145/1 642/146/1 643/147/1 644/148/1
f 645/149/1 646/150/1 647/151/1 648/152/1
f 649/153/1 650/154/1 651/155/1 652/156/1
f 653/117/1 654/118/1 655/119/1 656/120/1
f 657/109/1 658/110/1 659/111/1 660/112/1
f 661/149/1 662/150/1 663/151/1 664/152/1
f 665/153/1 666/154/1 667/155/1 668/156/1
f 669/157/1 670/158/1 671/159/1 672/160/1
f 673/117/1 674/118/1 675/119/1 676/120/1
f 677/109/1 678/110/1 679/111/1 680/112/1
f 681/117/1 682/118/1 683/119/1 684/120/1
f 685/109/1 686/110/1 687/111/1 688/112/1
f 689/117/1 690/118/1 691/119/1 692/120/1
f 693/109/1 694/110/1 695/111/1 696/112/1
f 697/117/1 698/118/1 699/119/1 700/120/1
f 701/109/1 702/110/1 703/111/1 704/112/1
f 705/137/1 706/138/1 707/139/1 708/140/1
f 709/117/1 710/118/1 711/119/1 712/120/1
f 713/109/1 714/110/1 715/111/1 716/112/1
f 717/137/1 718/138/1 719/139/1 720/140/1
f 721/117/1 722/118/1 723/119/1 724/120/1
f 725/109/1 726/110/1 727/111/1 728/112/1
f 729/137/1 730/138/1 731/139/1 732/140/1
f 733/117/1 734/118/1 735/119/1 736/120/1
f 737/109/1 738/110/1 739/111/1 740/112/1
f 741/137/1 742/138/1 743/139/1 744/140/1
f 745/117/1 746/118/1 747/119/1 748/120/1
f 749/109/1 750/110/1 751/111/1 752/112/1
f 753/137/1 754/138/1 755/139/1 756/140/1
f 757/117/1 758/118/1 759/119/1 760/120/1
f 761/109/1 762/110/1 763/111/1 764/112/1
f 765/137/1 766/138/1 767/139/1 768/140/1
f 769/117/1 770/118/1 771/119/1 772/120/1
f 773/109/1 774/110/1 775/111/1 776/112/1
f 777/153/1 778/154/1 779/155/1 780/156/1
f 781/157/1 782/158/1 783/159/1 784/160/1
f 785/141/1 786/142/1 787/143/1 788/144/1

