# Tiled2Unity generated file. Do not modify by hand.
# Wavefront file for 'Snowy_Graveyard_mesh_0004.obj'

# Vertices (Count = 48)
v -51 -36 0
v -53 -36 0
v -53 -34 0
v -51 -34 0
v -50 -38 0
v -52 -38 0
v -52 -36 0
v -50 -36 0
v -52 -38 0
v -54 -38 0
v -54 -36 0
v -52 -36 0
v -54 -38 0
v -56 -38 0
v -56 -36 0
v -54 -36 0
v -50 -39 0
v -52 -39 0
v -52 -37 0
v -50 -37 0
v -52 -39 0
v -54 -39 0
v -54 -37 0
v -52 -37 0
v -39 -42 0
v -41 -42 0
v -41 -40 0
v -39 -40 0
v -39 -44 0
v -41 -44 0
v -41 -42 0
v -39 -42 0
v -56 -44 0
v -58 -44 0
v -58 -42 0
v -56 -42 0
v -35 -52 0
v -37 -52 0
v -37 -50 0
v -35 -50 0
v -39 -52 0
v -41 -52 0
v -41 -50 0
v -39 -50 0
v -38 -54 0
v -40 -54 0
v -40 -52 0
v -38 -52 0

# Texture cooridinates (Count = 8)
vt 0.28125 0.4761904
vt 0.3125 0.4761904
vt 0.3125 0.4920635
vt 0.28125 0.4920635
vt 0.09375 0.4920635
vt 0.125 0.4920635
vt 0.125 0.5079365
vt 0.09375 0.5079365

# Normal
vn 0 0 -1

# Mesh description
g Snowy_Graveyard_mesh_0004

# Faces
f 1/1/1 2/2/1 3/3/1 4/4/1
f 5/1/1 6/2/1 7/3/1 8/4/1
f 9/5/1 10/6/1 11/7/1 12/8/1
f 13/1/1 14/2/1 15/3/1 16/4/1
f 17/1/1 18/2/1 19/3/1 20/4/1
f 21/1/1 22/2/1 23/3/1 24/4/1
f 25/1/1 26/2/1 27/3/1 28/4/1
f 29/1/1 30/2/1 31/3/1 32/4/1
f 33/1/1 34/2/1 35/3/1 36/4/1
f 37/1/1 38/2/1 39/3/1 40/4/1
f 41/1/1 42/2/1 43/3/1 44/4/1
f 45/1/1 46/2/1 47/3/1 48/4/1

