# Tiled2Unity generated file. Do not modify by hand.
# Wavefront file for 'Snowy_Graveyard_mesh_0006.obj'

# Vertices (Count = 16)
v -51 -34 0
v -53 -34 0
v -53 -32 0
v -51 -32 0
v -53 -34 0
v -55 -34 0
v -55 -32 0
v -53 -32 0
v -51 -36 0
v -53 -36 0
v -53 -34 0
v -51 -34 0
v -53 -36 0
v -55 -36 0
v -55 -34 0
v -53 -34 0

# Texture cooridinates (Count = 9)
vt 0.0625 0.2222222
vt 0.09375 0.2222222
vt 0.09375 0.2380952
vt 0.0625 0.2380952
vt 0.125 0.2222222
vt 0.125 0.2380952
vt 0.0625 0.2063492
vt 0.09375 0.2063492
vt 0.125 0.2063492

# Normal
vn 0 0 -1

# Mesh description
g Snowy_Graveyard_mesh_0006

# Faces
f 1/1/1 2/2/1 3/3/1 4/4/1
f 5/2/1 6/5/1 7/6/1 8/3/1
f 9/7/1 10/8/1 11/2/1 12/1/1
f 13/8/1 14/9/1 15/5/1 16/2/1

