# Tiled2Unity generated file. Do not modify by hand.
# Wavefront file for 'DungeonA_mesh_0006.obj'

# Vertices (Count = 612)
v -30 -50 0
v -32 -50 0
v -32 -48 0
v -30 -48 0
v -32 -50 0
v -34 -50 0
v -34 -48 0
v -32 -48 0
v -34 -50 0
v -36 -50 0
v -36 -48 0
v -34 -48 0
v -35 -50 0
v -37 -50 0
v -37 -48 0
v -35 -48 0
v -37 -50 0
v -39 -50 0
v -39 -48 0
v -37 -48 0
v -39 -50 0
v -41 -50 0
v -41 -48 0
v -39 -48 0
v -41 -50 0
v -43 -50 0
v -43 -48 0
v -41 -48 0
v -43 -50 0
v -45 -50 0
v -45 -48 0
v -43 -48 0
v -45 -50 0
v -47 -50 0
v -47 -48 0
v -45 -48 0
v -47 -50 0
v -49 -50 0
v -49 -48 0
v -47 -48 0
v -49 -50 0
v -51 -50 0
v -51 -48 0
v -49 -48 0
v -51 -50 0
v -53 -50 0
v -53 -48 0
v -51 -48 0
v -53 -50 0
v -55 -50 0
v -55 -48 0
v -53 -48 0
v -55 -50 0
v -57 -50 0
v -57 -48 0
v -55 -48 0
v -57 -50 0
v -59 -50 0
v -59 -48 0
v -57 -48 0
v -59 -50 0
v -61 -50 0
v -61 -48 0
v -59 -48 0
v -61 -50 0
v -63 -50 0
v -63 -48 0
v -61 -48 0
v -63 -50 0
v -65 -50 0
v -65 -48 0
v -63 -48 0
v -65 -50 0
v -67 -50 0
v -67 -48 0
v -65 -48 0
v -67 -50 0
v -69 -50 0
v -69 -48 0
v -67 -48 0
v -69 -50 0
v -71 -50 0
v -71 -48 0
v -69 -48 0
v -71 -50 0
v -73 -50 0
v -73 -48 0
v -71 -48 0
v -73 -50 0
v -75 -50 0
v -75 -48 0
v -73 -48 0
v -30 -52 0
v -32 -52 0
v -32 -50 0
v -30 -50 0
v -32 -52 0
v -34 -52 0
v -34 -50 0
v -32 -50 0
v -34 -52 0
v -36 -52 0
v -36 -50 0
v -34 -50 0
v -35 -52 0
v -37 -52 0
v -37 -50 0
v -35 -50 0
v -36 -52 0
v -38 -52 0
v -38 -50 0
v -36 -50 0
v -37 -52 0
v -39 -52 0
v -39 -50 0
v -37 -50 0
v -38 -52 0
v -40 -52 0
v -40 -50 0
v -38 -50 0
v -39 -52 0
v -41 -52 0
v -41 -50 0
v -39 -50 0
v -40 -52 0
v -42 -52 0
v -42 -50 0
v -40 -50 0
v -41 -52 0
v -43 -52 0
v -43 -50 0
v -41 -50 0
v -43 -52 0
v -45 -52 0
v -45 -50 0
v -43 -50 0
v -44 -52 0
v -46 -52 0
v -46 -50 0
v -44 -50 0
v -45 -52 0
v -47 -52 0
v -47 -50 0
v -45 -50 0
v -46 -52 0
v -48 -52 0
v -48 -50 0
v -46 -50 0
v -47 -52 0
v -49 -52 0
v -49 -50 0
v -47 -50 0
v -48 -52 0
v -50 -52 0
v -50 -50 0
v -48 -50 0
v -50 -52 0
v -52 -52 0
v -52 -50 0
v -50 -50 0
v -51 -52 0
v -53 -52 0
v -53 -50 0
v -51 -50 0
v -52 -52 0
v -54 -52 0
v -54 -50 0
v -52 -50 0
v -53 -52 0
v -55 -52 0
v -55 -50 0
v -53 -50 0
v -54 -52 0
v -56 -52 0
v -56 -50 0
v -54 -50 0
v -55 -52 0
v -57 -52 0
v -57 -50 0
v -55 -50 0
v -57 -52 0
v -59 -52 0
v -59 -50 0
v -57 -50 0
v -59 -52 0
v -61 -52 0
v -61 -50 0
v -59 -50 0
v -61 -52 0
v -63 -52 0
v -63 -50 0
v -61 -50 0
v -63 -52 0
v -65 -52 0
v -65 -50 0
v -63 -50 0
v -65 -52 0
v -67 -52 0
v -67 -50 0
v -65 -50 0
v -67 -52 0
v -69 -52 0
v -69 -50 0
v -67 -50 0
v -69 -52 0
v -71 -52 0
v -71 -50 0
v -69 -50 0
v -71 -52 0
v -73 -52 0
v -73 -50 0
v -71 -50 0
v -73 -52 0
v -75 -52 0
v -75 -50 0
v -73 -50 0
v -30 -54 0
v -32 -54 0
v -32 -52 0
v -30 -52 0
v -32 -54 0
v -34 -54 0
v -34 -52 0
v -32 -52 0
v -43 -54 0
v -45 -54 0
v -45 -52 0
v -43 -52 0
v -68 -54 0
v -70 -54 0
v -70 -52 0
v -68 -52 0
v -70 -54 0
v -72 -54 0
v -72 -52 0
v -70 -52 0
v -32 -55 0
v -34 -55 0
v -34 -53 0
v -32 -53 0
v -30 -56 0
v -32 -56 0
v -32 -54 0
v -30 -54 0
v -32 -56 0
v -34 -56 0
v -34 -54 0
v -32 -54 0
v -68 -56 0
v -70 -56 0
v -70 -54 0
v -68 -54 0
v -70 -56 0
v -72 -56 0
v -72 -54 0
v -70 -54 0
v -32 -57 0
v -34 -57 0
v -34 -55 0
v -32 -55 0
v -30 -58 0
v -32 -58 0
v -32 -56 0
v -30 -56 0
v -32 -58 0
v -34 -58 0
v -34 -56 0
v -32 -56 0
v -68 -58 0
v -70 -58 0
v -70 -56 0
v -68 -56 0
v -70 -58 0
v -72 -58 0
v -72 -56 0
v -70 -56 0
v -32 -59 0
v -34 -59 0
v -34 -57 0
v -32 -57 0
v -30 -60 0
v -32 -60 0
v -32 -58 0
v -30 -58 0
v -32 -60 0
v -34 -60 0
v -34 -58 0
v -32 -58 0
v -68 -60 0
v -70 -60 0
v -70 -58 0
v -68 -58 0
v -70 -60 0
v -72 -60 0
v -72 -58 0
v -70 -58 0
v -32 -61 0
v -34 -61 0
v -34 -59 0
v -32 -59 0
v -30 -62 0
v -32 -62 0
v -32 -60 0
v -30 -60 0
v -32 -62 0
v -34 -62 0
v -34 -60 0
v -32 -60 0
v -68 -62 0
v -70 -62 0
v -70 -60 0
v -68 -60 0
v -70 -62 0
v -72 -62 0
v -72 -60 0
v -70 -60 0
v -32 -63 0
v -34 -63 0
v -34 -61 0
v -32 -61 0
v -30 -64 0
v -32 -64 0
v -32 -62 0
v -30 -62 0
v -32 -64 0
v -34 -64 0
v -34 -62 0
v -32 -62 0
v -68 -64 0
v -70 -64 0
v -70 -62 0
v -68 -62 0
v -70 -64 0
v -72 -64 0
v -72 -62 0
v -70 -62 0
v -32 -65 0
v -34 -65 0
v -34 -63 0
v -32 -63 0
v -30 -66 0
v -32 -66 0
v -32 -64 0
v -30 -64 0
v -32 -66 0
v -34 -66 0
v -34 -64 0
v -32 -64 0
v -68 -66 0
v -70 -66 0
v -70 -64 0
v -68 -64 0
v -70 -66 0
v -72 -66 0
v -72 -64 0
v -70 -64 0
v -32 -67 0
v -34 -67 0
v -34 -65 0
v -32 -65 0
v -30 -68 0
v -32 -68 0
v -32 -66 0
v -30 -66 0
v -32 -68 0
v -34 -68 0
v -34 -66 0
v -32 -66 0
v -68 -68 0
v -70 -68 0
v -70 -66 0
v -68 -66 0
v -70 -68 0
v -72 -68 0
v -72 -66 0
v -70 -66 0
v -30 -70 0
v -32 -70 0
v -32 -68 0
v -30 -68 0
v -32 -70 0
v -34 -70 0
v -34 -68 0
v -32 -68 0
v -68 -70 0
v -70 -70 0
v -70 -68 0
v -68 -68 0
v -70 -70 0
v -72 -70 0
v -72 -68 0
v -70 -68 0
v -25 -72 0
v -27 -72 0
v -27 -70 0
v -25 -70 0
v -26 -72 0
v -28 -72 0
v -28 -70 0
v -26 -70 0
v -28 -72 0
v -30 -72 0
v -30 -70 0
v -28 -70 0
v -30 -72 0
v -32 -72 0
v -32 -70 0
v -30 -70 0
v -32 -72 0
v -34 -72 0
v -34 -70 0
v -32 -70 0
v -34 -72 0
v -36 -72 0
v -36 -70 0
v -34 -70 0
v -36 -72 0
v -38 -72 0
v -38 -70 0
v -36 -70 0
v -37 -72 0
v -39 -72 0
v -39 -70 0
v -37 -70 0
v -38 -72 0
v -40 -72 0
v -40 -70 0
v -38 -70 0
v -39 -72 0
v -41 -72 0
v -41 -70 0
v -39 -70 0
v -40 -72 0
v -42 -72 0
v -42 -70 0
v -40 -70 0
v -41 -72 0
v -43 -72 0
v -43 -70 0
v -41 -70 0
v -42 -72 0
v -44 -72 0
v -44 -70 0
v -42 -70 0
v -44 -72 0
v -46 -72 0
v -46 -70 0
v -44 -70 0
v -46 -72 0
v -48 -72 0
v -48 -70 0
v -46 -70 0
v -48 -72 0
v -50 -72 0
v -50 -70 0
v -48 -70 0
v -50 -72 0
v -52 -72 0
v -52 -70 0
v -50 -70 0
v -52 -72 0
v -54 -72 0
v -54 -70 0
v -52 -70 0
v -54 -72 0
v -56 -72 0
v -56 -70 0
v -54 -70 0
v -56 -72 0
v -58 -72 0
v -58 -70 0
v -56 -70 0
v -58 -72 0
v -60 -72 0
v -60 -70 0
v -58 -70 0
v -59 -72 0
v -61 -72 0
v -61 -70 0
v -59 -70 0
v -60 -72 0
v -62 -72 0
v -62 -70 0
v -60 -70 0
v -62 -72 0
v -64 -72 0
v -64 -70 0
v -62 -70 0
v -64 -72 0
v -66 -72 0
v -66 -70 0
v -64 -70 0
v -66 -72 0
v -68 -72 0
v -68 -70 0
v -66 -70 0
v -25 -74 0
v -27 -74 0
v -27 -72 0
v -25 -72 0
v -26 -74 0
v -28 -74 0
v -28 -72 0
v -26 -72 0
v -28 -74 0
v -30 -74 0
v -30 -72 0
v -28 -72 0
v -30 -74 0
v -32 -74 0
v -32 -72 0
v -30 -72 0
v -32 -74 0
v -34 -74 0
v -34 -72 0
v -32 -72 0
v -34 -74 0
v -36 -74 0
v -36 -72 0
v -34 -72 0
v -36 -74 0
v -38 -74 0
v -38 -72 0
v -36 -72 0
v -38 -74 0
v -40 -74 0
v -40 -72 0
v -38 -72 0
v -40 -74 0
v -42 -74 0
v -42 -72 0
v -40 -72 0
v -42 -74 0
v -44 -74 0
v -44 -72 0
v -42 -72 0
v -44 -74 0
v -46 -74 0
v -46 -72 0
v -44 -72 0
v -46 -74 0
v -48 -74 0
v -48 -72 0
v -46 -72 0
v -47 -74 0
v -49 -74 0
v -49 -72 0
v -47 -72 0
v -48 -74 0
v -50 -74 0
v -50 -72 0
v -48 -72 0
v -49 -74 0
v -51 -74 0
v -51 -72 0
v -49 -72 0
v -50 -74 0
v -52 -74 0
v -52 -72 0
v -50 -72 0
v -51 -74 0
v -53 -74 0
v -53 -72 0
v -51 -72 0
v -52 -74 0
v -54 -74 0
v -54 -72 0
v -52 -72 0
v -53 -74 0
v -55 -74 0
v -55 -72 0
v -53 -72 0
v -54 -74 0
v -56 -74 0
v -56 -72 0
v -54 -72 0
v -55 -74 0
v -57 -74 0
v -57 -72 0
v -55 -72 0
v -56 -74 0
v -58 -74 0
v -58 -72 0
v -56 -72 0
v -57 -74 0
v -59 -74 0
v -59 -72 0
v -57 -72 0
v -58 -74 0
v -60 -74 0
v -60 -72 0
v -58 -72 0
v -59 -74 0
v -61 -74 0
v -61 -72 0
v -59 -72 0
v -60 -74 0
v -62 -74 0
v -62 -72 0
v -60 -72 0
v -62 -74 0
v -64 -74 0
v -64 -72 0
v -62 -72 0
v -64 -74 0
v -66 -74 0
v -66 -72 0
v -64 -72 0
v -66 -74 0
v -68 -74 0
v -68 -72 0
v -66 -72 0

# Texture cooridinates (Count = 16)
vt 0.96875 0.03174603
vt 0.96875 0.01587301
vt 1 0.01587301
vt 1 0.03174603
vt 0.96875 0
vt 1 0
vt 0.90625 0.01587301
vt 0.9375 0.01587301
vt 0.9375 0.03174603
vt 0.90625 0.03174603
vt 0.9375 0
vt 0.90625 0
vt 0.90625 0.2063492
vt 0.9375 0.2063492
vt 0.9375 0.2222222
vt 0.90625 0.2222222

# Normal
vn 0 0 -1

# Mesh description
g DungeonA_mesh_0006

# Faces
f 1/1/1 2/2/1 3/3/1 4/4/1
f 5/2/1 6/5/1 7/6/1 8/3/1
f 9/7/1 10/8/1 11/9/1 12/10/1
f 13/8/1 14/2/1 15/1/1 16/9/1
f 17/8/1 18/2/1 19/1/1 20/9/1
f 21/8/1 22/2/1 23/1/1 24/9/1
f 25/8/1 26/2/1 27/1/1 28/9/1
f 29/8/1 30/2/1 31/1/1 32/9/1
f 33/8/1 34/2/1 35/1/1 36/9/1
f 37/8/1 38/2/1 39/1/1 40/9/1
f 41/8/1 42/2/1 43/1/1 44/9/1
f 45/8/1 46/2/1 47/1/1 48/9/1
f 49/8/1 50/2/1 51/1/1 52/9/1
f 53/8/1 54/2/1 55/1/1 56/9/1
f 57/8/1 58/2/1 59/1/1 60/9/1
f 61/8/1 62/2/1 63/1/1 64/9/1
f 65/8/1 66/2/1 67/1/1 68/9/1
f 69/8/1 70/2/1 71/1/1 72/9/1
f 73/8/1 74/2/1 75/1/1 76/9/1
f 77/8/1 78/2/1 79/1/1 80/9/1
f 81/8/1 82/2/1 83/1/1 84/9/1
f 85/8/1 86/2/1 87/1/1 88/9/1
f 89/8/1 90/2/1 91/1/1 92/9/1
f 93/9/1 94/8/1 95/2/1 96/1/1
f 97/8/1 98/11/1 99/5/1 100/2/1
f 101/12/1 102/11/1 103/8/1 104/7/1
f 105/11/1 106/5/1 107/2/1 108/8/1
f 109/11/1 110/5/1 111/2/1 112/8/1
f 113/11/1 114/5/1 115/2/1 116/8/1
f 117/11/1 118/5/1 119/2/1 120/8/1
f 121/11/1 122/5/1 123/2/1 124/8/1
f 125/11/1 126/5/1 127/2/1 128/8/1
f 129/11/1 130/5/1 131/2/1 132/8/1
f 133/12/1 134/11/1 135/8/1 136/7/1
f 137/12/1 138/11/1 139/8/1 140/7/1
f 141/12/1 142/11/1 143/8/1 144/7/1
f 145/12/1 146/11/1 147/8/1 148/7/1
f 149/12/1 150/11/1 151/8/1 152/7/1
f 153/12/1 154/11/1 155/8/1 156/7/1
f 157/12/1 158/11/1 159/8/1 160/7/1
f 161/12/1 162/11/1 163/8/1 164/7/1
f 165/12/1 166/11/1 167/8/1 168/7/1
f 169/12/1 170/11/1 171/8/1 172/7/1
f 173/12/1 174/11/1 175/8/1 176/7/1
f 177/12/1 178/11/1 179/8/1 180/7/1
f 181/11/1 182/5/1 183/2/1 184/8/1
f 185/11/1 186/5/1 187/2/1 188/8/1
f 189/11/1 190/5/1 191/2/1 192/8/1
f 193/11/1 194/5/1 195/2/1 196/8/1
f 197/11/1 198/5/1 199/2/1 200/8/1
f 201/11/1 202/5/1 203/2/1 204/8/1
f 205/11/1 206/5/1 207/2/1 208/8/1
f 209/11/1 210/5/1 211/2/1 212/8/1
f 213/11/1 214/5/1 215/2/1 216/8/1
f 217/9/1 218/8/1 219/2/1 220/1/1
f 221/8/1 222/11/1 223/5/1 224/2/1
f 225/13/1 226/14/1 227/15/1 228/16/1
f 229/5/1 230/2/1 231/8/1 232/11/1
f 233/2/1 234/1/1 235/9/1 236/8/1
f 237/8/1 238/11/1 239/5/1 240/2/1
f 241/9/1 242/8/1 243/2/1 244/1/1
f 245/8/1 246/11/1 247/5/1 248/2/1
f 249/5/1 250/2/1 251/8/1 252/11/1
f 253/2/1 254/1/1 255/9/1 256/8/1
f 257/8/1 258/11/1 259/5/1 260/2/1
f 261/9/1 262/8/1 263/2/1 264/1/1
f 265/8/1 266/11/1 267/5/1 268/2/1
f 269/5/1 270/2/1 271/8/1 272/11/1
f 273/2/1 274/1/1 275/9/1 276/8/1
f 277/8/1 278/11/1 279/5/1 280/2/1
f 281/9/1 282/8/1 283/2/1 284/1/1
f 285/8/1 286/11/1 287/5/1 288/2/1
f 289/5/1 290/2/1 291/8/1 292/11/1
f 293/2/1 294/1/1 295/9/1 296/8/1
f 297/8/1 298/11/1 299/5/1 300/2/1
f 301/9/1 302/8/1 303/2/1 304/1/1
f 305/8/1 306/11/1 307/5/1 308/2/1
f 309/5/1 310/2/1 311/8/1 312/11/1
f 313/2/1 314/1/1 315/9/1 316/8/1
f 317/8/1 318/11/1 319/5/1 320/2/1
f 321/9/1 322/8/1 323/2/1 324/1/1
f 325/8/1 326/11/1 327/5/1 328/2/1
f 329/5/1 330/2/1 331/8/1 332/11/1
f 333/2/1 334/1/1 335/9/1 336/8/1
f 337/8/1 338/11/1 339/5/1 340/2/1
f 341/9/1 342/8/1 343/2/1 344/1/1
f 345/8/1 346/11/1 347/5/1 348/2/1
f 349/5/1 350/2/1 351/8/1 352/11/1
f 353/2/1 354/1/1 355/9/1 356/8/1
f 357/8/1 358/11/1 359/5/1 360/2/1
f 361/9/1 362/8/1 363/2/1 364/1/1
f 365/8/1 366/11/1 367/5/1 368/2/1
f 369/5/1 370/2/1 371/8/1 372/11/1
f 373/2/1 374/1/1 375/9/1 376/8/1
f 377/9/1 378/8/1 379/2/1 380/1/1
f 381/8/1 382/11/1 383/5/1 384/2/1
f 385/5/1 386/2/1 387/8/1 388/11/1
f 389/2/1 390/1/1 391/9/1 392/8/1
f 393/7/1 394/8/1 395/9/1 396/10/1
f 397/8/1 398/2/1 399/1/1 400/9/1
f 401/8/1 402/2/1 403/1/1 404/9/1
f 405/8/1 406/2/1 407/1/1 408/9/1
f 409/8/1 410/2/1 411/1/1 412/9/1
f 413/8/1 414/2/1 415/1/1 416/9/1
f 417/8/1 418/2/1 419/1/1 420/9/1
f 421/8/1 422/2/1 423/1/1 424/9/1
f 425/8/1 426/2/1 427/1/1 428/9/1
f 429/8/1 430/2/1 431/1/1 432/9/1
f 433/8/1 434/2/1 435/1/1 436/9/1
f 437/8/1 438/2/1 439/1/1 440/9/1
f 441/8/1 442/2/1 443/1/1 444/9/1
f 445/8/1 446/2/1 447/1/1 448/9/1
f 449/8/1 450/2/1 451/1/1 452/9/1
f 453/8/1 454/2/1 455/1/1 456/9/1
f 457/8/1 458/2/1 459/1/1 460/9/1
f 461/8/1 462/2/1 463/1/1 464/9/1
f 465/8/1 466/2/1 467/1/1 468/9/1
f 469/8/1 470/2/1 471/1/1 472/9/1
f 473/8/1 474/2/1 475/1/1 476/9/1
f 477/8/1 478/2/1 479/1/1 480/9/1
f 481/8/1 482/2/1 483/1/1 484/9/1
f 485/8/1 486/2/1 487/1/1 488/9/1
f 489/8/1 490/2/1 491/1/1 492/9/1
f 493/2/1 494/3/1 495/4/1 496/1/1
f 497/12/1 498/11/1 499/8/1 500/7/1
f 501/11/1 502/5/1 503/2/1 504/8/1
f 505/11/1 506/5/1 507/2/1 508/8/1
f 509/11/1 510/5/1 511/2/1 512/8/1
f 513/11/1 514/5/1 515/2/1 516/8/1
f 517/11/1 518/5/1 519/2/1 520/8/1
f 521/11/1 522/5/1 523/2/1 524/8/1
f 525/11/1 526/5/1 527/2/1 528/8/1
f 529/11/1 530/5/1 531/2/1 532/8/1
f 533/11/1 534/5/1 535/2/1 536/8/1
f 537/11/1 538/5/1 539/2/1 540/8/1
f 541/11/1 542/5/1 543/2/1 544/8/1
f 545/11/1 546/5/1 547/2/1 548/8/1
f 549/11/1 550/5/1 551/2/1 552/8/1
f 553/11/1 554/5/1 555/2/1 556/8/1
f 557/11/1 558/5/1 559/2/1 560/8/1
f 561/11/1 562/5/1 563/2/1 564/8/1
f 565/11/1 566/5/1 567/2/1 568/8/1
f 569/11/1 570/5/1 571/2/1 572/8/1
f 573/11/1 574/5/1 575/2/1 576/8/1
f 577/11/1 578/5/1 579/2/1 580/8/1
f 581/11/1 582/5/1 583/2/1 584/8/1
f 585/11/1 586/5/1 587/2/1 588/8/1
f 589/11/1 590/5/1 591/2/1 592/8/1
f 593/11/1 594/5/1 595/2/1 596/8/1
f 597/11/1 598/5/1 599/2/1 600/8/1
f 601/11/1 602/5/1 603/2/1 604/8/1
f 605/11/1 606/5/1 607/2/1 608/8/1
f 609/5/1 610/6/1 611/3/1 612/2/1

