# Tiled2Unity generated file. Do not modify by hand.
# Wavefront file for 'DungeonA_mesh_0002.obj'

# Vertices (Count = 76)
v -56 -43 0
v -58 -43 0
v -58 -41 0
v -56 -41 0
v -74 -50 0
v -76 -50 0
v -76 -48 0
v -74 -48 0
v -45 -59 0
v -47 -59 0
v -47 -57 0
v -45 -57 0
v -45 -60 0
v -47 -60 0
v -47 -58 0
v -45 -58 0
v -46 -60 0
v -48 -60 0
v -48 -58 0
v -46 -58 0
v -59 -60 0
v -61 -60 0
v -61 -58 0
v -59 -58 0
v -42 -61 0
v -44 -61 0
v -44 -59 0
v -42 -59 0
v -44 -61 0
v -46 -61 0
v -46 -59 0
v -44 -59 0
v -45 -61 0
v -47 -61 0
v -47 -59 0
v -45 -59 0
v -46 -61 0
v -48 -61 0
v -48 -59 0
v -46 -59 0
v -44 -62 0
v -46 -62 0
v -46 -60 0
v -44 -60 0
v -46 -62 0
v -48 -62 0
v -48 -60 0
v -46 -60 0
v -58 -62 0
v -60 -62 0
v -60 -60 0
v -58 -60 0
v -44 -63 0
v -46 -63 0
v -46 -61 0
v -44 -61 0
v -45 -63 0
v -47 -63 0
v -47 -61 0
v -45 -61 0
v -46 -63 0
v -48 -63 0
v -48 -61 0
v -46 -61 0
v -57 -63 0
v -59 -63 0
v -59 -61 0
v -57 -61 0
v -45 -64 0
v -47 -64 0
v -47 -62 0
v -45 -62 0
v -46 -64 0
v -48 -64 0
v -48 -62 0
v -46 -62 0

# Texture cooridinates (Count = 24)
vt 0.84375 0.9206349
vt 0.875 0.9206349
vt 0.875 0.9365079
vt 0.84375 0.9365079
vt 0.125 0.3492063
vt 0.15625 0.3492063
vt 0.15625 0.3650793
vt 0.125 0.3650793
vt 0.125 0.3333333
vt 0.15625 0.3333333
vt 0.125 0.3968254
vt 0.15625 0.3968254
vt 0.15625 0.4126984
vt 0.125 0.4126984
vt 0.1875 0.3492063
vt 0.21875 0.3492063
vt 0.21875 0.3650793
vt 0.1875 0.3650793
vt 0.46875 0.03174603
vt 0.5 0.03174603
vt 0.5 0.04761904
vt 0.46875 0.04761904
vt 0.1875 0.3333333
vt 0.21875 0.3333333

# Normal
vn 0 0 -1

# Mesh description
g DungeonA_mesh_0002

# Faces
f 1/1/1 2/2/1 3/3/1 4/4/1
f 5/1/1 6/2/1 7/3/1 8/4/1
f 9/5/1 10/6/1 11/7/1 12/8/1
f 13/9/1 14/10/1 15/6/1 16/5/1
f 17/6/1 18/7/1 19/8/1 20/5/1
f 21/11/1 22/12/1 23/13/1 24/14/1
f 25/8/1 26/5/1 27/6/1 28/7/1
f 29/5/1 30/9/1 31/10/1 32/6/1
f 33/15/1 34/16/1 35/17/1 36/18/1
f 37/10/1 38/6/1 39/5/1 40/9/1
f 41/6/1 42/7/1 43/8/1 44/5/1
f 45/10/1 46/6/1 47/5/1 48/9/1
f 49/19/1 50/20/1 51/21/1 52/22/1
f 53/5/1 54/9/1 55/10/1 56/6/1
f 57/23/1 58/24/1 59/16/1 60/15/1
f 61/10/1 62/6/1 63/5/1 64/9/1
f 65/11/1 66/12/1 67/13/1 68/14/1
f 69/9/1 70/10/1 71/6/1 72/5/1
f 73/7/1 74/8/1 75/5/1 76/6/1

