# Tiled2Unity generated file. Do not modify by hand.
# Wavefront file for 'DungeonA_mesh_0004.obj'

# Vertices (Count = 24)
v -52 -55 0
v -53 -55 0
v -53 -54 0
v -52 -54 0
v -53 -56 0
v -54 -56 0
v -54 -55 0
v -53 -55 0
v -50 -57 0
v -51 -57 0
v -51 -56 0
v -50 -56 0
v -53 -67 0
v -54 -67 0
v -54 -66 0
v -53 -66 0
v -54 -67 0
v -55 -67 0
v -55 -66 0
v -54 -66 0
v -54 -68 0
v -55 -68 0
v -55 -67 0
v -54 -67 0

# Texture cooridinates (Count = 12)
vt 0.8571429 0.5714285
vt 1 0.5714285
vt 1 0.7142857
vt 0.8571429 0.7142857
vt 0.8571429 0.4285714
vt 1 0.4285714
vt 1 0.8571429
vt 0.8571429 0.8571429
vt 0.7142857 0.8571429
vt 0.8571429 1
vt 0.7142857 1
vt 1 1

# Normal
vn 0 0 -1

# Mesh description
g DungeonA_mesh_0004

# Faces
f 1/1/1 2/2/1 3/3/1 4/4/1
f 5/5/1 6/6/1 7/2/1 8/1/1
f 9/4/1 10/3/1 11/7/1 12/8/1
f 13/4/1 14/3/1 15/7/1 16/8/1
f 17/9/1 18/8/1 19/10/1 20/11/1
f 21/8/1 22/7/1 23/12/1 24/10/1

