# Tiled2Unity generated file. Do not modify by hand.
# Wavefront file for 'DungeonA_mesh_0007.obj'

# Vertices (Count = 16)
v -62 -51 0
v -64 -51 0
v -64 -49 0
v -62 -49 0
v -31 -61 0
v -33 -61 0
v -33 -59 0
v -31 -59 0
v -69 -66 0
v -71 -66 0
v -71 -64 0
v -69 -64 0
v -43 -73 0
v -45 -73 0
v -45 -71 0
v -43 -71 0

# Texture cooridinates (Count = 4)
vt 0.6923077 0.1363636
vt 0.7692308 0.1363636
vt 0.7692308 0.1818182
vt 0.6923077 0.1818182

# Normal
vn 0 0 -1

# Mesh description
g DungeonA_mesh_0007

# Faces
f 1/1/1 2/2/1 3/3/1 4/4/1
f 5/4/1 6/1/1 7/2/1 8/3/1
f 9/2/1 10/3/1 11/4/1 12/1/1
f 13/1/1 14/2/1 15/3/1 16/4/1

