# Tiled2Unity generated file. Do not modify by hand.
# Wavefront file for 'DungeonA_mesh_0011.obj'

# Vertices (Count = 12)
v -67 -51 0
v -69 -51 0
v -69 -49 0
v -67 -49 0
v -69 -56 0
v -71 -56 0
v -71 -54 0
v -69 -54 0
v -69 -61 0
v -71 -61 0
v -71 -59 0
v -69 -59 0

# Texture cooridinates (Count = 4)
vt 0.6923077 0.04545456
vt 0.7692308 0.04545456
vt 0.7692308 0.09090906
vt 0.6923077 0.09090906

# Normal
vn 0 0 -1

# Mesh description
g DungeonA_mesh_0011

# Faces
f 1/1/1 2/2/1 3/3/1 4/4/1
f 5/2/1 6/3/1 7/4/1 8/1/1
f 9/2/1 10/3/1 11/4/1 12/1/1

