# Tiled2Unity generated file. Do not modify by hand.
# Wavefront file for 'SnowyA_mesh_0003.obj'

# Vertices (Count = 284)
v -52 -26 0
v -54 -26 0
v -54 -24 0
v -52 -24 0
v -33 -27 0
v -35 -27 0
v -35 -25 0
v -33 -25 0
v -34 -27 0
v -36 -27 0
v -36 -25 0
v -34 -25 0
v -36 -27 0
v -38 -27 0
v -38 -25 0
v -36 -25 0
v -34 -28 0
v -36 -28 0
v -36 -26 0
v -34 -26 0
v -33 -29 0
v -35 -29 0
v -35 -27 0
v -33 -27 0
v -35 -29 0
v -37 -29 0
v -37 -27 0
v -35 -27 0
v -44 -29 0
v -46 -29 0
v -46 -27 0
v -44 -27 0
v -52 -29 0
v -54 -29 0
v -54 -27 0
v -52 -27 0
v -53 -29 0
v -55 -29 0
v -55 -27 0
v -53 -27 0
v -49 -30 0
v -51 -30 0
v -51 -28 0
v -49 -28 0
v -50 -30 0
v -52 -30 0
v -52 -28 0
v -50 -28 0
v -51 -30 0
v -53 -30 0
v -53 -28 0
v -51 -28 0
v -52 -30 0
v -54 -30 0
v -54 -28 0
v -52 -28 0
v -53 -30 0
v -55 -30 0
v -55 -28 0
v -53 -28 0
v -54 -30 0
v -56 -30 0
v -56 -28 0
v -54 -28 0
v -52 -31 0
v -54 -31 0
v -54 -29 0
v -52 -29 0
v -53 -31 0
v -55 -31 0
v -55 -29 0
v -53 -29 0
v -54 -31 0
v -56 -31 0
v -56 -29 0
v -54 -29 0
v -39 -32 0
v -41 -32 0
v -41 -30 0
v -39 -30 0
v -35 -34 0
v -37 -34 0
v -37 -32 0
v -35 -32 0
v -35 -36 0
v -37 -36 0
v -37 -34 0
v -35 -34 0
v -32 -37 0
v -34 -37 0
v -34 -35 0
v -32 -35 0
v -35 -37 0
v -37 -37 0
v -37 -35 0
v -35 -35 0
v -49 -37 0
v -51 -37 0
v -51 -35 0
v -49 -35 0
v -63 -37 0
v -65 -37 0
v -65 -35 0
v -63 -35 0
v -64 -37 0
v -66 -37 0
v -66 -35 0
v -64 -35 0
v -65 -37 0
v -67 -37 0
v -67 -35 0
v -65 -35 0
v -33 -38 0
v -35 -38 0
v -35 -36 0
v -33 -36 0
v -48 -38 0
v -50 -38 0
v -50 -36 0
v -48 -36 0
v -52 -38 0
v -54 -38 0
v -54 -36 0
v -52 -36 0
v -61 -38 0
v -63 -38 0
v -63 -36 0
v -61 -36 0
v -62 -38 0
v -64 -38 0
v -64 -36 0
v -62 -36 0
v -63 -38 0
v -65 -38 0
v -65 -36 0
v -63 -36 0
v -64 -38 0
v -66 -38 0
v -66 -36 0
v -64 -36 0
v -65 -38 0
v -67 -38 0
v -67 -36 0
v -65 -36 0
v -66 -38 0
v -68 -38 0
v -68 -36 0
v -66 -36 0
v -67 -38 0
v -69 -38 0
v -69 -36 0
v -67 -36 0
v -33 -39 0
v -35 -39 0
v -35 -37 0
v -33 -37 0
v -34 -39 0
v -36 -39 0
v -36 -37 0
v -34 -37 0
v -36 -39 0
v -38 -39 0
v -38 -37 0
v -36 -37 0
v -62 -39 0
v -64 -39 0
v -64 -37 0
v -62 -37 0
v -63 -39 0
v -65 -39 0
v -65 -37 0
v -63 -37 0
v -64 -39 0
v -66 -39 0
v -66 -37 0
v -64 -37 0
v -65 -39 0
v -67 -39 0
v -67 -37 0
v -65 -37 0
v -33 -40 0
v -35 -40 0
v -35 -38 0
v -33 -38 0
v -34 -40 0
v -36 -40 0
v -36 -38 0
v -34 -38 0
v -36 -40 0
v -38 -40 0
v -38 -38 0
v -36 -38 0
v -33 -41 0
v -35 -41 0
v -35 -39 0
v -33 -39 0
v -36 -42 0
v -38 -42 0
v -38 -40 0
v -36 -40 0
v -36 -43 0
v -38 -43 0
v -38 -41 0
v -36 -41 0
v -36 -45 0
v -38 -45 0
v -38 -43 0
v -36 -43 0
v -56 -46 0
v -58 -46 0
v -58 -44 0
v -56 -44 0
v -57 -46 0
v -59 -46 0
v -59 -44 0
v -57 -44 0
v -55 -47 0
v -57 -47 0
v -57 -45 0
v -55 -45 0
v -56 -47 0
v -58 -47 0
v -58 -45 0
v -56 -45 0
v -57 -47 0
v -59 -47 0
v -59 -45 0
v -57 -45 0
v -58 -47 0
v -60 -47 0
v -60 -45 0
v -58 -45 0
v -55 -48 0
v -57 -48 0
v -57 -46 0
v -55 -46 0
v -56 -48 0
v -58 -48 0
v -58 -46 0
v -56 -46 0
v -57 -48 0
v -59 -48 0
v -59 -46 0
v -57 -46 0
v -49 -56 0
v -51 -56 0
v -51 -54 0
v -49 -54 0
v -50 -57 0
v -52 -57 0
v -52 -55 0
v -50 -55 0
v -51 -62 0
v -53 -62 0
v -53 -60 0
v -51 -60 0
v -52 -62 0
v -54 -62 0
v -54 -60 0
v -52 -60 0
v -50 -64 0
v -52 -64 0
v -52 -62 0
v -50 -62 0
v -49 -65 0
v -51 -65 0
v -51 -63 0
v -49 -63 0
v -52 -66 0
v -54 -66 0
v -54 -64 0
v -52 -64 0
v -53 -66 0
v -55 -66 0
v -55 -64 0
v -53 -64 0
v -52 -67 0
v -54 -67 0
v -54 -65 0
v -52 -65 0
v -53 -67 0
v -55 -67 0
v -55 -65 0
v -53 -65 0

# Texture cooridinates (Count = 17)
vt 0.34375 0.4761904
vt 0.375 0.4761904
vt 0.375 0.4920635
vt 0.34375 0.4920635
vt 0.28125 0.4761904
vt 0.3125 0.4761904
vt 0.3125 0.4920635
vt 0.28125 0.4920635
vt 0.375 0.4603174
vt 0.40625 0.4603174
vt 0.40625 0.4761904
vt 0.125 0.3492063
vt 0.15625 0.3492063
vt 0.15625 0.3650793
vt 0.125 0.3650793
vt 0.125 0.3333333
vt 0.15625 0.3333333

# Normal
vn 0 0 -1

# Mesh description
g SnowyA_mesh_0003

# Faces
f 1/1/1 2/2/1 3/3/1 4/4/1
f 5/5/1 6/6/1 7/7/1 8/8/1
f 9/5/1 10/6/1 11/7/1 12/8/1
f 13/5/1 14/6/1 15/7/1 16/8/1
f 17/5/1 18/6/1 19/7/1 20/8/1
f 21/5/1 22/6/1 23/7/1 24/8/1
f 25/5/1 26/6/1 27/7/1 28/8/1
f 29/1/1 30/2/1 31/3/1 32/4/1
f 33/6/1 34/1/1 35/4/1 36/7/1
f 37/6/1 38/1/1 39/4/1 40/7/1
f 41/6/1 42/1/1 43/4/1 44/7/1
f 45/6/1 46/1/1 47/4/1 48/7/1
f 49/6/1 50/1/1 51/4/1 52/7/1
f 53/6/1 54/1/1 55/4/1 56/7/1
f 57/6/1 58/1/1 59/4/1 60/7/1
f 61/6/1 62/1/1 63/4/1 64/7/1
f 65/6/1 66/1/1 67/4/1 68/7/1
f 69/6/1 70/1/1 71/4/1 72/7/1
f 73/6/1 74/1/1 75/4/1 76/7/1
f 77/9/1 78/10/1 79/11/1 80/2/1
f 81/12/1 82/13/1 83/14/1 84/15/1
f 85/16/1 86/17/1 87/13/1 88/12/1
f 89/6/1 90/1/1 91/4/1 92/7/1
f 93/12/1 94/13/1 95/14/1 96/15/1
f 97/6/1 98/1/1 99/4/1 100/7/1
f 101/6/1 102/1/1 103/4/1 104/7/1
f 105/6/1 106/1/1 107/4/1 108/7/1
f 109/6/1 110/1/1 111/4/1 112/7/1
f 113/6/1 114/1/1 115/4/1 116/7/1
f 117/6/1 118/1/1 119/4/1 120/7/1
f 121/6/1 122/1/1 123/4/1 124/7/1
f 125/6/1 126/1/1 127/4/1 128/7/1
f 129/6/1 130/1/1 131/4/1 132/7/1
f 133/6/1 134/1/1 135/4/1 136/7/1
f 137/6/1 138/1/1 139/4/1 140/7/1
f 141/6/1 142/1/1 143/4/1 144/7/1
f 145/6/1 146/1/1 147/4/1 148/7/1
f 149/6/1 150/1/1 151/4/1 152/7/1
f 153/6/1 154/1/1 155/4/1 156/7/1
f 157/6/1 158/1/1 159/4/1 160/7/1
f 161/14/1 162/15/1 163/12/1 164/13/1
f 165/6/1 166/1/1 167/4/1 168/7/1
f 169/6/1 170/1/1 171/4/1 172/7/1
f 173/6/1 174/1/1 175/4/1 176/7/1
f 177/6/1 178/1/1 179/4/1 180/7/1
f 181/6/1 182/1/1 183/4/1 184/7/1
f 185/6/1 186/1/1 187/4/1 188/7/1
f 189/13/1 190/12/1 191/16/1 192/17/1
f 193/6/1 194/1/1 195/4/1 196/7/1
f 197/14/1 198/15/1 199/12/1 200/13/1
f 201/13/1 202/12/1 203/16/1 204/17/1
f 205/14/1 206/15/1 207/12/1 208/13/1
f 209/6/1 210/1/1 211/4/1 212/7/1
f 213/6/1 214/1/1 215/4/1 216/7/1
f 217/6/1 218/1/1 219/4/1 220/7/1
f 221/6/1 222/1/1 223/4/1 224/7/1
f 225/6/1 226/1/1 227/4/1 228/7/1
f 229/6/1 230/1/1 231/4/1 232/7/1
f 233/6/1 234/1/1 235/4/1 236/7/1
f 237/6/1 238/1/1 239/4/1 240/7/1
f 241/6/1 242/1/1 243/4/1 244/7/1
f 245/6/1 246/1/1 247/4/1 248/7/1
f 249/6/1 250/1/1 251/4/1 252/7/1
f 253/6/1 254/1/1 255/4/1 256/7/1
f 257/6/1 258/1/1 259/4/1 260/7/1
f 261/6/1 262/1/1 263/4/1 264/7/1
f 265/6/1 266/1/1 267/4/1 268/7/1
f 269/6/1 270/1/1 271/4/1 272/7/1
f 273/6/1 274/1/1 275/4/1 276/7/1
f 277/6/1 278/1/1 279/4/1 280/7/1
f 281/6/1 282/1/1 283/4/1 284/7/1

