# Tiled2Unity generated file. Do not modify by hand.
# Wavefront file for 'SnowyA_mesh_0010.obj'

# Vertices (Count = 8)
v -45 -41 0
v -46 -41 0
v -46 -40 0
v -45 -40 0
v -49 -42 0
v -50 -42 0
v -50 -41 0
v -49 -41 0

# Texture cooridinates (Count = 8)
vt 0.4285714 0.2857143
vt 0.5714286 0.2857143
vt 0.5714286 0.4285714
vt 0.4285714 0.4285714
vt 0.1428571 0.2857143
vt 0.1428571 0.4285714
vt 0 0.4285714
vt 0 0.2857143

# Normal
vn 0 0 -1

# Mesh description
g SnowyA_mesh_0010

# Faces
f 1/1/1 2/2/1 3/3/1 4/4/1
f 5/5/1 6/6/1 7/7/1 8/8/1

