# Tiled2Unity generated file. Do not modify by hand.
# Wavefront file for 'SnowyA_mesh_0002.obj'

# Vertices (Count = 68)
v -52 -26 0
v -54 -26 0
v -54 -24 0
v -52 -24 0
v -33 -27 0
v -35 -27 0
v -35 -25 0
v -33 -25 0
v -34 -27 0
v -36 -27 0
v -36 -25 0
v -34 -25 0
v -36 -27 0
v -38 -27 0
v -38 -25 0
v -36 -25 0
v -34 -28 0
v -36 -28 0
v -36 -26 0
v -34 -26 0
v -33 -29 0
v -35 -29 0
v -35 -27 0
v -33 -27 0
v -35 -29 0
v -37 -29 0
v -37 -27 0
v -35 -27 0
v -44 -29 0
v -46 -29 0
v -46 -27 0
v -44 -27 0
v -39 -32 0
v -41 -32 0
v -41 -30 0
v -39 -30 0
v -35 -34 0
v -37 -34 0
v -37 -32 0
v -35 -32 0
v -35 -36 0
v -37 -36 0
v -37 -34 0
v -35 -34 0
v -35 -37 0
v -37 -37 0
v -37 -35 0
v -35 -35 0
v -36 -39 0
v -38 -39 0
v -38 -37 0
v -36 -37 0
v -36 -40 0
v -38 -40 0
v -38 -38 0
v -36 -38 0
v -36 -42 0
v -38 -42 0
v -38 -40 0
v -36 -40 0
v -36 -43 0
v -38 -43 0
v -38 -41 0
v -36 -41 0
v -36 -45 0
v -38 -45 0
v -38 -43 0
v -36 -43 0

# Texture cooridinates (Count = 17)
vt 0.34375 0.4761904
vt 0.375 0.4761904
vt 0.375 0.4920635
vt 0.34375 0.4920635
vt 0.28125 0.4761904
vt 0.3125 0.4761904
vt 0.3125 0.4920635
vt 0.28125 0.4920635
vt 0.375 0.4603174
vt 0.40625 0.4603174
vt 0.40625 0.4761904
vt 0.125 0.3492063
vt 0.15625 0.3492063
vt 0.15625 0.3650793
vt 0.125 0.3650793
vt 0.125 0.3333333
vt 0.15625 0.3333333

# Normal
vn 0 0 -1

# Mesh description
g SnowyA_mesh_0002

# Faces
f 1/1/1 2/2/1 3/3/1 4/4/1
f 5/5/1 6/6/1 7/7/1 8/8/1
f 9/5/1 10/6/1 11/7/1 12/8/1
f 13/5/1 14/6/1 15/7/1 16/8/1
f 17/5/1 18/6/1 19/7/1 20/8/1
f 21/5/1 22/6/1 23/7/1 24/8/1
f 25/5/1 26/6/1 27/7/1 28/8/1
f 29/1/1 30/2/1 31/3/1 32/4/1
f 33/9/1 34/10/1 35/11/1 36/2/1
f 37/12/1 38/13/1 39/14/1 40/15/1
f 41/16/1 42/17/1 43/13/1 44/12/1
f 45/12/1 46/13/1 47/14/1 48/15/1
f 49/14/1 50/15/1 51/12/1 52/13/1
f 53/13/1 54/12/1 55/16/1 56/17/1
f 57/14/1 58/15/1 59/12/1 60/13/1
f 61/13/1 62/12/1 63/16/1 64/17/1
f 65/14/1 66/15/1 67/12/1 68/13/1

