# Tiled2Unity generated file. Do not modify by hand.
# Wavefront file for 'SnowyA_mesh_0009.obj'

# Vertices (Count = 320)
v -41 -35 0
v -42 -35 0
v -42 -34 0
v -41 -34 0
v -43 -35 0
v -44 -35 0
v -44 -34 0
v -43 -34 0
v -44 -35 0
v -45 -35 0
v -45 -34 0
v -44 -34 0
v -42 -36 0
v -43 -36 0
v -43 -35 0
v -42 -35 0
v -43 -36 0
v -44 -36 0
v -44 -35 0
v -43 -35 0
v -44 -36 0
v -45 -36 0
v -45 -35 0
v -44 -35 0
v -45 -36 0
v -46 -36 0
v -46 -35 0
v -45 -35 0
v -46 -36 0
v -47 -36 0
v -47 -35 0
v -46 -35 0
v -41 -37 0
v -42 -37 0
v -42 -36 0
v -41 -36 0
v -42 -37 0
v -43 -37 0
v -43 -36 0
v -42 -36 0
v -43 -37 0
v -44 -37 0
v -44 -36 0
v -43 -36 0
v -44 -37 0
v -45 -37 0
v -45 -36 0
v -44 -36 0
v -45 -37 0
v -46 -37 0
v -46 -36 0
v -45 -36 0
v -46 -37 0
v -47 -37 0
v -47 -36 0
v -46 -36 0
v -41 -38 0
v -42 -38 0
v -42 -37 0
v -41 -37 0
v -42 -38 0
v -43 -38 0
v -43 -37 0
v -42 -37 0
v -43 -38 0
v -44 -38 0
v -44 -37 0
v -43 -37 0
v -44 -38 0
v -45 -38 0
v -45 -37 0
v -44 -37 0
v -45 -38 0
v -46 -38 0
v -46 -37 0
v -45 -37 0
v -46 -38 0
v -47 -38 0
v -47 -37 0
v -46 -37 0
v -41 -39 0
v -42 -39 0
v -42 -38 0
v -41 -38 0
v -42 -39 0
v -43 -39 0
v -43 -38 0
v -42 -38 0
v -43 -39 0
v -44 -39 0
v -44 -38 0
v -43 -38 0
v -44 -39 0
v -45 -39 0
v -45 -38 0
v -44 -38 0
v -45 -39 0
v -46 -39 0
v -46 -38 0
v -45 -38 0
v -46 -39 0
v -47 -39 0
v -47 -38 0
v -46 -38 0
v -41 -40 0
v -42 -40 0
v -42 -39 0
v -41 -39 0
v -42 -40 0
v -43 -40 0
v -43 -39 0
v -42 -39 0
v -43 -40 0
v -44 -40 0
v -44 -39 0
v -43 -39 0
v -44 -40 0
v -45 -40 0
v -45 -39 0
v -44 -39 0
v -45 -40 0
v -46 -40 0
v -46 -39 0
v -45 -39 0
v -46 -40 0
v -47 -40 0
v -47 -39 0
v -46 -39 0
v -51 -46 0
v -52 -46 0
v -52 -45 0
v -51 -45 0
v -52 -46 0
v -53 -46 0
v -53 -45 0
v -52 -45 0
v -53 -46 0
v -54 -46 0
v -54 -45 0
v -53 -45 0
v -54 -46 0
v -55 -46 0
v -55 -45 0
v -54 -45 0
v -51 -47 0
v -52 -47 0
v -52 -46 0
v -51 -46 0
v -52 -47 0
v -53 -47 0
v -53 -46 0
v -52 -46 0
v -53 -47 0
v -54 -47 0
v -54 -46 0
v -53 -46 0
v -54 -47 0
v -55 -47 0
v -55 -46 0
v -54 -46 0
v -51 -48 0
v -52 -48 0
v -52 -47 0
v -51 -47 0
v -52 -48 0
v -53 -48 0
v -53 -47 0
v -52 -47 0
v -53 -48 0
v -54 -48 0
v -54 -47 0
v -53 -47 0
v -54 -48 0
v -55 -48 0
v -55 -47 0
v -54 -47 0
v -51 -49 0
v -52 -49 0
v -52 -48 0
v -51 -48 0
v -52 -49 0
v -53 -49 0
v -53 -48 0
v -52 -48 0
v -53 -49 0
v -54 -49 0
v -54 -48 0
v -53 -48 0
v -54 -49 0
v -55 -49 0
v -55 -48 0
v -54 -48 0
v -51 -50 0
v -52 -50 0
v -52 -49 0
v -51 -49 0
v -52 -50 0
v -53 -50 0
v -53 -49 0
v -52 -49 0
v -53 -50 0
v -54 -50 0
v -54 -49 0
v -53 -49 0
v -54 -50 0
v -55 -50 0
v -55 -49 0
v -54 -49 0
v -51 -51 0
v -52 -51 0
v -52 -50 0
v -51 -50 0
v -52 -51 0
v -53 -51 0
v -53 -50 0
v -52 -50 0
v -53 -51 0
v -54 -51 0
v -54 -50 0
v -53 -50 0
v -54 -51 0
v -55 -51 0
v -55 -50 0
v -54 -50 0
v -45 -54 0
v -46 -54 0
v -46 -53 0
v -45 -53 0
v -46 -54 0
v -47 -54 0
v -47 -53 0
v -46 -53 0
v -47 -54 0
v -48 -54 0
v -48 -53 0
v -47 -53 0
v -48 -54 0
v -49 -54 0
v -49 -53 0
v -48 -53 0
v -45 -55 0
v -46 -55 0
v -46 -54 0
v -45 -54 0
v -46 -55 0
v -47 -55 0
v -47 -54 0
v -46 -54 0
v -47 -55 0
v -48 -55 0
v -48 -54 0
v -47 -54 0
v -48 -55 0
v -49 -55 0
v -49 -54 0
v -48 -54 0
v -45 -56 0
v -46 -56 0
v -46 -55 0
v -45 -55 0
v -46 -56 0
v -47 -56 0
v -47 -55 0
v -46 -55 0
v -47 -56 0
v -48 -56 0
v -48 -55 0
v -47 -55 0
v -48 -56 0
v -49 -56 0
v -49 -55 0
v -48 -55 0
v -45 -57 0
v -46 -57 0
v -46 -56 0
v -45 -56 0
v -46 -57 0
v -47 -57 0
v -47 -56 0
v -46 -56 0
v -47 -57 0
v -48 -57 0
v -48 -56 0
v -47 -56 0
v -48 -57 0
v -49 -57 0
v -49 -56 0
v -48 -56 0
v -45 -58 0
v -46 -58 0
v -46 -57 0
v -45 -57 0
v -46 -58 0
v -47 -58 0
v -47 -57 0
v -46 -57 0
v -47 -58 0
v -48 -58 0
v -48 -57 0
v -47 -57 0
v -48 -58 0
v -49 -58 0
v -49 -57 0
v -48 -57 0
v -45 -59 0
v -46 -59 0
v -46 -58 0
v -45 -58 0
v -46 -59 0
v -47 -59 0
v -47 -58 0
v -46 -58 0
v -47 -59 0
v -48 -59 0
v -48 -58 0
v -47 -58 0
v -48 -59 0
v -49 -59 0
v -49 -58 0
v -48 -58 0

# Texture cooridinates (Count = 224)
vt 0 0.4298246
vt 0.07017544 0.4298246
vt 0.07017544 0.5
vt 0 0.5
vt 0.1666667 0.4298246
vt 0.2368421 0.4298246
vt 0.2368421 0.5
vt 0.1666667 0.5
vt 0.25 0.4298246
vt 0.3201754 0.4298246
vt 0.3201754 0.5
vt 0.25 0.5
vt 0.08333334 0.3464912
vt 0.1535088 0.3464912
vt 0.1535088 0.4166667
vt 0.08333334 0.4166667
vt 0.1666667 0.3464912
vt 0.2368421 0.3464912
vt 0.2368421 0.4166667
vt 0.1666667 0.4166667
vt 0.25 0.3464912
vt 0.3201754 0.3464912
vt 0.3201754 0.4166667
vt 0.25 0.4166667
vt 0.3333333 0.3464912
vt 0.4035088 0.3464912
vt 0.4035088 0.4166667
vt 0.3333333 0.4166667
vt 0.4166667 0.3464912
vt 0.4868421 0.3464912
vt 0.4868421 0.4166667
vt 0.4166667 0.4166667
vt 0 0.2631579
vt 0.07017544 0.2631579
vt 0.07017544 0.3333333
vt 0 0.3333333
vt 0.08333334 0.2631579
vt 0.1535088 0.2631579
vt 0.1535088 0.3333333
vt 0.08333334 0.3333333
vt 0.1666667 0.2631579
vt 0.2368421 0.2631579
vt 0.2368421 0.3333333
vt 0.1666667 0.3333333
vt 0.25 0.2631579
vt 0.3201754 0.2631579
vt 0.3201754 0.3333333
vt 0.25 0.3333333
vt 0.3333333 0.2631579
vt 0.4035088 0.2631579
vt 0.4035088 0.3333333
vt 0.3333333 0.3333333
vt 0.4166667 0.2631579
vt 0.4868421 0.2631579
vt 0.4868421 0.3333333
vt 0.4166667 0.3333333
vt 0 0.1798246
vt 0.07017544 0.1798246
vt 0.07017544 0.25
vt 0 0.25
vt 0.08333334 0.1798246
vt 0.1535088 0.1798246
vt 0.1535088 0.25
vt 0.08333334 0.25
vt 0.1666667 0.1798246
vt 0.2368421 0.1798246
vt 0.2368421 0.25
vt 0.1666667 0.25
vt 0.25 0.1798246
vt 0.3201754 0.1798246
vt 0.3201754 0.25
vt 0.25 0.25
vt 0.3333333 0.1798246
vt 0.4035088 0.1798246
vt 0.4035088 0.25
vt 0.3333333 0.25
vt 0.4166667 0.1798246
vt 0.4868421 0.1798246
vt 0.4868421 0.25
vt 0.4166667 0.25
vt 0 0.09649122
vt 0.07017544 0.09649122
vt 0.07017544 0.1666667
vt 0 0.1666667
vt 0.08333334 0.09649122
vt 0.1535088 0.09649122
vt 0.1535088 0.1666667
vt 0.08333334 0.1666667
vt 0.1666667 0.09649122
vt 0.2368421 0.09649122
vt 0.2368421 0.1666667
vt 0.1666667 0.1666667
vt 0.25 0.09649122
vt 0.3201754 0.09649122
vt 0.3201754 0.1666667
vt 0.25 0.1666667
vt 0.3333333 0.09649122
vt 0.4035088 0.09649122
vt 0.4035088 0.1666667
vt 0.3333333 0.1666667
vt 0.4166667 0.09649122
vt 0.4868421 0.09649122
vt 0.4868421 0.1666667
vt 0.4166667 0.1666667
vt 0 0.0131579
vt 0.07017544 0.0131579
vt 0.07017544 0.08333331
vt 0 0.08333331
vt 0.08333334 0.0131579
vt 0.1535088 0.0131579
vt 0.1535088 0.08333331
vt 0.08333334 0.08333331
vt 0.1666667 0.0131579
vt 0.2368421 0.0131579
vt 0.2368421 0.08333331
vt 0.1666667 0.08333331
vt 0.25 0.0131579
vt 0.3201754 0.0131579
vt 0.3201754 0.08333331
vt 0.25 0.08333331
vt 0.3333333 0.0131579
vt 0.4035088 0.0131579
vt 0.4035088 0.08333331
vt 0.3333333 0.08333331
vt 0.4166667 0.0131579
vt 0.4868421 0.0131579
vt 0.4868421 0.08333331
vt 0.4166667 0.08333331
vt 0.5833333 0.4298246
vt 0.6535088 0.4298246
vt 0.6535088 0.5
vt 0.5833333 0.5
vt 0.6666667 0.4298246
vt 0.7368421 0.4298246
vt 0.7368421 0.5
vt 0.6666667 0.5
vt 0.75 0.4298246
vt 0.8201754 0.4298246
vt 0.8201754 0.5
vt 0.75 0.5
vt 0.8333333 0.4298246
vt 0.9035088 0.4298246
vt 0.9035088 0.5
vt 0.8333333 0.5
vt 0.5833333 0.3464912
vt 0.6535088 0.3464912
vt 0.6535088 0.4166667
vt 0.5833333 0.4166667
vt 0.6666667 0.3464912
vt 0.7368421 0.3464912
vt 0.7368421 0.4166667
vt 0.6666667 0.4166667
vt 0.75 0.3464912
vt 0.8201754 0.3464912
vt 0.8201754 0.4166667
vt 0.75 0.4166667
vt 0.8333333 0.3464912
vt 0.9035088 0.3464912
vt 0.9035088 0.4166667
vt 0.8333333 0.4166667
vt 0.5833333 0.2631579
vt 0.6535088 0.2631579
vt 0.6535088 0.3333333
vt 0.5833333 0.3333333
vt 0.6666667 0.2631579
vt 0.7368421 0.2631579
vt 0.7368421 0.3333333
vt 0.6666667 0.3333333
vt 0.75 0.2631579
vt 0.8201754 0.2631579
vt 0.8201754 0.3333333
vt 0.75 0.3333333
vt 0.8333333 0.2631579
vt 0.9035088 0.2631579
vt 0.9035088 0.3333333
vt 0.8333333 0.3333333
vt 0.5833333 0.1798246
vt 0.6535088 0.1798246
vt 0.6535088 0.25
vt 0.5833333 0.25
vt 0.6666667 0.1798246
vt 0.7368421 0.1798246
vt 0.7368421 0.25
vt 0.6666667 0.25
vt 0.75 0.1798246
vt 0.8201754 0.1798246
vt 0.8201754 0.25
vt 0.75 0.25
vt 0.8333333 0.1798246
vt 0.9035088 0.1798246
vt 0.9035088 0.25
vt 0.8333333 0.25
vt 0.5833333 0.09649122
vt 0.6535088 0.09649122
vt 0.6535088 0.1666667
vt 0.5833333 0.1666667
vt 0.6666667 0.09649122
vt 0.7368421 0.09649122
vt 0.7368421 0.1666667
vt 0.6666667 0.1666667
vt 0.75 0.09649122
vt 0.8201754 0.09649122
vt 0.8201754 0.1666667
vt 0.75 0.1666667
vt 0.8333333 0.09649122
vt 0.9035088 0.09649122
vt 0.9035088 0.1666667
vt 0.8333333 0.1666667
vt 0.5833333 0.0131579
vt 0.6535088 0.0131579
vt 0.6535088 0.08333331
vt 0.5833333 0.08333331
vt 0.6666667 0.0131579
vt 0.7368421 0.0131579
vt 0.7368421 0.08333331
vt 0.6666667 0.08333331
vt 0.75 0.0131579
vt 0.8201754 0.0131579
vt 0.8201754 0.08333331
vt 0.75 0.08333331
vt 0.8333333 0.0131579
vt 0.9035088 0.0131579
vt 0.9035088 0.08333331
vt 0.8333333 0.08333331

# Normal
vn 0 0 -1

# Mesh description
g SnowyA_mesh_0009

# Faces
f 1/1/1 2/2/1 3/3/1 4/4/1
f 5/5/1 6/6/1 7/7/1 8/8/1
f 9/9/1 10/10/1 11/11/1 12/12/1
f 13/13/1 14/14/1 15/15/1 16/16/1
f 17/17/1 18/18/1 19/19/1 20/20/1
f 21/21/1 22/22/1 23/23/1 24/24/1
f 25/25/1 26/26/1 27/27/1 28/28/1
f 29/29/1 30/30/1 31/31/1 32/32/1
f 33/33/1 34/34/1 35/35/1 36/36/1
f 37/37/1 38/38/1 39/39/1 40/40/1
f 41/41/1 42/42/1 43/43/1 44/44/1
f 45/45/1 46/46/1 47/47/1 48/48/1
f 49/49/1 50/50/1 51/51/1 52/52/1
f 53/53/1 54/54/1 55/55/1 56/56/1
f 57/57/1 58/58/1 59/59/1 60/60/1
f 61/61/1 62/62/1 63/63/1 64/64/1
f 65/65/1 66/66/1 67/67/1 68/68/1
f 69/69/1 70/70/1 71/71/1 72/72/1
f 73/73/1 74/74/1 75/75/1 76/76/1
f 77/77/1 78/78/1 79/79/1 80/80/1
f 81/81/1 82/82/1 83/83/1 84/84/1
f 85/85/1 86/86/1 87/87/1 88/88/1
f 89/89/1 90/90/1 91/91/1 92/92/1
f 93/93/1 94/94/1 95/95/1 96/96/1
f 97/97/1 98/98/1 99/99/1 100/100/1
f 101/101/1 102/102/1 103/103/1 104/104/1
f 105/105/1 106/106/1 107/107/1 108/108/1
f 109/109/1 110/110/1 111/111/1 112/112/1
f 113/113/1 114/114/1 115/115/1 116/116/1
f 117/117/1 118/118/1 119/119/1 120/120/1
f 121/121/1 122/122/1 123/123/1 124/124/1
f 125/125/1 126/126/1 127/127/1 128/128/1
f 129/129/1 130/130/1 131/131/1 132/132/1
f 133/133/1 134/134/1 135/135/1 136/136/1
f 137/137/1 138/138/1 139/139/1 140/140/1
f 141/141/1 142/142/1 143/143/1 144/144/1
f 145/145/1 146/146/1 147/147/1 148/148/1
f 149/149/1 150/150/1 151/151/1 152/152/1
f 153/153/1 154/154/1 155/155/1 156/156/1
f 157/157/1 158/158/1 159/159/1 160/160/1
f 161/161/1 162/162/1 163/163/1 164/164/1
f 165/165/1 166/166/1 167/167/1 168/168/1
f 169/169/1 170/170/1 171/171/1 172/172/1
f 173/173/1 174/174/1 175/175/1 176/176/1
f 177/177/1 178/178/1 179/179/1 180/180/1
f 181/181/1 182/182/1 183/183/1 184/184/1
f 185/185/1 186/186/1 187/187/1 188/188/1
f 189/189/1 190/190/1 191/191/1 192/192/1
f 193/193/1 194/194/1 195/195/1 196/196/1
f 197/197/1 198/198/1 199/199/1 200/200/1
f 201/201/1 202/202/1 203/203/1 204/204/1
f 205/205/1 206/206/1 207/207/1 208/208/1
f 209/209/1 210/210/1 211/211/1 212/212/1
f 213/213/1 214/214/1 215/215/1 216/216/1
f 217/217/1 218/218/1 219/219/1 220/220/1
f 221/221/1 222/222/1 223/223/1 224/224/1
f 225/129/1 226/130/1 227/131/1 228/132/1
f 229/133/1 230/134/1 231/135/1 232/136/1
f 233/137/1 234/138/1 235/139/1 236/140/1
f 237/141/1 238/142/1 239/143/1 240/144/1
f 241/145/1 242/146/1 243/147/1 244/148/1
f 245/149/1 246/150/1 247/151/1 248/152/1
f 249/153/1 250/154/1 251/155/1 252/156/1
f 253/157/1 254/158/1 255/159/1 256/160/1
f 257/161/1 258/162/1 259/163/1 260/164/1
f 261/165/1 262/166/1 263/167/1 264/168/1
f 265/169/1 266/170/1 267/171/1 268/172/1
f 269/173/1 270/174/1 271/175/1 272/176/1
f 273/177/1 274/178/1 275/179/1 276/180/1
f 277/181/1 278/182/1 279/183/1 280/184/1
f 281/185/1 282/186/1 283/187/1 284/188/1
f 285/189/1 286/190/1 287/191/1 288/192/1
f 289/193/1 290/194/1 291/195/1 292/196/1
f 293/197/1 294/198/1 295/199/1 296/200/1
f 297/201/1 298/202/1 299/203/1 300/204/1
f 301/205/1 302/206/1 303/207/1 304/208/1
f 305/209/1 306/210/1 307/211/1 308/212/1
f 309/213/1 310/214/1 311/215/1 312/216/1
f 313/217/1 314/218/1 315/219/1 316/220/1
f 317/221/1 318/222/1 319/223/1 320/224/1

