# Tiled2Unity generated file. Do not modify by hand.
# Wavefront file for 'Dungeon-Room-2_mesh_0002.obj'

# Vertices (Count = 124)
v -18 -15 0
v -19 -15 0
v -19 -14 0
v -18 -14 0
v -9 -15 0
v -10 -15 0
v -10 -14 0
v -9 -14 0
v -18 -16 0
v -19 -16 0
v -19 -15 0
v -18 -15 0
v -9 -16 0
v -10 -16 0
v -10 -15 0
v -9 -15 0
v -18 -17 0
v -19 -17 0
v -19 -16 0
v -18 -16 0
v -9 -17 0
v -10 -17 0
v -10 -16 0
v -9 -16 0
v -18 -18 0
v -19 -18 0
v -19 -17 0
v -18 -17 0
v -9 -18 0
v -10 -18 0
v -10 -17 0
v -9 -17 0
v -18 -19 0
v -19 -19 0
v -19 -18 0
v -18 -18 0
v -9 -19 0
v -10 -19 0
v -10 -18 0
v -9 -18 0
v -18 -20 0
v -19 -20 0
v -19 -19 0
v -18 -19 0
v -9 -20 0
v -10 -20 0
v -10 -19 0
v -9 -19 0
v -18 -21 0
v -19 -21 0
v -19 -20 0
v -18 -20 0
v -9 -21 0
v -10 -21 0
v -10 -20 0
v -9 -20 0
v -18 -22 0
v -19 -22 0
v -19 -21 0
v -18 -21 0
v -9 -22 0
v -10 -22 0
v -10 -21 0
v -9 -21 0
v -18 -23 0
v -19 -23 0
v -19 -22 0
v -18 -22 0
v -9 -23 0
v -10 -23 0
v -10 -22 0
v -9 -22 0
v -18 -24 0
v -19 -24 0
v -19 -23 0
v -18 -23 0
v -9 -24 0
v -10 -24 0
v -10 -23 0
v -9 -23 0
v -18 -25 0
v -19 -25 0
v -19 -24 0
v -18 -24 0
v -9 -25 0
v -10 -25 0
v -10 -24 0
v -9 -24 0
v -18 -26 0
v -19 -26 0
v -19 -25 0
v -18 -25 0
v -9 -26 0
v -10 -26 0
v -10 -25 0
v -9 -25 0
v -18 -27 0
v -19 -27 0
v -19 -26 0
v -18 -26 0
v -9 -27 0
v -10 -27 0
v -10 -26 0
v -9 -26 0
v -18 -28 0
v -19 -28 0
v -19 -27 0
v -18 -27 0
v -9 -28 0
v -10 -28 0
v -10 -27 0
v -9 -27 0
v -18 -29 0
v -19 -29 0
v -19 -28 0
v -18 -28 0
v -9 -29 0
v -10 -29 0
v -10 -28 0
v -9 -28 0
v -18 -30 0
v -19 -30 0
v -19 -29 0
v -18 -29 0

# Texture cooridinates (Count = 6)
vt 0.4375 0.3636364
vt 0.375 0.3636364
vt 0.375 0.3181818
vt 0.4375 0.3181818
vt 0.4375 0.4090909
vt 0.375 0.4090909

# Normal
vn 0 0 -1

# Mesh description
g Dungeon-Room-2_mesh_0002

# Faces
f 1/1/1 2/2/1 3/3/1 4/4/1
f 5/2/1 6/1/1 7/5/1 8/6/1
f 9/1/1 10/2/1 11/3/1 12/4/1
f 13/3/1 14/4/1 15/1/1 16/2/1
f 17/1/1 18/2/1 19/3/1 20/4/1
f 21/2/1 22/1/1 23/5/1 24/6/1
f 25/1/1 26/2/1 27/3/1 28/4/1
f 29/3/1 30/4/1 31/1/1 32/2/1
f 33/1/1 34/2/1 35/3/1 36/4/1
f 37/2/1 38/1/1 39/5/1 40/6/1
f 41/1/1 42/2/1 43/3/1 44/4/1
f 45/3/1 46/4/1 47/1/1 48/2/1
f 49/1/1 50/2/1 51/3/1 52/4/1
f 53/2/1 54/1/1 55/5/1 56/6/1
f 57/1/1 58/2/1 59/3/1 60/4/1
f 61/2/1 62/1/1 63/5/1 64/6/1
f 65/1/1 66/2/1 67/3/1 68/4/1
f 69/2/1 70/1/1 71/5/1 72/6/1
f 73/1/1 74/2/1 75/3/1 76/4/1
f 77/2/1 78/1/1 79/5/1 80/6/1
f 81/1/1 82/2/1 83/3/1 84/4/1
f 85/2/1 86/1/1 87/5/1 88/6/1
f 89/5/1 90/6/1 91/2/1 92/1/1
f 93/2/1 94/1/1 95/5/1 96/6/1
f 97/1/1 98/2/1 99/3/1 100/4/1
f 101/2/1 102/1/1 103/5/1 104/6/1
f 105/5/1 106/6/1 107/2/1 108/1/1
f 109/2/1 110/1/1 111/5/1 112/6/1
f 113/1/1 114/2/1 115/3/1 116/4/1
f 117/3/1 118/4/1 119/1/1 120/2/1
f 121/5/1 122/6/1 123/2/1 124/1/1

