# Tiled2Unity generated file. Do not modify by hand.
# Wavefront file for 'Dungeon-Room-2_mesh_0034.obj'

# Vertices (Count = 88)
v -70 -42 0
v -71 -42 0
v -71 -41 0
v -70 -41 0
v -64 -44 0
v -65 -44 0
v -65 -43 0
v -64 -43 0
v -76 -45 0
v -77 -45 0
v -77 -44 0
v -76 -44 0
v -72 -45 0
v -73 -45 0
v -73 -44 0
v -72 -44 0
v -67 -46 0
v -68 -46 0
v -68 -45 0
v -67 -45 0
v -52 -50 0
v -53 -50 0
v -53 -49 0
v -52 -49 0
v -47 -50 0
v -48 -50 0
v -48 -49 0
v -47 -49 0
v -41 -50 0
v -42 -50 0
v -42 -49 0
v -41 -49 0
v -41 -51 0
v -42 -51 0
v -42 -50 0
v -41 -50 0
v -77 -52 0
v -78 -52 0
v -78 -51 0
v -77 -51 0
v -76 -52 0
v -77 -52 0
v -77 -51 0
v -76 -51 0
v -37 -52 0
v -38 -52 0
v -38 -51 0
v -37 -51 0
v -77 -53 0
v -78 -53 0
v -78 -52 0
v -77 -52 0
v -77 -56 0
v -78 -56 0
v -78 -55 0
v -77 -55 0
v -76 -56 0
v -77 -56 0
v -77 -55 0
v -76 -55 0
v -36 -59 0
v -37 -59 0
v -37 -58 0
v -36 -58 0
v -30 -59 0
v -31 -59 0
v -31 -58 0
v -30 -58 0
v -24 -59 0
v -25 -59 0
v -25 -58 0
v -24 -58 0
v -24 -62 0
v -25 -62 0
v -25 -61 0
v -24 -61 0
v -24 -66 0
v -25 -66 0
v -25 -65 0
v -24 -65 0
v -29 -69 0
v -30 -69 0
v -30 -68 0
v -29 -68 0
v -24 -70 0
v -25 -70 0
v -25 -69 0
v -24 -69 0

# Texture cooridinates (Count = 18)
vt 0.25 0.9090909
vt 0.125 0.9090909
vt 0.125 0.8636364
vt 0.25 0.8636364
vt 0 0.8636364
vt 0 0.9090909
vt 1 0.9090909
vt 0.875 0.9090909
vt 0.875 0.8636364
vt 1 0.8636364
vt 0.75 0.8636364
vt 0.75 0.9090909
vt 0.625 0.9090909
vt 0.625 0.8636364
vt 0.375 0.9090909
vt 0.375 0.8636364
vt 0.5 0.8636364
vt 0.5 0.9090909

# Normal
vn 0 0 -1

# Mesh description
g Dungeon-Room-2_mesh_0034

# Faces
f 1/1/1 2/2/1 3/3/1 4/4/1
f 5/5/1 6/3/1 7/2/1 8/6/1
f 9/7/1 10/8/1 11/9/1 12/10/1
f 13/5/1 14/3/1 15/2/1 16/6/1
f 17/11/1 18/9/1 19/8/1 20/12/1
f 21/7/1 22/10/1 23/9/1 24/8/1
f 25/12/1 26/13/1 27/14/1 28/11/1
f 29/12/1 30/13/1 31/14/1 32/11/1
f 33/9/1 34/10/1 35/7/1 36/8/1
f 37/3/1 38/4/1 39/1/1 40/2/1
f 41/9/1 42/8/1 43/12/1 44/11/1
f 45/15/1 46/16/1 47/17/1 48/18/1
f 49/1/1 50/2/1 51/3/1 52/4/1
f 53/4/1 54/1/1 55/2/1 56/3/1
f 57/2/1 58/3/1 59/4/1 60/1/1
f 61/17/1 62/18/1 63/15/1 64/16/1
f 65/8/1 66/9/1 67/10/1 68/7/1
f 69/18/1 70/15/1 71/16/1 72/17/1
f 73/4/1 74/16/1 75/15/1 76/1/1
f 77/9/1 78/10/1 79/7/1 80/8/1
f 81/7/1 82/8/1 83/9/1 84/10/1
f 85/9/1 86/10/1 87/7/1 88/8/1

