# Tiled2Unity generated file. Do not modify by hand.
# Wavefront file for 'Dungeon-Room-2_mesh_0032.obj'

# Vertices (Count = 32)
v -12 -10 0
v -14 -10 0
v -14 -8 0
v -12 -8 0
v -8 -10 0
v -10 -10 0
v -10 -8 0
v -8 -8 0
v -6 -19 0
v -8 -19 0
v -8 -17 0
v -6 -17 0
v -14 -20 0
v -16 -20 0
v -16 -18 0
v -14 -18 0
v -6 -24 0
v -8 -24 0
v -8 -22 0
v -6 -22 0
v -14 -26 0
v -16 -26 0
v -16 -24 0
v -14 -24 0
v -12 -26 0
v -14 -26 0
v -14 -24 0
v -12 -24 0
v -13 -27 0
v -15 -27 0
v -15 -25 0
v -13 -25 0

# Texture cooridinates (Count = 6)
vt 0.9230769 0.1363636
vt 1 0.1363636
vt 1 0.1818182
vt 0.9230769 0.1818182
vt 0.9230769 0.09090906
vt 1 0.09090906

# Normal
vn 0 0 -1

# Mesh description
g Dungeon-Room-2_mesh_0032

# Faces
f 1/1/1 2/2/1 3/3/1 4/4/1
f 5/1/1 6/2/1 7/3/1 8/4/1
f 9/4/1 10/1/1 11/2/1 12/3/1
f 13/5/1 14/6/1 15/2/1 16/1/1
f 17/4/1 18/1/1 19/2/1 20/3/1
f 21/5/1 22/6/1 23/2/1 24/1/1
f 25/5/1 26/6/1 27/2/1 28/1/1
f 29/5/1 30/6/1 31/2/1 32/1/1

