# Tiled2Unity generated file. Do not modify by hand.
# Wavefront file for 'Dungeon-Room-2_mesh_0033.obj'

# Vertices (Count = 40)
v -7 -16 0
v -9 -16 0
v -9 -14 0
v -7 -14 0
v -6 -16 0
v -8 -16 0
v -8 -14 0
v -6 -14 0
v -13 -18 0
v -15 -18 0
v -15 -16 0
v -13 -16 0
v -13 -19 0
v -15 -19 0
v -15 -17 0
v -13 -17 0
v -13 -20 0
v -15 -20 0
v -15 -18 0
v -13 -18 0
v -73 -38 0
v -75 -38 0
v -75 -36 0
v -73 -36 0
v -30 -53 0
v -32 -53 0
v -32 -51 0
v -30 -51 0
v -65 -58 0
v -67 -58 0
v -67 -56 0
v -65 -56 0
v -46 -61 0
v -48 -61 0
v -48 -59 0
v -46 -59 0
v -66 -70 0
v -68 -70 0
v -68 -68 0
v -66 -68 0

# Texture cooridinates (Count = 20)
vt 0.9230769 0.04545456
vt 0.9230769 0
vt 1 0
vt 1 0.04545456
vt 0.9230769 0.09090906
vt 1 0.09090906
vt 0.6923077 0.2727273
vt 0.7692308 0.2727273
vt 0.7692308 0.3181818
vt 0.6923077 0.3181818
vt 0.8461539 0.2727273
vt 0.9230769 0.2727273
vt 0.9230769 0.3181818
vt 0.8461539 0.3181818
vt 0.6923077 0
vt 0.7692308 0
vt 0.7692308 0.04545456
vt 0.6923077 0.04545456
vt 0.7692308 0.09090906
vt 0.6923077 0.09090906

# Normal
vn 0 0 -1

# Mesh description
g Dungeon-Room-2_mesh_0033

# Faces
f 1/1/1 2/2/1 3/3/1 4/4/1
f 5/5/1 6/1/1 7/4/1 8/6/1
f 9/7/1 10/8/1 11/9/1 12/10/1
f 13/11/1 14/12/1 15/13/1 16/14/1
f 17/13/1 18/14/1 19/11/1 20/12/1
f 21/15/1 22/16/1 23/17/1 24/18/1
f 25/15/1 26/16/1 27/17/1 28/18/1
f 29/19/1 30/20/1 31/18/1 32/17/1
f 33/15/1 34/16/1 35/17/1 36/18/1
f 37/20/1 38/18/1 39/17/1 40/19/1

