# Tiled2Unity generated file. Do not modify by hand.
# Wavefront file for 'Dungeon-Room-2_mesh_0035.obj'

# Vertices (Count = 44)
v -69 -43 0
v -70 -43 0
v -70 -42 0
v -69 -42 0
v -69 -44 0
v -70 -44 0
v -70 -43 0
v -69 -43 0
v -70 -45 0
v -71 -45 0
v -71 -44 0
v -70 -44 0
v -71 -46 0
v -72 -46 0
v -72 -45 0
v -71 -45 0
v -72 -47 0
v -73 -47 0
v -73 -46 0
v -72 -46 0
v -41 -52 0
v -42 -52 0
v -42 -51 0
v -41 -51 0
v -55 -53 0
v -56 -53 0
v -56 -52 0
v -55 -52 0
v -61 -55 0
v -62 -55 0
v -62 -54 0
v -61 -54 0
v -60 -56 0
v -61 -56 0
v -61 -55 0
v -60 -55 0
v -67 -57 0
v -68 -57 0
v -68 -56 0
v -67 -56 0
v -53 -57 0
v -54 -57 0
v -54 -56 0
v -53 -56 0

# Texture cooridinates (Count = 14)
vt 0.8571429 0.7142857
vt 1 0.7142857
vt 1 0.8571429
vt 0.8571429 0.8571429
vt 0.8571429 1
vt 0.7142857 1
vt 0.7142857 0.8571429
vt 1 1
vt 0.7142857 0.2857143
vt 0.8571429 0.2857143
vt 0.8571429 0.4285714
vt 0.7142857 0.4285714
vt 0.8571429 0.5714285
vt 0.7142857 0.5714285

# Normal
vn 0 0 -1

# Mesh description
g Dungeon-Room-2_mesh_0035

# Faces
f 1/1/1 2/2/1 3/3/1 4/4/1
f 5/5/1 6/6/1 7/7/1 8/4/1
f 9/4/1 10/3/1 11/8/1 12/5/1
f 13/4/1 14/3/1 15/8/1 16/5/1
f 17/1/1 18/2/1 19/3/1 20/4/1
f 21/9/1 22/10/1 23/11/1 24/12/1
f 25/9/1 26/10/1 27/11/1 28/12/1
f 29/7/1 30/4/1 31/5/1 32/6/1
f 33/6/1 34/7/1 35/4/1 36/5/1
f 37/12/1 38/11/1 39/13/1 40/14/1
f 41/9/1 42/10/1 43/11/1 44/12/1

