# Tiled2Unity generated file. Do not modify by hand.
# Wavefront file for 'Dungeon-Room-2_mesh_0028.obj'

# Vertices (Count = 124)
v -19 -9 0
v -20 -9 0
v -20 -8 0
v -19 -8 0
v -16 -9 0
v -17 -9 0
v -17 -8 0
v -16 -8 0
v -15 -9 0
v -16 -9 0
v -16 -8 0
v -15 -8 0
v -13 -9 0
v -14 -9 0
v -14 -8 0
v -13 -8 0
v -12 -9 0
v -13 -9 0
v -13 -8 0
v -12 -8 0
v -10 -9 0
v -11 -9 0
v -11 -8 0
v -10 -8 0
v -19 -10 0
v -20 -10 0
v -20 -9 0
v -19 -9 0
v -16 -10 0
v -17 -10 0
v -17 -9 0
v -16 -9 0
v -15 -10 0
v -16 -10 0
v -16 -9 0
v -15 -9 0
v -10 -10 0
v -11 -10 0
v -11 -9 0
v -10 -9 0
v -19 -11 0
v -20 -11 0
v -20 -10 0
v -19 -10 0
v -16 -11 0
v -17 -11 0
v -17 -10 0
v -16 -10 0
v -15 -11 0
v -16 -11 0
v -16 -10 0
v -15 -10 0
v -10 -11 0
v -11 -11 0
v -11 -10 0
v -10 -10 0
v -19 -12 0
v -20 -12 0
v -20 -11 0
v -19 -11 0
v -16 -12 0
v -17 -12 0
v -17 -11 0
v -16 -11 0
v -15 -12 0
v -16 -12 0
v -16 -11 0
v -15 -11 0
v -10 -12 0
v -11 -12 0
v -11 -11 0
v -10 -11 0
v -8 -22 0
v -9 -22 0
v -9 -21 0
v -8 -21 0
v -7 -22 0
v -8 -22 0
v -8 -21 0
v -7 -21 0
v -6 -22 0
v -7 -22 0
v -7 -21 0
v -6 -21 0
v -8 -25 0
v -9 -25 0
v -9 -24 0
v -8 -24 0
v -7 -25 0
v -8 -25 0
v -8 -24 0
v -7 -24 0
v -6 -25 0
v -7 -25 0
v -7 -24 0
v -6 -24 0
v -13 -26 0
v -14 -26 0
v -14 -25 0
v -13 -25 0
v -8 -26 0
v -9 -26 0
v -9 -25 0
v -8 -25 0
v -7 -26 0
v -8 -26 0
v -8 -25 0
v -7 -25 0
v -6 -26 0
v -7 -26 0
v -7 -25 0
v -6 -25 0
v -8 -31 0
v -9 -31 0
v -9 -30 0
v -8 -30 0
v -7 -31 0
v -8 -31 0
v -8 -30 0
v -7 -30 0
v -6 -31 0
v -7 -31 0
v -7 -30 0
v -6 -30 0

# Texture cooridinates (Count = 29)
vt 0.8461539 0.06818181
vt 0.8846154 0.06818181
vt 0.8846154 0.09090906
vt 0.8461539 0.09090906
vt 0.9615384 0.06818181
vt 1 0.06818181
vt 1 0.09090906
vt 0.9615384 0.09090906
vt 0.9230769 0.06818181
vt 0.9230769 0.09090906
vt 0.8461539 0.04545456
vt 0.8846154 0.04545456
vt 0.9615384 0.04545456
vt 1 0.04545456
vt 0.9230769 0.04545456
vt 0.8461539 0.02272725
vt 0.8846154 0.02272725
vt 0.9615384 0.02272725
vt 1 0.02272725
vt 0.9230769 0.02272725
vt 0.8461539 0
vt 0.8846154 0
vt 0.9615384 0
vt 1 0
vt 0.9230769 0
vt 0.9230769 0.2954546
vt 0.9230769 0.2727273
vt 0.9615384 0.2727273
vt 0.9615384 0.2954546

# Normal
vn 0 0 -1

# Mesh description
g Dungeon-Room-2_mesh_0028

# Faces
f 1/1/1 2/2/1 3/3/1 4/4/1
f 5/5/1 6/6/1 7/7/1 8/8/1
f 9/9/1 10/5/1 11/8/1 12/10/1
f 13/2/1 14/9/1 15/10/1 16/3/1
f 17/1/1 18/2/1 19/3/1 20/4/1
f 21/1/1 22/2/1 23/3/1 24/4/1
f 25/11/1 26/12/1 27/2/1 28/1/1
f 29/13/1 30/14/1 31/6/1 32/5/1
f 33/15/1 34/13/1 35/5/1 36/9/1
f 37/11/1 38/12/1 39/2/1 40/1/1
f 41/16/1 42/17/1 43/12/1 44/11/1
f 45/18/1 46/19/1 47/14/1 48/13/1
f 49/20/1 50/18/1 51/13/1 52/15/1
f 53/16/1 54/17/1 55/12/1 56/11/1
f 57/21/1 58/22/1 59/17/1 60/16/1
f 61/23/1 62/24/1 63/19/1 64/18/1
f 65/25/1 66/23/1 67/18/1 68/20/1
f 69/21/1 70/22/1 71/17/1 72/16/1
f 73/15/1 74/20/1 75/18/1 76/13/1
f 77/9/1 78/15/1 79/13/1 80/5/1
f 81/10/1 82/9/1 83/5/1 84/8/1
f 85/12/1 86/17/1 87/20/1 88/15/1
f 89/2/1 90/12/1 91/15/1 92/9/1
f 93/3/1 94/2/1 95/9/1 96/10/1
f 97/26/1 98/27/1 99/28/1 100/29/1
f 101/11/1 102/16/1 103/17/1 104/12/1
f 105/1/1 106/11/1 107/12/1 108/2/1
f 109/4/1 110/1/1 111/2/1 112/3/1
f 113/18/1 114/23/1 115/24/1 116/19/1
f 117/13/1 118/18/1 119/19/1 120/14/1
f 121/5/1 122/13/1 123/14/1 124/6/1

