# Tiled2Unity generated file. Do not modify by hand.
# Wavefront file for 'Sewers_A1_mesh_0002.obj'

# Vertices (Count = 56)
v -42 -12 0
v -43 -12 0
v -43 -11 0
v -42 -11 0
v -70 -33 0
v -71 -33 0
v -71 -32 0
v -70 -32 0
v -70 -34 0
v -71 -34 0
v -71 -33 0
v -70 -33 0
v -79 -43 0
v -80 -43 0
v -80 -42 0
v -79 -42 0
v -79 -44 0
v -80 -44 0
v -80 -43 0
v -79 -43 0
v -79 -45 0
v -80 -45 0
v -80 -44 0
v -79 -44 0
v -57 -49 0
v -58 -49 0
v -58 -48 0
v -57 -48 0
v -32 -53 0
v -33 -53 0
v -33 -52 0
v -32 -52 0
v -44 -73 0
v -45 -73 0
v -45 -72 0
v -44 -72 0
v -45 -73 0
v -46 -73 0
v -46 -72 0
v -45 -72 0
v -60 -73 0
v -61 -73 0
v -61 -72 0
v -60 -72 0
v -48 -74 0
v -49 -74 0
v -49 -73 0
v -48 -73 0
v -48 -75 0
v -49 -75 0
v -49 -74 0
v -48 -74 0
v -48 -76 0
v -49 -76 0
v -49 -75 0
v -48 -75 0

# Texture cooridinates (Count = 14)
vt 0.125 0.8181818
vt 0.1875 0.8181818
vt 0.1875 0.8636364
vt 0.125 0.8636364
vt 0.25 0.8181818
vt 0.25 0.8636364
vt 0.1875 0.7727273
vt 0.25 0.7727273
vt 0.25 0.9090909
vt 0.1875 0.9090909
vt 0.0625 0.9090909
vt 0.125 0.9090909
vt 0.125 0.9545454
vt 0.0625 0.9545454

# Normal
vn 0 0 -1

# Mesh description
g Sewers_A1_mesh_0002

# Faces
f 1/1/1 2/2/1 3/3/1 4/4/1
f 5/2/1 6/5/1 7/6/1 8/3/1
f 9/7/1 10/8/1 11/5/1 12/2/1
f 13/3/1 14/6/1 15/9/1 16/10/1
f 17/2/1 18/5/1 19/6/1 20/3/1
f 21/7/1 22/8/1 23/5/1 24/2/1
f 25/1/1 26/2/1 27/3/1 28/4/1
f 29/4/1 30/1/1 31/2/1 32/3/1
f 33/3/1 34/2/1 35/5/1 36/6/1
f 37/2/1 38/7/1 39/8/1 40/5/1
f 41/11/1 42/12/1 43/13/1 44/14/1
f 45/3/1 46/6/1 47/9/1 48/10/1
f 49/2/1 50/5/1 51/6/1 52/3/1
f 53/7/1 54/8/1 55/5/1 56/2/1

