# Tiled2Unity generated file. Do not modify by hand.
# Wavefront file for 'Sewers_A1_mesh_0009.obj'

# Vertices (Count = 36)
v -52 -58 0
v -53 -58 0
v -53 -57 0
v -52 -57 0
v -52 -61 0
v -53 -61 0
v -53 -60 0
v -52 -60 0
v -48 -69 0
v -49 -69 0
v -49 -68 0
v -48 -68 0
v -51 -71 0
v -52 -71 0
v -52 -70 0
v -51 -70 0
v -54 -71 0
v -55 -71 0
v -55 -70 0
v -54 -70 0
v -52 -77 0
v -53 -77 0
v -53 -76 0
v -52 -76 0
v -53 -81 0
v -54 -81 0
v -54 -80 0
v -53 -80 0
v -53 -86 0
v -54 -86 0
v -54 -85 0
v -53 -85 0
v -53 -92 0
v -54 -92 0
v -54 -91 0
v -53 -91 0

# Texture cooridinates (Count = 4)
vt 0.75 0.6363636
vt 0.8125 0.6363636
vt 0.8125 0.6818182
vt 0.75 0.6818182

# Normal
vn 0 0 -1

# Mesh description
g Sewers_A1_mesh_0009

# Faces
f 1/1/1 2/2/1 3/3/1 4/4/1
f 5/1/1 6/2/1 7/3/1 8/4/1
f 9/1/1 10/2/1 11/3/1 12/4/1
f 13/1/1 14/2/1 15/3/1 16/4/1
f 17/1/1 18/2/1 19/3/1 20/4/1
f 21/1/1 22/2/1 23/3/1 24/4/1
f 25/1/1 26/2/1 27/3/1 28/4/1
f 29/1/1 30/2/1 31/3/1 32/4/1
f 33/1/1 34/2/1 35/3/1 36/4/1

