# Tiled2Unity generated file. Do not modify by hand.
# Wavefront file for 'Sewers_A1_mesh_0003.obj'

# Vertices (Count = 12)
v -46 -57 0
v -48 -57 0
v -48 -55 0
v -46 -55 0
v -46 -59 0
v -48 -59 0
v -48 -57 0
v -46 -57 0
v -54 -78 0
v -56 -78 0
v -56 -76 0
v -54 -76 0

# Texture cooridinates (Count = 10)
vt 0.125 0.3492063
vt 0.15625 0.3492063
vt 0.15625 0.3650793
vt 0.125 0.3650793
vt 0.125 0.3333333
vt 0.15625 0.3333333
vt 0.15625 0.1269841
vt 0.1875 0.1269841
vt 0.1875 0.1428571
vt 0.15625 0.1428571

# Normal
vn 0 0 -1

# Mesh description
g Sewers_A1_mesh_0003

# Faces
f 1/1/1 2/2/1 3/3/1 4/4/1
f 5/5/1 6/6/1 7/2/1 8/1/1
f 9/7/1 10/8/1 11/9/1 12/10/1

