# Tiled2Unity generated file. Do not modify by hand.
# Wavefront file for 'Sewers_A1_mesh_0022.obj'

# Vertices (Count = 484)
v -56 -52 0
v -58 -52 0
v -58 -50 0
v -56 -50 0
v -56 -53 0
v -58 -53 0
v -58 -51 0
v -56 -51 0
v -56 -54 0
v -58 -54 0
v -58 -52 0
v -56 -52 0
v -56 -55 0
v -58 -55 0
v -58 -53 0
v -56 -53 0
v -56 -56 0
v -58 -56 0
v -58 -54 0
v -56 -54 0
v -57 -56 0
v -59 -56 0
v -59 -54 0
v -57 -54 0
v -58 -56 0
v -60 -56 0
v -60 -54 0
v -58 -54 0
v -59 -56 0
v -61 -56 0
v -61 -54 0
v -59 -54 0
v -60 -56 0
v -62 -56 0
v -62 -54 0
v -60 -54 0
v -52 -57 0
v -54 -57 0
v -54 -55 0
v -52 -55 0
v -56 -57 0
v -58 -57 0
v -58 -55 0
v -56 -55 0
v -51 -58 0
v -53 -58 0
v -53 -56 0
v -51 -56 0
v -52 -58 0
v -54 -58 0
v -54 -56 0
v -52 -56 0
v -55 -58 0
v -57 -58 0
v -57 -56 0
v -55 -56 0
v -56 -58 0
v -58 -58 0
v -58 -56 0
v -56 -56 0
v -61 -58 0
v -63 -58 0
v -63 -56 0
v -61 -56 0
v -50 -59 0
v -52 -59 0
v -52 -57 0
v -50 -57 0
v -51 -59 0
v -53 -59 0
v -53 -57 0
v -51 -57 0
v -52 -59 0
v -54 -59 0
v -54 -57 0
v -52 -57 0
v -53 -59 0
v -55 -59 0
v -55 -57 0
v -53 -57 0
v -56 -59 0
v -58 -59 0
v -58 -57 0
v -56 -57 0
v -50 -60 0
v -52 -60 0
v -52 -58 0
v -50 -58 0
v -51 -60 0
v -53 -60 0
v -53 -58 0
v -51 -58 0
v -52 -60 0
v -54 -60 0
v -54 -58 0
v -52 -58 0
v -53 -60 0
v -55 -60 0
v -55 -58 0
v -53 -58 0
v -60 -60 0
v -62 -60 0
v -62 -58 0
v -60 -58 0
v -50 -61 0
v -52 -61 0
v -52 -59 0
v -50 -59 0
v -51 -61 0
v -53 -61 0
v -53 -59 0
v -51 -59 0
v -52 -61 0
v -54 -61 0
v -54 -59 0
v -52 -59 0
v -53 -61 0
v -55 -61 0
v -55 -59 0
v -53 -59 0
v -54 -61 0
v -56 -61 0
v -56 -59 0
v -54 -59 0
v -55 -61 0
v -57 -61 0
v -57 -59 0
v -55 -59 0
v -58 -61 0
v -60 -61 0
v -60 -59 0
v -58 -59 0
v -59 -61 0
v -61 -61 0
v -61 -59 0
v -59 -59 0
v -49 -66 0
v -51 -66 0
v -51 -64 0
v -49 -64 0
v -50 -66 0
v -52 -66 0
v -52 -64 0
v -50 -64 0
v -51 -66 0
v -53 -66 0
v -53 -64 0
v -51 -64 0
v -52 -66 0
v -54 -66 0
v -54 -64 0
v -52 -64 0
v -53 -66 0
v -55 -66 0
v -55 -64 0
v -53 -64 0
v -54 -66 0
v -56 -66 0
v -56 -64 0
v -54 -64 0
v -55 -66 0
v -57 -66 0
v -57 -64 0
v -55 -64 0
v -57 -66 0
v -59 -66 0
v -59 -64 0
v -57 -64 0
v -48 -67 0
v -50 -67 0
v -50 -65 0
v -48 -65 0
v -49 -67 0
v -51 -67 0
v -51 -65 0
v -49 -65 0
v -51 -67 0
v -53 -67 0
v -53 -65 0
v -51 -65 0
v -55 -67 0
v -57 -67 0
v -57 -65 0
v -55 -65 0
v -56 -67 0
v -58 -67 0
v -58 -65 0
v -56 -65 0
v -57 -67 0
v -59 -67 0
v -59 -65 0
v -57 -65 0
v -58 -67 0
v -60 -67 0
v -60 -65 0
v -58 -65 0
v -47 -68 0
v -49 -68 0
v -49 -66 0
v -47 -66 0
v -50 -68 0
v -52 -68 0
v -52 -66 0
v -50 -66 0
v -51 -68 0
v -53 -68 0
v -53 -66 0
v -51 -66 0
v -52 -68 0
v -54 -68 0
v -54 -66 0
v -52 -66 0
v -53 -68 0
v -55 -68 0
v -55 -66 0
v -53 -66 0
v -54 -68 0
v -56 -68 0
v -56 -66 0
v -54 -66 0
v -55 -68 0
v -57 -68 0
v -57 -66 0
v -55 -66 0
v -56 -68 0
v -58 -68 0
v -58 -66 0
v -56 -66 0
v -58 -68 0
v -60 -68 0
v -60 -66 0
v -58 -66 0
v -47 -69 0
v -49 -69 0
v -49 -67 0
v -47 -67 0
v -48 -69 0
v -50 -69 0
v -50 -67 0
v -48 -67 0
v -49 -69 0
v -51 -69 0
v -51 -67 0
v -49 -67 0
v -50 -69 0
v -52 -69 0
v -52 -67 0
v -50 -67 0
v -51 -69 0
v -53 -69 0
v -53 -67 0
v -51 -67 0
v -52 -69 0
v -54 -69 0
v -54 -67 0
v -52 -67 0
v -53 -69 0
v -55 -69 0
v -55 -67 0
v -53 -67 0
v -54 -69 0
v -56 -69 0
v -56 -67 0
v -54 -67 0
v -55 -69 0
v -57 -69 0
v -57 -67 0
v -55 -67 0
v -56 -69 0
v -58 -69 0
v -58 -67 0
v -56 -67 0
v -58 -69 0
v -60 -69 0
v -60 -67 0
v -58 -67 0
v -48 -70 0
v -50 -70 0
v -50 -68 0
v -48 -68 0
v -49 -70 0
v -51 -70 0
v -51 -68 0
v -49 -68 0
v -50 -70 0
v -52 -70 0
v -52 -68 0
v -50 -68 0
v -51 -70 0
v -53 -70 0
v -53 -68 0
v -51 -68 0
v -52 -70 0
v -54 -70 0
v -54 -68 0
v -52 -68 0
v -53 -70 0
v -55 -70 0
v -55 -68 0
v -53 -68 0
v -54 -70 0
v -56 -70 0
v -56 -68 0
v -54 -68 0
v -55 -70 0
v -57 -70 0
v -57 -68 0
v -55 -68 0
v -56 -70 0
v -58 -70 0
v -58 -68 0
v -56 -68 0
v -58 -70 0
v -60 -70 0
v -60 -68 0
v -58 -68 0
v -48 -71 0
v -50 -71 0
v -50 -69 0
v -48 -69 0
v -49 -71 0
v -51 -71 0
v -51 -69 0
v -49 -69 0
v -50 -71 0
v -52 -71 0
v -52 -69 0
v -50 -69 0
v -51 -71 0
v -53 -71 0
v -53 -69 0
v -51 -69 0
v -52 -71 0
v -54 -71 0
v -54 -69 0
v -52 -69 0
v -53 -71 0
v -55 -71 0
v -55 -69 0
v -53 -69 0
v -54 -71 0
v -56 -71 0
v -56 -69 0
v -54 -69 0
v -55 -71 0
v -57 -71 0
v -57 -69 0
v -55 -69 0
v -56 -71 0
v -58 -71 0
v -58 -69 0
v -56 -69 0
v -57 -71 0
v -59 -71 0
v -59 -69 0
v -57 -69 0
v -58 -71 0
v -60 -71 0
v -60 -69 0
v -58 -69 0
v -49 -72 0
v -51 -72 0
v -51 -70 0
v -49 -70 0
v -50 -72 0
v -52 -72 0
v -52 -70 0
v -50 -70 0
v -51 -72 0
v -53 -72 0
v -53 -70 0
v -51 -70 0
v -52 -72 0
v -54 -72 0
v -54 -70 0
v -52 -70 0
v -53 -72 0
v -55 -72 0
v -55 -70 0
v -53 -70 0
v -54 -72 0
v -56 -72 0
v -56 -70 0
v -54 -70 0
v -55 -72 0
v -57 -72 0
v -57 -70 0
v -55 -70 0
v -56 -72 0
v -58 -72 0
v -58 -70 0
v -56 -70 0
v -51 -78 0
v -53 -78 0
v -53 -76 0
v -51 -76 0
v -52 -78 0
v -54 -78 0
v -54 -76 0
v -52 -76 0
v -53 -78 0
v -55 -78 0
v -55 -76 0
v -53 -76 0
v -51 -79 0
v -53 -79 0
v -53 -77 0
v -51 -77 0
v -51 -80 0
v -53 -80 0
v -53 -78 0
v -51 -78 0
v -52 -81 0
v -54 -81 0
v -54 -79 0
v -52 -79 0
v -52 -82 0
v -54 -82 0
v -54 -80 0
v -52 -80 0
v -51 -83 0
v -53 -83 0
v -53 -81 0
v -51 -81 0
v -52 -83 0
v -54 -83 0
v -54 -81 0
v -52 -81 0
v -51 -84 0
v -53 -84 0
v -53 -82 0
v -51 -82 0
v -52 -84 0
v -54 -84 0
v -54 -82 0
v -52 -82 0
v -51 -85 0
v -53 -85 0
v -53 -83 0
v -51 -83 0
v -52 -85 0
v -54 -85 0
v -54 -83 0
v -52 -83 0
v -51 -86 0
v -53 -86 0
v -53 -84 0
v -51 -84 0
v -53 -86 0
v -55 -86 0
v -55 -84 0
v -53 -84 0
v -51 -87 0
v -53 -87 0
v -53 -85 0
v -51 -85 0
v -53 -87 0
v -55 -87 0
v -55 -85 0
v -53 -85 0
v -51 -88 0
v -53 -88 0
v -53 -86 0
v -51 -86 0
v -53 -88 0
v -55 -88 0
v -55 -86 0
v -53 -86 0
v -51 -89 0
v -53 -89 0
v -53 -87 0
v -51 -87 0
v -53 -89 0
v -55 -89 0
v -55 -87 0
v -53 -87 0
v -51 -90 0
v -53 -90 0
v -53 -88 0
v -51 -88 0
v -51 -91 0
v -53 -91 0
v -53 -89 0
v -51 -89 0

# Texture cooridinates (Count = 13)
vt 0.09375 0.3492063
vt 0.125 0.3492063
vt 0.125 0.3650793
vt 0.09375 0.3650793
vt 0.25 0.1428571
vt 0.28125 0.1428571
vt 0.28125 0.1587301
vt 0.25 0.1587301
vt 0.21875 0.1269841
vt 0.25 0.1269841
vt 0.21875 0.1428571
vt 0.1875 0.1269841
vt 0.1875 0.1428571

# Normal
vn 0 0 -1

# Mesh description
g Sewers_A1_mesh_0022

# Faces
f 1/1/1 2/2/1 3/3/1 4/4/1
f 5/5/1 6/6/1 7/7/1 8/8/1
f 9/5/1 10/6/1 11/7/1 12/8/1
f 13/5/1 14/6/1 15/7/1 16/8/1
f 17/5/1 18/6/1 19/7/1 20/8/1
f 21/9/1 22/10/1 23/5/1 24/11/1
f 25/9/1 26/10/1 27/5/1 28/11/1
f 29/9/1 30/10/1 31/5/1 32/11/1
f 33/9/1 34/10/1 35/5/1 36/11/1
f 37/9/1 38/10/1 39/5/1 40/11/1
f 41/5/1 42/6/1 43/7/1 44/8/1
f 45/9/1 46/10/1 47/5/1 48/11/1
f 49/9/1 50/10/1 51/5/1 52/11/1
f 53/9/1 54/10/1 55/5/1 56/11/1
f 57/5/1 58/6/1 59/7/1 60/8/1
f 61/9/1 62/10/1 63/5/1 64/11/1
f 65/9/1 66/10/1 67/5/1 68/11/1
f 69/9/1 70/10/1 71/5/1 72/11/1
f 73/9/1 74/10/1 75/5/1 76/11/1
f 77/9/1 78/10/1 79/5/1 80/11/1
f 81/5/1 82/6/1 83/7/1 84/8/1
f 85/9/1 86/10/1 87/5/1 88/11/1
f 89/9/1 90/10/1 91/5/1 92/11/1
f 93/9/1 94/10/1 95/5/1 96/11/1
f 97/9/1 98/10/1 99/5/1 100/11/1
f 101/9/1 102/10/1 103/5/1 104/11/1
f 105/9/1 106/10/1 107/5/1 108/11/1
f 109/9/1 110/10/1 111/5/1 112/11/1
f 113/9/1 114/10/1 115/5/1 116/11/1
f 117/9/1 118/10/1 119/5/1 120/11/1
f 121/9/1 122/10/1 123/5/1 124/11/1
f 125/9/1 126/10/1 127/5/1 128/11/1
f 129/9/1 130/10/1 131/5/1 132/11/1
f 133/9/1 134/10/1 135/5/1 136/11/1
f 137/9/1 138/10/1 139/5/1 140/11/1
f 141/9/1 142/10/1 143/5/1 144/11/1
f 145/9/1 146/10/1 147/5/1 148/11/1
f 149/9/1 150/10/1 151/5/1 152/11/1
f 153/9/1 154/10/1 155/5/1 156/11/1
f 157/9/1 158/10/1 159/5/1 160/11/1
f 161/9/1 162/10/1 163/5/1 164/11/1
f 165/9/1 166/10/1 167/5/1 168/11/1
f 169/9/1 170/10/1 171/5/1 172/11/1
f 173/9/1 174/10/1 175/5/1 176/11/1
f 177/9/1 178/10/1 179/5/1 180/11/1
f 181/9/1 182/10/1 183/5/1 184/11/1
f 185/9/1 186/10/1 187/5/1 188/11/1
f 189/9/1 190/10/1 191/5/1 192/11/1
f 193/9/1 194/10/1 195/5/1 196/11/1
f 197/9/1 198/10/1 199/5/1 200/11/1
f 201/9/1 202/10/1 203/5/1 204/11/1
f 205/9/1 206/10/1 207/5/1 208/11/1
f 209/9/1 210/10/1 211/5/1 212/11/1
f 213/9/1 214/10/1 215/5/1 216/11/1
f 217/9/1 218/10/1 219/5/1 220/11/1
f 221/12/1 222/9/1 223/11/1 224/13/1
f 225/12/1 226/9/1 227/11/1 228/13/1
f 229/9/1 230/10/1 231/5/1 232/11/1
f 233/9/1 234/10/1 235/5/1 236/11/1
f 237/9/1 238/10/1 239/5/1 240/11/1
f 241/9/1 242/10/1 243/5/1 244/11/1
f 245/9/1 246/10/1 247/5/1 248/11/1
f 249/9/1 250/10/1 251/5/1 252/11/1
f 253/9/1 254/10/1 255/5/1 256/11/1
f 257/12/1 258/9/1 259/11/1 260/13/1
f 261/12/1 262/9/1 263/11/1 264/13/1
f 265/12/1 266/9/1 267/11/1 268/13/1
f 269/9/1 270/10/1 271/5/1 272/11/1
f 273/9/1 274/10/1 275/5/1 276/11/1
f 277/9/1 278/10/1 279/5/1 280/11/1
f 281/9/1 282/10/1 283/5/1 284/11/1
f 285/9/1 286/10/1 287/5/1 288/11/1
f 289/9/1 290/10/1 291/5/1 292/11/1
f 293/12/1 294/9/1 295/11/1 296/13/1
f 297/12/1 298/9/1 299/11/1 300/13/1
f 301/9/1 302/10/1 303/5/1 304/11/1
f 305/9/1 306/10/1 307/5/1 308/11/1
f 309/9/1 310/10/1 311/5/1 312/11/1
f 313/9/1 314/10/1 315/5/1 316/11/1
f 317/9/1 318/10/1 319/5/1 320/11/1
f 321/9/1 322/10/1 323/5/1 324/11/1
f 325/9/1 326/10/1 327/5/1 328/11/1
f 329/9/1 330/10/1 331/5/1 332/11/1
f 333/12/1 334/9/1 335/11/1 336/13/1
f 337/9/1 338/10/1 339/5/1 340/11/1
f 341/9/1 342/10/1 343/5/1 344/11/1
f 345/9/1 346/10/1 347/5/1 348/11/1
f 349/9/1 350/10/1 351/5/1 352/11/1
f 353/9/1 354/10/1 355/5/1 356/11/1
f 357/9/1 358/10/1 359/5/1 360/11/1
f 361/9/1 362/10/1 363/5/1 364/11/1
f 365/9/1 366/10/1 367/5/1 368/11/1
f 369/9/1 370/10/1 371/5/1 372/11/1
f 373/9/1 374/10/1 375/5/1 376/11/1
f 377/9/1 378/10/1 379/5/1 380/11/1
f 381/9/1 382/10/1 383/5/1 384/11/1
f 385/9/1 386/10/1 387/5/1 388/11/1
f 389/9/1 390/10/1 391/5/1 392/11/1
f 393/9/1 394/10/1 395/5/1 396/11/1
f 397/9/1 398/10/1 399/5/1 400/11/1
f 401/9/1 402/10/1 403/5/1 404/11/1
f 405/9/1 406/10/1 407/5/1 408/11/1
f 409/9/1 410/10/1 411/5/1 412/11/1
f 413/9/1 414/10/1 415/5/1 416/11/1
f 417/9/1 418/10/1 419/5/1 420/11/1
f 421/9/1 422/10/1 423/5/1 424/11/1
f 425/9/1 426/10/1 427/5/1 428/11/1
f 429/9/1 430/10/1 431/5/1 432/11/1
f 433/9/1 434/10/1 435/5/1 436/11/1
f 437/9/1 438/10/1 439/5/1 440/11/1
f 441/9/1 442/10/1 443/5/1 444/11/1
f 445/9/1 446/10/1 447/5/1 448/11/1
f 449/9/1 450/10/1 451/5/1 452/11/1
f 453/9/1 454/10/1 455/5/1 456/11/1
f 457/9/1 458/10/1 459/5/1 460/11/1
f 461/9/1 462/10/1 463/5/1 464/11/1
f 465/9/1 466/10/1 467/5/1 468/11/1
f 469/9/1 470/10/1 471/5/1 472/11/1
f 473/9/1 474/10/1 475/5/1 476/11/1
f 477/9/1 478/10/1 479/5/1 480/11/1
f 481/9/1 482/10/1 483/5/1 484/11/1

