# Tiled2Unity generated file. Do not modify by hand.
# Wavefront file for 'Sewers_A1_mesh_0023.obj'

# Vertices (Count = 12)
v -39 -52 0
v -40 -52 0
v -40 -51 0
v -39 -51 0
v -39 -53 0
v -40 -53 0
v -40 -52 0
v -39 -52 0
v -39 -54 0
v -40 -54 0
v -40 -53 0
v -39 -53 0

# Texture cooridinates (Count = 4)
vt 0 0.8636364
vt 0 0.8181818
vt 0.0625 0.8181818
vt 0.0625 0.8636364

# Normal
vn 0 0 -1

# Mesh description
g Sewers_A1_mesh_0023

# Faces
f 1/1/1 2/2/1 3/3/1 4/4/1
f 5/1/1 6/2/1 7/3/1 8/4/1
f 9/1/1 10/2/1 11/3/1 12/4/1

