# Tiled2Unity generated file. Do not modify by hand.
# Wavefront file for 'Sewers_A1_mesh_0020.obj'

# Vertices (Count = 188)
v -51 -54 0
v -53 -54 0
v -53 -52 0
v -51 -52 0
v -52 -54 0
v -54 -54 0
v -54 -52 0
v -52 -52 0
v -54 -54 0
v -56 -54 0
v -56 -52 0
v -54 -52 0
v -55 -54 0
v -57 -54 0
v -57 -52 0
v -55 -52 0
v -56 -54 0
v -58 -54 0
v -58 -52 0
v -56 -52 0
v -57 -54 0
v -59 -54 0
v -59 -52 0
v -57 -52 0
v -58 -54 0
v -60 -54 0
v -60 -52 0
v -58 -52 0
v -60 -54 0
v -62 -54 0
v -62 -52 0
v -60 -52 0
v -61 -54 0
v -63 -54 0
v -63 -52 0
v -61 -52 0
v -52 -67 0
v -54 -67 0
v -54 -65 0
v -52 -65 0
v -53 -67 0
v -55 -67 0
v -55 -65 0
v -53 -65 0
v -57 -67 0
v -59 -67 0
v -59 -65 0
v -57 -65 0
v -47 -68 0
v -49 -68 0
v -49 -66 0
v -47 -66 0
v -51 -68 0
v -53 -68 0
v -53 -66 0
v -51 -66 0
v -52 -68 0
v -54 -68 0
v -54 -66 0
v -52 -66 0
v -53 -68 0
v -55 -68 0
v -55 -66 0
v -53 -66 0
v -54 -68 0
v -56 -68 0
v -56 -66 0
v -54 -66 0
v -55 -68 0
v -57 -68 0
v -57 -66 0
v -55 -66 0
v -45 -69 0
v -47 -69 0
v -47 -67 0
v -45 -67 0
v -46 -69 0
v -48 -69 0
v -48 -67 0
v -46 -67 0
v -47 -69 0
v -49 -69 0
v -49 -67 0
v -47 -67 0
v -51 -69 0
v -53 -69 0
v -53 -67 0
v -51 -67 0
v -46 -70 0
v -48 -70 0
v -48 -68 0
v -46 -68 0
v -47 -70 0
v -49 -70 0
v -49 -68 0
v -47 -68 0
v -50 -70 0
v -52 -70 0
v -52 -68 0
v -50 -68 0
v -51 -70 0
v -53 -70 0
v -53 -68 0
v -51 -68 0
v -52 -70 0
v -54 -70 0
v -54 -68 0
v -52 -68 0
v -53 -70 0
v -55 -70 0
v -55 -68 0
v -53 -68 0
v -45 -71 0
v -47 -71 0
v -47 -69 0
v -45 -69 0
v -46 -71 0
v -48 -71 0
v -48 -69 0
v -46 -69 0
v -47 -71 0
v -49 -71 0
v -49 -69 0
v -47 -69 0
v -51 -71 0
v -53 -71 0
v -53 -69 0
v -51 -69 0
v -53 -71 0
v -55 -71 0
v -55 -69 0
v -53 -69 0
v -57 -73 0
v -59 -73 0
v -59 -71 0
v -57 -71 0
v -51 -77 0
v -53 -77 0
v -53 -75 0
v -51 -75 0
v -52 -77 0
v -54 -77 0
v -54 -75 0
v -52 -75 0
v -51 -78 0
v -53 -78 0
v -53 -76 0
v -51 -76 0
v -52 -78 0
v -54 -78 0
v -54 -76 0
v -52 -76 0
v -51 -79 0
v -53 -79 0
v -53 -77 0
v -51 -77 0
v -52 -79 0
v -54 -79 0
v -54 -77 0
v -52 -77 0
v -53 -79 0
v -55 -79 0
v -55 -77 0
v -53 -77 0
v -51 -80 0
v -53 -80 0
v -53 -78 0
v -51 -78 0
v -52 -80 0
v -54 -80 0
v -54 -78 0
v -52 -78 0
v -51 -81 0
v -53 -81 0
v -53 -79 0
v -51 -79 0
v -53 -81 0
v -55 -81 0
v -55 -79 0
v -53 -79 0
v -51 -83 0
v -53 -83 0
v -53 -81 0
v -51 -81 0
v -55 -86 0
v -57 -86 0
v -57 -84 0
v -55 -84 0

# Texture cooridinates (Count = 18)
vt 0.09375 0.3174603
vt 0.125 0.3174603
vt 0.125 0.3333333
vt 0.09375 0.3333333
vt 0.09375 0.3492063
vt 0.125 0.3492063
vt 0.125 0.3650793
vt 0.09375 0.3650793
vt 0.0625 0.4761904
vt 0.09375 0.4761904
vt 0.09375 0.4920635
vt 0.0625 0.4920635
vt 0.1875 0.1111111
vt 0.21875 0.1111111
vt 0.21875 0.1269841
vt 0.1875 0.1269841
vt 0.15625 0.3333333
vt 0.15625 0.3492063

# Normal
vn 0 0 -1

# Mesh description
g Sewers_A1_mesh_0020

# Faces
f 1/1/1 2/2/1 3/3/1 4/4/1
f 5/1/1 6/2/1 7/3/1 8/4/1
f 9/5/1 10/6/1 11/7/1 12/8/1
f 13/5/1 14/6/1 15/7/1 16/8/1
f 17/5/1 18/6/1 19/7/1 20/8/1
f 21/5/1 22/6/1 23/7/1 24/8/1
f 25/1/1 26/2/1 27/3/1 28/4/1
f 29/9/1 30/10/1 31/11/1 32/12/1
f 33/9/1 34/10/1 35/11/1 36/12/1
f 37/1/1 38/2/1 39/3/1 40/4/1
f 41/1/1 42/2/1 43/3/1 44/4/1
f 45/5/1 46/6/1 47/7/1 48/8/1
f 49/9/1 50/10/1 51/11/1 52/12/1
f 53/1/1 54/2/1 55/3/1 56/4/1
f 57/1/1 58/2/1 59/3/1 60/4/1
f 61/1/1 62/2/1 63/3/1 64/4/1
f 65/1/1 66/2/1 67/3/1 68/4/1
f 69/1/1 70/2/1 71/3/1 72/4/1
f 73/1/1 74/2/1 75/3/1 76/4/1
f 77/1/1 78/2/1 79/3/1 80/4/1
f 81/9/1 82/10/1 83/11/1 84/12/1
f 85/1/1 86/2/1 87/3/1 88/4/1
f 89/1/1 90/2/1 91/3/1 92/4/1
f 93/9/1 94/10/1 95/11/1 96/12/1
f 97/5/1 98/6/1 99/7/1 100/8/1
f 101/5/1 102/6/1 103/7/1 104/8/1
f 105/5/1 106/6/1 107/7/1 108/8/1
f 109/5/1 110/6/1 111/7/1 112/8/1
f 113/1/1 114/2/1 115/3/1 116/4/1
f 117/1/1 118/2/1 119/3/1 120/4/1
f 121/9/1 122/10/1 123/11/1 124/12/1
f 125/5/1 126/6/1 127/7/1 128/8/1
f 129/5/1 130/6/1 131/7/1 132/8/1
f 133/5/1 134/6/1 135/7/1 136/8/1
f 137/1/1 138/2/1 139/3/1 140/4/1
f 141/1/1 142/2/1 143/3/1 144/4/1
f 145/1/1 146/2/1 147/3/1 148/4/1
f 149/1/1 150/2/1 151/3/1 152/4/1
f 153/1/1 154/2/1 155/3/1 156/4/1
f 157/1/1 158/2/1 159/3/1 160/4/1
f 161/5/1 162/6/1 163/7/1 164/8/1
f 165/1/1 166/2/1 167/3/1 168/4/1
f 169/1/1 170/2/1 171/3/1 172/4/1
f 173/13/1 174/14/1 175/15/1 176/16/1
f 177/1/1 178/2/1 179/3/1 180/4/1
f 181/5/1 182/6/1 183/7/1 184/8/1
f 185/3/1 186/17/1 187/18/1 188/6/1

