# Tiled2Unity generated file. Do not modify by hand.
# Wavefront file for 'Sewers_A1_mesh_0023.obj'

# Vertices (Count = 64)
v -34 -46 0
v -35 -46 0
v -35 -45 0
v -34 -45 0
v -35 -46 0
v -36 -46 0
v -36 -45 0
v -35 -45 0
v -36 -46 0
v -37 -46 0
v -37 -45 0
v -36 -45 0
v -34 -47 0
v -35 -47 0
v -35 -46 0
v -34 -46 0
v -35 -47 0
v -36 -47 0
v -36 -46 0
v -35 -46 0
v -36 -47 0
v -37 -47 0
v -37 -46 0
v -36 -46 0
v -34 -48 0
v -35 -48 0
v -35 -47 0
v -34 -47 0
v -36 -48 0
v -37 -48 0
v -37 -47 0
v -36 -47 0
v -39 -52 0
v -40 -52 0
v -40 -51 0
v -39 -51 0
v -40 -52 0
v -41 -52 0
v -41 -51 0
v -40 -51 0
v -41 -52 0
v -42 -52 0
v -42 -51 0
v -41 -51 0
v -39 -53 0
v -40 -53 0
v -40 -52 0
v -39 -52 0
v -40 -53 0
v -41 -53 0
v -41 -52 0
v -40 -52 0
v -39 -54 0
v -40 -54 0
v -40 -53 0
v -39 -53 0
v -40 -54 0
v -41 -54 0
v -41 -53 0
v -40 -53 0
v -41 -54 0
v -42 -54 0
v -42 -53 0
v -41 -53 0

# Texture cooridinates (Count = 14)
vt 0 0.8181818
vt 0.0625 0.8181818
vt 0.0625 0.8636364
vt 0 0.8636364
vt 0.25 0.7272727
vt 0.3125 0.7272727
vt 0.3125 0.7727273
vt 0.25 0.7727273
vt 0.375 0.7272727
vt 0.375 0.7727273
vt 0.4375 0.7272727
vt 0.4375 0.7727273
vt 0.375 0.6818182
vt 0.4375 0.6818182

# Normal
vn 0 0 -1

# Mesh description
g Sewers_A1_mesh_0023

# Faces
f 1/1/1 2/2/1 3/3/1 4/4/1
f 5/1/1 6/2/1 7/3/1 8/4/1
f 9/1/1 10/2/1 11/3/1 12/4/1
f 13/5/1 14/6/1 15/7/1 16/8/1
f 17/6/1 18/9/1 19/10/1 20/7/1
f 21/9/1 22/11/1 23/12/1 24/10/1
f 25/11/1 26/9/1 27/13/1 28/14/1
f 29/13/1 30/14/1 31/11/1 32/9/1
f 33/4/1 34/1/1 35/2/1 36/3/1
f 37/10/1 38/9/1 39/11/1 40/12/1
f 41/9/1 42/13/1 43/14/1 44/11/1
f 45/4/1 46/1/1 47/2/1 48/3/1
f 49/7/1 50/6/1 51/9/1 52/10/1
f 53/4/1 54/1/1 55/2/1 56/3/1
f 57/8/1 58/5/1 59/6/1 60/7/1
f 61/14/1 62/11/1 63/9/1 64/13/1

